<?xml version="1.0" encoding="utf-8" standalone="no"?>
<!DOCTYPE svg PUBLIC "-//W3C//DTD SVG 1.1//EN"
  "http://www.w3.org/Graphics/SVG/1.1/DTD/svg11.dtd">
<svg xmlns:xlink="http://www.w3.org/1999/xlink" width="369.36pt" height="173.56pt" viewBox="0 0 369.36 173.56" xmlns="http://www.w3.org/2000/svg" version="1.1">
 <metadata>
  <rdf:RDF xmlns:dc="http://purl.org/dc/elements/1.1/" xmlns:cc="http://creativecommons.org/ns#" xmlns:rdf="http://www.w3.org/1999/02/22-rdf-syntax-ns#">
   <cc:Work>
    <dc:type rdf:resource="http://purl.org/dc/dcmitype/StillImage"/>
    <dc:date>2024-10-24T14:42:53.650798</dc:date>
    <dc:format>image/svg+xml</dc:format>
    <dc:creator>
     <cc:Agent>
      <dc:title>Matplotlib v3.9.2, https://matplotlib.org/</dc:title>
     </cc:Agent>
    </dc:creator>
   </cc:Work>
  </rdf:RDF>
 </metadata>
 <defs>
  <style type="text/css">*{stroke-linejoin: round; stroke-linecap: butt}</style>
 </defs>
 <g id="figure_1">
  <g id="patch_1">
   <path d="M 0 173.56 
L 369.36 173.56 
L 369.36 0 
L 0 0 
z
" style="fill: #ffffff"/>
  </g>
  <g id="axes_1">
   <g id="patch_2">
    <path d="M 112.68 168.88 
C 117.453656 168.88 122.032438 166.983406 125.407922 163.607922 
C 128.783406 160.232438 130.68 155.653656 130.68 150.88 
C 130.68 146.106344 128.783406 141.527562 125.407922 138.152078 
C 122.032438 134.776594 117.453656 132.88 112.68 132.88 
C 107.906344 132.88 103.327562 134.776594 99.952078 138.152078 
C 96.576594 141.527562 94.68 146.106344 94.68 150.88 
C 94.68 155.653656 96.576594 160.232438 99.952078 163.607922 
C 103.327562 166.983406 107.906344 168.88 112.68 168.88 
L 112.68 168.88 
z
" clip-path="url(#pe7cb164f08)" style="fill: none; stroke: #000000; stroke-width: 2; stroke-linejoin: miter"/>
   </g>
   <g id="patch_3">
    <path d="M 256.68 114.88 
C 261.453656 114.88 266.032438 112.983406 269.407922 109.607922 
C 272.783406 106.232438 274.68 101.653656 274.68 96.88 
C 274.68 92.106344 272.783406 87.527562 269.407922 84.152078 
C 266.032438 80.776594 261.453656 78.88 256.68 78.88 
C 251.906344 78.88 247.327562 80.776594 243.952078 84.152078 
C 240.576594 87.527562 238.68 92.106344 238.68 96.88 
C 238.68 101.653656 240.576594 106.232438 243.952078 109.607922 
C 247.327562 112.983406 251.906344 114.88 256.68 114.88 
L 256.68 114.88 
z
" clip-path="url(#pe7cb164f08)" style="fill: none; stroke: #000000; stroke-width: 2; stroke-linejoin: miter"/>
   </g>
   <g id="line2d_1">
    <path d="M 4.68 42.88 
L 40.68 42.88 
L 76.68 42.88 
" clip-path="url(#pe7cb164f08)" style="fill: none; stroke: #000000; stroke-width: 2; stroke-linecap: round"/>
   </g>
   <g id="line2d_2">
    <path d="M 76.68 42.88 
L 109.08 42.88 
L 109.08 33.88 
L 152.28 33.88 
L 152.28 51.88 
L 109.08 51.88 
L 109.08 42.88 
M 152.28 42.88 
L 184.68 42.88 
" clip-path="url(#pe7cb164f08)" style="fill: none; stroke: #000000; stroke-width: 2; stroke-linecap: round"/>
   </g>
   <g id="line2d_3">
    <path d="M 94.68 19.48 
L 155.88 19.48 
" clip-path="url(#pe7cb164f08)" style="fill: none; stroke: #000000; stroke-width: 2; stroke-linecap: round"/>
   </g>
   <g id="patch_4">
    <path d="M 155.88 15.88 
L 166.68 19.48 
L 155.88 23.08 
z
" clip-path="url(#pe7cb164f08)"/>
   </g>
   <g id="line2d_4">
    <path d="M 184.68 42.88 
L 184.68 96.88 
L 184.68 150.88 
" clip-path="url(#pe7cb164f08)" style="fill: none; stroke: #000000; stroke-width: 2; stroke-linecap: round"/>
   </g>
   <g id="line2d_5">
    <path d="M 199.08 78.88 
L 199.08 104.08 
" clip-path="url(#pe7cb164f08)" style="fill: none; stroke: #000000; stroke-width: 2; stroke-linecap: round"/>
   </g>
   <g id="patch_5">
    <path d="M 202.68 104.08 
L 199.08 114.88 
L 195.48 104.08 
z
" clip-path="url(#pe7cb164f08)"/>
   </g>
   <g id="line2d_6">
    <path d="M 184.68 150.88 
L 235.08 150.88 
L 235.08 141.88 
L 278.28 141.88 
L 278.28 159.88 
L 235.08 159.88 
L 235.08 150.88 
M 278.28 150.88 
L 328.68 150.88 
" clip-path="url(#pe7cb164f08)" style="fill: none; stroke: #000000; stroke-width: 2; stroke-linecap: round"/>
   </g>
   <g id="line2d_7">
    <path d="M 328.68 150.88 
L 346.68 150.88 
L 364.68 150.88 
" clip-path="url(#pe7cb164f08)" style="fill: none; stroke: #000000; stroke-width: 2; stroke-linecap: round"/>
   </g>
   <g id="line2d_8">
    <path d="M 184.68 150.88 
L 130.68 150.88 
L 130.68 150.88 
M 94.68 150.88 
L 94.68 150.88 
L 40.68 150.88 
" clip-path="url(#pe7cb164f08)" style="fill: none; stroke: #000000; stroke-width: 2; stroke-linecap: round"/>
   </g>
   <g id="line2d_9">
    <path d="M 121.68 150.88 
L 112.68 150.88 
" clip-path="url(#pe7cb164f08)" style="fill: none; stroke: #000000; stroke-width: 2; stroke-linecap: round"/>
   </g>
   <g id="patch_6">
    <path d="M 112.68 153.58 
L 103.68 150.88 
L 112.68 148.18 
z
" clip-path="url(#pe7cb164f08)"/>
   </g>
   <g id="line2d_10">
    <path d="M 40.68 150.88 
L 22.68 150.88 
L 4.68 150.88 
" clip-path="url(#pe7cb164f08)" style="fill: none; stroke: #000000; stroke-width: 2; stroke-linecap: round"/>
   </g>
   <g id="line2d_11">
    <path d="M 184.68 42.88 
L 129.96 83.92 
L 135.36 91.12 
L 100.8 117.04 
L 90 102.64 
L 124.56 76.72 
L 129.96 83.92 
M 95.4 109.84 
L 40.68 150.88 
" clip-path="url(#pe7cb164f08)" style="fill: none; stroke: #000000; stroke-width: 2; stroke-linecap: round"/>
   </g>
   <g id="line2d_12">
    <path d="M 113.04 67.36 
L 92.88 82.48 
" clip-path="url(#pe7cb164f08)" style="fill: none; stroke: #000000; stroke-width: 2; stroke-linecap: round"/>
   </g>
   <g id="patch_7">
    <path d="M 95.04 85.36 
L 84.24 88.96 
L 90.72 79.6 
z
" clip-path="url(#pe7cb164f08)"/>
   </g>
   <g id="line2d_13">
    <path d="M 184.68 42.88 
L 242.28 86.08 
L 242.28 86.08 
M 271.08 107.68 
L 271.08 107.68 
L 328.68 150.88 
" clip-path="url(#pe7cb164f08)" style="fill: none; stroke: #000000; stroke-width: 2; stroke-linecap: round"/>
   </g>
   <g id="line2d_14">
    <path d="M 256.68 96.88 
L 263.88 102.28 
" clip-path="url(#pe7cb164f08)" style="fill: none; stroke: #000000; stroke-width: 2; stroke-linecap: round"/>
   </g>
   <g id="patch_8">
    <path d="M 255.06 99.04 
L 249.48 91.48 
L 258.3 94.72 
z
" clip-path="url(#pe7cb164f08)"/>
   </g>
   <g id="line2d_15">
    <path d="M 184.68 42.88 
L 235.08 42.88 
L 235.08 33.88 
L 278.28 33.88 
L 278.28 51.88 
L 235.08 51.88 
L 235.08 42.88 
M 278.28 42.88 
L 328.68 42.88 
" clip-path="url(#pe7cb164f08)" style="fill: none; stroke: #000000; stroke-width: 2; stroke-linecap: round"/>
   </g>
   <g id="line2d_16">
    <path d="M 222.3 19.48 
L 283.5 19.48 
" clip-path="url(#pe7cb164f08)" style="fill: none; stroke: #000000; stroke-width: 2; stroke-linecap: round"/>
   </g>
   <g id="patch_9">
    <path d="M 283.5 15.88 
L 294.3 19.48 
L 283.5 23.08 
z
" clip-path="url(#pe7cb164f08)"/>
   </g>
   <g id="line2d_17">
    <path d="M 328.68 42.88 
L 346.68 42.88 
L 364.68 42.88 
" clip-path="url(#pe7cb164f08)" style="fill: none; stroke: #000000; stroke-width: 2; stroke-linecap: round"/>
   </g>
   <g id="text_1">
    <!-- $i_1=7.5A$ -->
    <g transform="translate(100.86 12.968437) scale(0.14 -0.14)">
     <defs>
      <path id="DejaVuSans-Oblique-69" d="M 1172 4863 
L 1747 4863 
L 1606 4134 
L 1031 4134 
L 1172 4863 
z
M 909 3500 
L 1484 3500 
L 800 0 
L 225 0 
L 909 3500 
z
" transform="scale(0.015625)"/>
      <path id="DejaVuSans-31" d="M 794 531 
L 1825 531 
L 1825 4091 
L 703 3866 
L 703 4441 
L 1819 4666 
L 2450 4666 
L 2450 531 
L 3481 531 
L 3481 0 
L 794 0 
L 794 531 
z
" transform="scale(0.015625)"/>
      <path id="DejaVuSans-3d" d="M 678 2906 
L 4684 2906 
L 4684 2381 
L 678 2381 
L 678 2906 
z
M 678 1631 
L 4684 1631 
L 4684 1100 
L 678 1100 
L 678 1631 
z
" transform="scale(0.015625)"/>
      <path id="DejaVuSans-37" d="M 525 4666 
L 3525 4666 
L 3525 4397 
L 1831 0 
L 1172 0 
L 2766 4134 
L 525 4134 
L 525 4666 
z
" transform="scale(0.015625)"/>
      <path id="DejaVuSans-2e" d="M 684 794 
L 1344 794 
L 1344 0 
L 684 0 
L 684 794 
z
" transform="scale(0.015625)"/>
      <path id="DejaVuSans-35" d="M 691 4666 
L 3169 4666 
L 3169 4134 
L 1269 4134 
L 1269 2991 
Q 1406 3038 1543 3061 
Q 1681 3084 1819 3084 
Q 2600 3084 3056 2656 
Q 3513 2228 3513 1497 
Q 3513 744 3044 326 
Q 2575 -91 1722 -91 
Q 1428 -91 1123 -41 
Q 819 9 494 109 
L 494 744 
Q 775 591 1075 516 
Q 1375 441 1709 441 
Q 2250 441 2565 725 
Q 2881 1009 2881 1497 
Q 2881 1984 2565 2268 
Q 2250 2553 1709 2553 
Q 1456 2553 1204 2497 
Q 953 2441 691 2322 
L 691 4666 
z
" transform="scale(0.015625)"/>
      <path id="DejaVuSans-Oblique-41" d="M 2356 4666 
L 3072 4666 
L 3938 0 
L 3278 0 
L 3084 1197 
L 984 1197 
L 325 0 
L -341 0 
L 2356 4666 
z
M 2584 4044 
L 1275 1722 
L 2988 1722 
L 2584 4044 
z
" transform="scale(0.015625)"/>
     </defs>
     <use xlink:href="#DejaVuSans-Oblique-69" transform="translate(0 0.015625)"/>
     <use xlink:href="#DejaVuSans-31" transform="translate(27.783203 -16.390625) scale(0.7)"/>
     <use xlink:href="#DejaVuSans-3d" transform="translate(94.536133 0.015625)"/>
     <use xlink:href="#DejaVuSans-37" transform="translate(197.807617 0.015625)"/>
     <use xlink:href="#DejaVuSans-2e" transform="translate(261.430664 0.015625)"/>
     <use xlink:href="#DejaVuSans-35" transform="translate(293.217773 0.015625)"/>
     <use xlink:href="#DejaVuSans-Oblique-41" transform="translate(356.84082 0.015625)"/>
    </g>
   </g>
   <g id="text_2">
    <!-- $i_{sc}$ -->
    <g transform="translate(202.68 100.743125) scale(0.14 -0.14)">
     <defs>
      <path id="DejaVuSans-Oblique-73" d="M 3200 3397 
L 3091 2853 
Q 2863 2978 2609 3040 
Q 2356 3103 2088 3103 
Q 1634 3103 1373 2948 
Q 1113 2794 1113 2528 
Q 1113 2219 1719 2053 
Q 1766 2041 1788 2034 
L 1972 1978 
Q 2547 1819 2739 1644 
Q 2931 1469 2931 1166 
Q 2931 609 2489 259 
Q 2047 -91 1331 -91 
Q 1053 -91 747 -37 
Q 441 16 72 128 
L 184 722 
Q 500 559 806 475 
Q 1113 391 1394 391 
Q 1816 391 2080 572 
Q 2344 753 2344 1031 
Q 2344 1331 1650 1516 
L 1591 1531 
L 1394 1581 
Q 956 1697 753 1886 
Q 550 2075 550 2369 
Q 550 2928 970 3256 
Q 1391 3584 2113 3584 
Q 2397 3584 2667 3537 
Q 2938 3491 3200 3397 
z
" transform="scale(0.015625)"/>
      <path id="DejaVuSans-Oblique-63" d="M 3431 3366 
L 3316 2797 
Q 3109 2947 2876 3022 
Q 2644 3097 2394 3097 
Q 2119 3097 1870 3000 
Q 1622 2903 1453 2725 
Q 1184 2453 1037 2087 
Q 891 1722 891 1331 
Q 891 859 1127 628 
Q 1363 397 1844 397 
Q 2081 397 2348 469 
Q 2616 541 2906 684 
L 2797 116 
Q 2547 13 2283 -39 
Q 2019 -91 1741 -91 
Q 1044 -91 669 257 
Q 294 606 294 1253 
Q 294 1797 489 2255 
Q 684 2713 1069 3078 
Q 1331 3328 1684 3456 
Q 2038 3584 2456 3584 
Q 2700 3584 2940 3529 
Q 3181 3475 3431 3366 
z
" transform="scale(0.015625)"/>
     </defs>
     <use xlink:href="#DejaVuSans-Oblique-69" transform="translate(0 0.015625)"/>
     <use xlink:href="#DejaVuSans-Oblique-73" transform="translate(27.783203 -16.390625) scale(0.7)"/>
     <use xlink:href="#DejaVuSans-Oblique-63" transform="translate(64.25293 -16.390625) scale(0.7)"/>
    </g>
   </g>
   <g id="patch_10">
    <path d="M 331.92 150.88 
L 331.8934 151.225268 
L 331.814035 151.564867 
L 331.68321 151.893221 
L 331.503073 152.204937 
L 331.27658 152.494898 
L 331.007452 152.758343 
L 330.700107 152.990945 
L 330.359592 153.188885 
L 329.991498 153.348914 
L 329.601869 153.468403 
L 329.197104 153.545391 
L 328.783847 153.578613 
L 328.368885 153.567524 
L 327.959032 153.512305 
L 327.561017 153.413865 
L 327.181376 153.273818 
L 326.826342 153.094465 
L 326.501745 152.878751 
L 326.212915 152.630217 
L 325.964595 152.352944 
L 325.760861 152.051486 
L 325.605059 151.730792 
L 325.499748 151.396128 
L 325.446657 151.05299 
L 325.446657 150.70701 
L 325.499748 150.363872 
L 325.605059 150.029208 
L 325.760861 149.708514 
L 325.964595 149.407056 
L 326.212915 149.129783 
L 326.501745 148.881249 
L 326.826342 148.665535 
L 327.181376 148.486182 
L 327.561017 148.346135 
L 327.959032 148.247695 
L 328.368885 148.192476 
L 328.783847 148.181387 
L 329.197104 148.214609 
L 329.601869 148.291597 
L 329.991498 148.411086 
L 330.359592 148.571115 
L 330.700107 148.769055 
L 331.007452 149.001657 
L 331.27658 149.265102 
L 331.503073 149.555063 
L 331.68321 149.866779 
L 331.814035 150.195133 
L 331.8934 150.534732 
" clip-path="url(#pe7cb164f08)" style="stroke: #000000; stroke-width: 2; stroke-linejoin: miter"/>
   </g>
   <g id="patch_11">
    <path d="M 40.68 153.58 
C 41.396048 153.58 42.082866 153.295511 42.589188 152.789188 
C 43.095511 152.282866 43.38 151.596048 43.38 150.88 
C 43.38 150.163952 43.095511 149.477134 42.589188 148.970812 
C 42.082866 148.464489 41.396048 148.18 40.68 148.18 
C 39.963952 148.18 39.277134 148.464489 38.770812 148.970812 
C 38.264489 149.477134 37.98 150.163952 37.98 150.88 
C 37.98 151.596048 38.264489 152.282866 38.770812 152.789188 
C 39.277134 153.295511 39.963952 153.58 40.68 153.58 
z
" clip-path="url(#pe7cb164f08)" style="stroke: #000000; stroke-width: 2; stroke-linejoin: miter"/>
   </g>
   <g id="text_3">
    <!-- $i_4=16A$ -->
    <g transform="translate(41.32 72.368437) scale(0.14 -0.14)">
     <defs>
      <path id="DejaVuSans-34" d="M 2419 4116 
L 825 1625 
L 2419 1625 
L 2419 4116 
z
M 2253 4666 
L 3047 4666 
L 3047 1625 
L 3713 1625 
L 3713 1100 
L 3047 1100 
L 3047 0 
L 2419 0 
L 2419 1100 
L 313 1100 
L 313 1709 
L 2253 4666 
z
" transform="scale(0.015625)"/>
      <path id="DejaVuSans-36" d="M 2113 2584 
Q 1688 2584 1439 2293 
Q 1191 2003 1191 1497 
Q 1191 994 1439 701 
Q 1688 409 2113 409 
Q 2538 409 2786 701 
Q 3034 994 3034 1497 
Q 3034 2003 2786 2293 
Q 2538 2584 2113 2584 
z
M 3366 4563 
L 3366 3988 
Q 3128 4100 2886 4159 
Q 2644 4219 2406 4219 
Q 1781 4219 1451 3797 
Q 1122 3375 1075 2522 
Q 1259 2794 1537 2939 
Q 1816 3084 2150 3084 
Q 2853 3084 3261 2657 
Q 3669 2231 3669 1497 
Q 3669 778 3244 343 
Q 2819 -91 2113 -91 
Q 1303 -91 875 529 
Q 447 1150 447 2328 
Q 447 3434 972 4092 
Q 1497 4750 2381 4750 
Q 2619 4750 2861 4703 
Q 3103 4656 3366 4563 
z
" transform="scale(0.015625)"/>
     </defs>
     <use xlink:href="#DejaVuSans-Oblique-69" transform="translate(0 0.015625)"/>
     <use xlink:href="#DejaVuSans-34" transform="translate(27.783203 -16.390625) scale(0.7)"/>
     <use xlink:href="#DejaVuSans-3d" transform="translate(94.536133 0.015625)"/>
     <use xlink:href="#DejaVuSans-31" transform="translate(197.807617 0.015625)"/>
     <use xlink:href="#DejaVuSans-36" transform="translate(261.430664 0.015625)"/>
     <use xlink:href="#DejaVuSans-Oblique-41" transform="translate(325.053711 0.015625)"/>
    </g>
   </g>
   <g id="text_4">
    <!-- $i_3=2A$ -->
    <g transform="translate(269.64 76.688437) scale(0.14 -0.14)">
     <defs>
      <path id="DejaVuSans-33" d="M 2597 2516 
Q 3050 2419 3304 2112 
Q 3559 1806 3559 1356 
Q 3559 666 3084 287 
Q 2609 -91 1734 -91 
Q 1441 -91 1130 -33 
Q 819 25 488 141 
L 488 750 
Q 750 597 1062 519 
Q 1375 441 1716 441 
Q 2309 441 2620 675 
Q 2931 909 2931 1356 
Q 2931 1769 2642 2001 
Q 2353 2234 1838 2234 
L 1294 2234 
L 1294 2753 
L 1863 2753 
Q 2328 2753 2575 2939 
Q 2822 3125 2822 3475 
Q 2822 3834 2567 4026 
Q 2313 4219 1838 4219 
Q 1578 4219 1281 4162 
Q 984 4106 628 3988 
L 628 4550 
Q 988 4650 1302 4700 
Q 1616 4750 1894 4750 
Q 2613 4750 3031 4423 
Q 3450 4097 3450 3541 
Q 3450 3153 3228 2886 
Q 3006 2619 2597 2516 
z
" transform="scale(0.015625)"/>
      <path id="DejaVuSans-32" d="M 1228 531 
L 3431 531 
L 3431 0 
L 469 0 
L 469 531 
Q 828 903 1448 1529 
Q 2069 2156 2228 2338 
Q 2531 2678 2651 2914 
Q 2772 3150 2772 3378 
Q 2772 3750 2511 3984 
Q 2250 4219 1831 4219 
Q 1534 4219 1204 4116 
Q 875 4013 500 3803 
L 500 4441 
Q 881 4594 1212 4672 
Q 1544 4750 1819 4750 
Q 2544 4750 2975 4387 
Q 3406 4025 3406 3419 
Q 3406 3131 3298 2873 
Q 3191 2616 2906 2266 
Q 2828 2175 2409 1742 
Q 1991 1309 1228 531 
z
" transform="scale(0.015625)"/>
     </defs>
     <use xlink:href="#DejaVuSans-Oblique-69" transform="translate(0 0.015625)"/>
     <use xlink:href="#DejaVuSans-33" transform="translate(27.783203 -16.390625) scale(0.7)"/>
     <use xlink:href="#DejaVuSans-3d" transform="translate(94.536133 0.015625)"/>
     <use xlink:href="#DejaVuSans-32" transform="translate(197.807617 0.015625)"/>
     <use xlink:href="#DejaVuSans-Oblique-41" transform="translate(261.430664 0.015625)"/>
    </g>
   </g>
   <g id="patch_12">
    <path d="M 331.92 42.88 
L 331.8934 43.225268 
L 331.814035 43.564867 
L 331.68321 43.893221 
L 331.503073 44.204937 
L 331.27658 44.494898 
L 331.007452 44.758343 
L 330.700107 44.990945 
L 330.359592 45.188885 
L 329.991498 45.348914 
L 329.601869 45.468403 
L 329.197104 45.545391 
L 328.783847 45.578613 
L 328.368885 45.567524 
L 327.959032 45.512305 
L 327.561017 45.413865 
L 327.181376 45.273818 
L 326.826342 45.094465 
L 326.501745 44.878751 
L 326.212915 44.630217 
L 325.964595 44.352944 
L 325.760861 44.051486 
L 325.605059 43.730792 
L 325.499748 43.396128 
L 325.446657 43.05299 
L 325.446657 42.70701 
L 325.499748 42.363872 
L 325.605059 42.029208 
L 325.760861 41.708514 
L 325.964595 41.407056 
L 326.212915 41.129783 
L 326.501745 40.881249 
L 326.826342 40.665535 
L 327.181376 40.486182 
L 327.561017 40.346135 
L 327.959032 40.247695 
L 328.368885 40.192476 
L 328.783847 40.181387 
L 329.197104 40.214609 
L 329.601869 40.291597 
L 329.991498 40.411086 
L 330.359592 40.571115 
L 330.700107 40.769055 
L 331.007452 41.001657 
L 331.27658 41.265102 
L 331.503073 41.555063 
L 331.68321 41.866779 
L 331.814035 42.195133 
L 331.8934 42.534732 
L 331.92 42.88 
" clip-path="url(#pe7cb164f08)" style="stroke: #000000; stroke-width: 2; stroke-linejoin: miter"/>
   </g>
   <g id="text_5">
    <!-- $i_2=4A$ -->
    <g transform="translate(235.2 12.968437) scale(0.14 -0.14)">
     <use xlink:href="#DejaVuSans-Oblique-69" transform="translate(0 0.015625)"/>
     <use xlink:href="#DejaVuSans-32" transform="translate(27.783203 -16.390625) scale(0.7)"/>
     <use xlink:href="#DejaVuSans-3d" transform="translate(94.536133 0.015625)"/>
     <use xlink:href="#DejaVuSans-34" transform="translate(197.807617 0.015625)"/>
     <use xlink:href="#DejaVuSans-Oblique-41" transform="translate(261.430664 0.015625)"/>
    </g>
   </g>
   <g id="patch_13">
    <path d="M 184.68 45.58 
C 185.396048 45.58 186.082866 45.295511 186.589188 44.789188 
C 187.095511 44.282866 187.38 43.596048 187.38 42.88 
C 187.38 42.163952 187.095511 41.477134 186.589188 40.970812 
C 186.082866 40.464489 185.396048 40.18 184.68 40.18 
C 183.963952 40.18 183.277134 40.464489 182.770812 40.970812 
C 182.264489 41.477134 181.98 42.163952 181.98 42.88 
C 181.98 43.596048 182.264489 44.282866 182.770812 44.789188 
C 183.277134 45.295511 183.963952 45.58 184.68 45.58 
z
" clip-path="url(#pe7cb164f08)" style="stroke: #000000; stroke-width: 2; stroke-linejoin: miter"/>
   </g>
   <g id="text_6">
    <!-- A -->
    <g transform="translate(179.891563 33.668437) scale(0.14 -0.14)">
     <defs>
      <path id="DejaVuSans-41" d="M 2188 4044 
L 1331 1722 
L 3047 1722 
L 2188 4044 
z
M 1831 4666 
L 2547 4666 
L 4325 0 
L 3669 0 
L 3244 1197 
L 1141 1197 
L 716 0 
L 50 0 
L 1831 4666 
z
" transform="scale(0.015625)"/>
     </defs>
     <use xlink:href="#DejaVuSans-41"/>
    </g>
   </g>
   <g id="patch_14">
    <path d="M 184.68 153.58 
C 185.396048 153.58 186.082866 153.295511 186.589188 152.789188 
C 187.095511 152.282866 187.38 151.596048 187.38 150.88 
C 187.38 150.163952 187.095511 149.477134 186.589188 148.970812 
C 186.082866 148.464489 185.396048 148.18 184.68 148.18 
C 183.963952 148.18 183.277134 148.464489 182.770812 148.970812 
C 182.264489 149.477134 181.98 150.163952 181.98 150.88 
C 181.98 151.596048 182.264489 152.282866 182.770812 152.789188 
C 183.277134 153.295511 183.963952 153.58 184.68 153.58 
z
" clip-path="url(#pe7cb164f08)" style="stroke: #000000; stroke-width: 2; stroke-linejoin: miter"/>
   </g>
   <g id="text_7">
    <!-- B -->
    <g transform="translate(179.877344 167.817812) scale(0.14 -0.14)">
     <defs>
      <path id="DejaVuSans-42" d="M 1259 2228 
L 1259 519 
L 2272 519 
Q 2781 519 3026 730 
Q 3272 941 3272 1375 
Q 3272 1813 3026 2020 
Q 2781 2228 2272 2228 
L 1259 2228 
z
M 1259 4147 
L 1259 2741 
L 2194 2741 
Q 2656 2741 2882 2914 
Q 3109 3088 3109 3444 
Q 3109 3797 2882 3972 
Q 2656 4147 2194 4147 
L 1259 4147 
z
M 628 4666 
L 2241 4666 
Q 2963 4666 3353 4366 
Q 3744 4066 3744 3513 
Q 3744 3084 3544 2831 
Q 3344 2578 2956 2516 
Q 3422 2416 3680 2098 
Q 3938 1781 3938 1306 
Q 3938 681 3513 340 
Q 3088 0 2303 0 
L 628 0 
L 628 4666 
z
" transform="scale(0.015625)"/>
     </defs>
     <use xlink:href="#DejaVuSans-42"/>
    </g>
   </g>
  </g>
 </g>
 <defs>
  <clipPath id="pe7cb164f08">
   <rect x="0" y="-0" width="369.36" height="173.56"/>
  </clipPath>
 </defs>
</svg>