<?xml version="1.0" encoding="utf-8" standalone="no"?>
<!DOCTYPE svg PUBLIC "-//W3C//DTD SVG 1.1//EN"
  "http://www.w3.org/Graphics/SVG/1.1/DTD/svg11.dtd">
<svg xmlns:xlink="http://www.w3.org/1999/xlink" width="398.328pt" height="164.2pt" viewBox="0 0 398.328 164.2" xmlns="http://www.w3.org/2000/svg" version="1.1">
 <metadata>
  <rdf:RDF xmlns:dc="http://purl.org/dc/elements/1.1/" xmlns:cc="http://creativecommons.org/ns#" xmlns:rdf="http://www.w3.org/1999/02/22-rdf-syntax-ns#">
   <cc:Work>
    <dc:type rdf:resource="http://purl.org/dc/dcmitype/StillImage"/>
    <dc:date>2024-10-24T14:43:22.032706</dc:date>
    <dc:format>image/svg+xml</dc:format>
    <dc:creator>
     <cc:Agent>
      <dc:title>Matplotlib v3.9.2, https://matplotlib.org/</dc:title>
     </cc:Agent>
    </dc:creator>
   </cc:Work>
  </rdf:RDF>
 </metadata>
 <defs>
  <style type="text/css">*{stroke-linejoin: round; stroke-linecap: butt}</style>
 </defs>
 <g id="figure_1">
  <g id="patch_1">
   <path d="M 0 164.2 
L 398.328 164.2 
L 398.328 0 
L 0 0 
z
" style="fill: #ffffff"/>
  </g>
  <g id="axes_1">
   <g id="patch_2">
    <path d="M 51.648 100.48 
C 56.421656 100.48 61.000438 98.583406 64.375922 95.207922 
C 67.751406 91.832438 69.648 87.253656 69.648 82.48 
C 69.648 77.706344 67.751406 73.127562 64.375922 69.752078 
C 61.000438 66.376594 56.421656 64.48 51.648 64.48 
C 46.874344 64.48 42.295562 66.376594 38.920078 69.752078 
C 35.544594 73.127562 33.648 77.706344 33.648 82.48 
C 33.648 87.253656 35.544594 91.832438 38.920078 95.207922 
C 42.295562 98.583406 46.874344 100.48 51.648 100.48 
L 51.648 100.48 
z
" clip-path="url(#p44bcf9fca7)" style="fill: none; stroke: #000000; stroke-width: 2; stroke-linejoin: miter"/>
   </g>
   <g id="patch_3">
    <path d="M 375.648 100.48 
C 380.421656 100.48 385.000438 98.583406 388.375922 95.207922 
C 391.751406 91.832438 393.648 87.253656 393.648 82.48 
C 393.648 77.706344 391.751406 73.127562 388.375922 69.752078 
C 385.000438 66.376594 380.421656 64.48 375.648 64.48 
C 370.874344 64.48 366.295562 66.376594 362.920078 69.752078 
C 359.544594 73.127562 357.648 77.706344 357.648 82.48 
C 357.648 87.253656 359.544594 91.832438 362.920078 95.207922 
C 366.295562 98.583406 370.874344 100.48 375.648 100.48 
L 375.648 100.48 
z
" clip-path="url(#p44bcf9fca7)" style="fill: none; stroke: #000000; stroke-width: 2; stroke-linejoin: miter"/>
   </g>
   <g id="line2d_1">
    <path d="M 51.648 136.48 
L 51.648 100.48 
L 51.648 100.48 
M 51.648 64.48 
L 51.648 64.48 
L 51.648 28.48 
" clip-path="url(#p44bcf9fca7)" style="fill: none; stroke: #000000; stroke-width: 2; stroke-linecap: round"/>
   </g>
   <g id="line2d_2">
    <path d="M 55.248 91.48 
L 48.048 91.48 
" clip-path="url(#p44bcf9fca7)" style="fill: none; stroke: #000000; stroke-width: 2; stroke-linecap: round"/>
   </g>
   <g id="line2d_3">
    <path d="M 51.648 77.08 
L 51.648 69.88 
" clip-path="url(#p44bcf9fca7)" style="fill: none; stroke: #000000; stroke-width: 2; stroke-linecap: round"/>
   </g>
   <g id="line2d_4">
    <path d="M 55.248 73.48 
L 48.048 73.48 
" clip-path="url(#p44bcf9fca7)" style="fill: none; stroke: #000000; stroke-width: 2; stroke-linecap: round"/>
   </g>
   <g id="line2d_5">
    <path d="M 51.648 28.48 
L 87.648 28.48 
L 90.648 19.48 
L 96.648 37.48 
L 102.648 19.48 
L 108.648 37.48 
L 114.648 19.48 
L 120.648 37.48 
L 123.648 28.48 
L 159.648 28.48 
" clip-path="url(#p44bcf9fca7)" style="fill: none; stroke: #000000; stroke-width: 2; stroke-linecap: round"/>
   </g>
   <g id="line2d_6">
    <path d="M 159.648 28.48 
L 195.648 28.48 
L 198.648 19.48 
L 204.648 37.48 
L 210.648 19.48 
L 216.648 37.48 
L 222.648 19.48 
L 228.648 37.48 
L 231.648 28.48 
L 267.648 28.48 
" clip-path="url(#p44bcf9fca7)" style="fill: none; stroke: #000000; stroke-width: 2; stroke-linecap: round"/>
   </g>
   <g id="line2d_7">
    <path d="M 267.648 28.48 
L 321.648 28.48 
L 375.648 28.48 
" clip-path="url(#p44bcf9fca7)" style="fill: none; stroke: #000000; stroke-width: 2; stroke-linecap: round"/>
   </g>
   <g id="line2d_8">
    <path d="M 51.648 136.48 
L 105.648 136.48 
L 159.648 136.48 
" clip-path="url(#p44bcf9fca7)" style="fill: none; stroke: #000000; stroke-width: 2; stroke-linecap: round"/>
   </g>
   <g id="line2d_9">
    <path d="M 159.648 136.48 
L 213.648 136.48 
L 267.648 136.48 
" clip-path="url(#p44bcf9fca7)" style="fill: none; stroke: #000000; stroke-width: 2; stroke-linecap: round"/>
   </g>
   <g id="line2d_10">
    <path d="M 267.648 136.48 
L 267.648 150.88 
L 258.648 150.88 
L 276.648 150.88 
M 261.348 155.2 
L 273.948 155.2 
M 265.848 159.52 
L 269.448 159.52 
" clip-path="url(#p44bcf9fca7)" style="fill: none; stroke: #000000; stroke-width: 2; stroke-linecap: round"/>
   </g>
   <g id="line2d_11">
    <path d="M 267.648 136.48 
L 321.648 136.48 
L 375.648 136.48 
" clip-path="url(#p44bcf9fca7)" style="fill: none; stroke: #000000; stroke-width: 2; stroke-linecap: round"/>
   </g>
   <g id="line2d_12">
    <path d="M 375.648 136.48 
L 375.648 100.48 
L 375.648 100.48 
M 375.648 64.48 
L 375.648 64.48 
L 375.648 28.48 
" clip-path="url(#p44bcf9fca7)" style="fill: none; stroke: #000000; stroke-width: 2; stroke-linecap: round"/>
   </g>
   <g id="line2d_13">
    <path d="M 375.648 91.48 
L 375.648 82.48 
" clip-path="url(#p44bcf9fca7)" style="fill: none; stroke: #000000; stroke-width: 2; stroke-linecap: round"/>
   </g>
   <g id="patch_4">
    <path d="M 372.948 82.48 
L 375.648 73.48 
L 378.348 82.48 
z
" clip-path="url(#p44bcf9fca7)"/>
   </g>
   <g id="line2d_14">
    <path d="M 159.648 28.48 
L 159.648 64.48 
L 168.648 67.48 
L 150.648 73.48 
L 168.648 79.48 
L 150.648 85.48 
L 168.648 91.48 
L 150.648 97.48 
L 159.648 100.48 
L 159.648 136.48 
" clip-path="url(#p44bcf9fca7)" style="fill: none; stroke: #000000; stroke-width: 2; stroke-linecap: round"/>
   </g>
   <g id="line2d_15">
    <path d="M 267.648 28.48 
L 267.648 64.48 
L 276.648 67.48 
L 258.648 73.48 
L 276.648 79.48 
L 258.648 85.48 
L 276.648 91.48 
L 258.648 97.48 
L 267.648 100.48 
L 267.648 136.48 
" clip-path="url(#p44bcf9fca7)" style="fill: none; stroke: #000000; stroke-width: 2; stroke-linecap: round"/>
   </g>
   <g id="text_1">
    <!-- 12V -->
    <g transform="translate(2.656125 86.343125) scale(0.14 -0.14)">
     <defs>
      <path id="DejaVuSans-31" d="M 794 531 
L 1825 531 
L 1825 4091 
L 703 3866 
L 703 4441 
L 1819 4666 
L 2450 4666 
L 2450 531 
L 3481 531 
L 3481 0 
L 794 0 
L 794 531 
z
" transform="scale(0.015625)"/>
      <path id="DejaVuSans-32" d="M 1228 531 
L 3431 531 
L 3431 0 
L 469 0 
L 469 531 
Q 828 903 1448 1529 
Q 2069 2156 2228 2338 
Q 2531 2678 2651 2914 
Q 2772 3150 2772 3378 
Q 2772 3750 2511 3984 
Q 2250 4219 1831 4219 
Q 1534 4219 1204 4116 
Q 875 4013 500 3803 
L 500 4441 
Q 881 4594 1212 4672 
Q 1544 4750 1819 4750 
Q 2544 4750 2975 4387 
Q 3406 4025 3406 3419 
Q 3406 3131 3298 2873 
Q 3191 2616 2906 2266 
Q 2828 2175 2409 1742 
Q 1991 1309 1228 531 
z
" transform="scale(0.015625)"/>
      <path id="DejaVuSans-56" d="M 1831 0 
L 50 4666 
L 709 4666 
L 2188 738 
L 3669 4666 
L 4325 4666 
L 2547 0 
L 1831 0 
z
" transform="scale(0.015625)"/>
     </defs>
     <use xlink:href="#DejaVuSans-31"/>
     <use xlink:href="#DejaVuSans-32" x="63.623047"/>
     <use xlink:href="#DejaVuSans-56" x="127.246094"/>
    </g>
   </g>
   <g id="text_2">
    <!-- R1=2立 -->
    <g transform="translate(80.661281 12.968437) scale(0.14 -0.14)">
     <defs>
      <path id="DejaVuSans-52" d="M 2841 2188 
Q 3044 2119 3236 1894 
Q 3428 1669 3622 1275 
L 4263 0 
L 3584 0 
L 2988 1197 
Q 2756 1666 2539 1819 
Q 2322 1972 1947 1972 
L 1259 1972 
L 1259 0 
L 628 0 
L 628 4666 
L 2053 4666 
Q 2853 4666 3247 4331 
Q 3641 3997 3641 3322 
Q 3641 2881 3436 2590 
Q 3231 2300 2841 2188 
z
M 1259 4147 
L 1259 2491 
L 2053 2491 
Q 2509 2491 2742 2702 
Q 2975 2913 2975 3322 
Q 2975 3731 2742 3939 
Q 2509 4147 2053 4147 
L 1259 4147 
z
" transform="scale(0.015625)"/>
      <path id="DejaVuSans-3d" d="M 678 2906 
L 4684 2906 
L 4684 2381 
L 678 2381 
L 678 2906 
z
M 678 1631 
L 4684 1631 
L 4684 1100 
L 678 1100 
L 678 1631 
z
" transform="scale(0.015625)"/>
      <path id="DejaVuSans-3a9" d="M 4647 556 
L 4647 0 
L 2772 0 
L 2772 556 
Q 3325 859 3634 1378 
Q 3944 1897 3944 2528 
Q 3944 3278 3531 3731 
Q 3119 4184 2444 4184 
Q 1769 4184 1355 3729 
Q 941 3275 941 2528 
Q 941 1897 1250 1378 
Q 1563 859 2119 556 
L 2119 0 
L 244 0 
L 244 556 
L 1241 556 
Q 747 991 519 1456 
Q 294 1922 294 2497 
Q 294 3491 894 4106 
Q 1491 4722 2444 4722 
Q 3391 4722 3994 4106 
Q 4594 3494 4594 2528 
Q 4594 1922 4372 1459 
Q 4150 997 3647 556 
L 4647 556 
z
" transform="scale(0.015625)"/>
     </defs>
     <use xlink:href="#DejaVuSans-52"/>
     <use xlink:href="#DejaVuSans-31" x="69.482422"/>
     <use xlink:href="#DejaVuSans-3d" x="133.105469"/>
     <use xlink:href="#DejaVuSans-32" x="216.894531"/>
     <use xlink:href="#DejaVuSans-3a9" x="280.517578"/>
    </g>
   </g>
   <g id="text_3">
    <!-- R3=5立 -->
    <g transform="translate(188.661281 12.968437) scale(0.14 -0.14)">
     <defs>
      <path id="DejaVuSans-33" d="M 2597 2516 
Q 3050 2419 3304 2112 
Q 3559 1806 3559 1356 
Q 3559 666 3084 287 
Q 2609 -91 1734 -91 
Q 1441 -91 1130 -33 
Q 819 25 488 141 
L 488 750 
Q 750 597 1062 519 
Q 1375 441 1716 441 
Q 2309 441 2620 675 
Q 2931 909 2931 1356 
Q 2931 1769 2642 2001 
Q 2353 2234 1838 2234 
L 1294 2234 
L 1294 2753 
L 1863 2753 
Q 2328 2753 2575 2939 
Q 2822 3125 2822 3475 
Q 2822 3834 2567 4026 
Q 2313 4219 1838 4219 
Q 1578 4219 1281 4162 
Q 984 4106 628 3988 
L 628 4550 
Q 988 4650 1302 4700 
Q 1616 4750 1894 4750 
Q 2613 4750 3031 4423 
Q 3450 4097 3450 3541 
Q 3450 3153 3228 2886 
Q 3006 2619 2597 2516 
z
" transform="scale(0.015625)"/>
      <path id="DejaVuSans-35" d="M 691 4666 
L 3169 4666 
L 3169 4134 
L 1269 4134 
L 1269 2991 
Q 1406 3038 1543 3061 
Q 1681 3084 1819 3084 
Q 2600 3084 3056 2656 
Q 3513 2228 3513 1497 
Q 3513 744 3044 326 
Q 2575 -91 1722 -91 
Q 1428 -91 1123 -41 
Q 819 9 494 109 
L 494 744 
Q 775 591 1075 516 
Q 1375 441 1709 441 
Q 2250 441 2565 725 
Q 2881 1009 2881 1497 
Q 2881 1984 2565 2268 
Q 2250 2553 1709 2553 
Q 1456 2553 1204 2497 
Q 953 2441 691 2322 
L 691 4666 
z
" transform="scale(0.015625)"/>
     </defs>
     <use xlink:href="#DejaVuSans-52"/>
     <use xlink:href="#DejaVuSans-33" x="69.482422"/>
     <use xlink:href="#DejaVuSans-3d" x="133.105469"/>
     <use xlink:href="#DejaVuSans-35" x="216.894531"/>
     <use xlink:href="#DejaVuSans-3a9" x="280.517578"/>
    </g>
   </g>
   <g id="text_4">
    <!-- 5A -->
    <g transform="translate(335.563625 86.343125) scale(0.14 -0.14)">
     <defs>
      <path id="DejaVuSans-41" d="M 2188 4044 
L 1331 1722 
L 3047 1722 
L 2188 4044 
z
M 1831 4666 
L 2547 4666 
L 4325 0 
L 3669 0 
L 3244 1197 
L 1141 1197 
L 716 0 
L 50 0 
L 1831 4666 
z
" transform="scale(0.015625)"/>
     </defs>
     <use xlink:href="#DejaVuSans-35"/>
     <use xlink:href="#DejaVuSans-41" x="63.623047"/>
    </g>
   </g>
   <g id="text_5">
    <!-- R2=3立 -->
    <g transform="translate(97.074562 86.343125) scale(0.14 -0.14)">
     <use xlink:href="#DejaVuSans-52"/>
     <use xlink:href="#DejaVuSans-32" x="69.482422"/>
     <use xlink:href="#DejaVuSans-3d" x="133.105469"/>
     <use xlink:href="#DejaVuSans-33" x="216.894531"/>
     <use xlink:href="#DejaVuSans-3a9" x="280.517578"/>
    </g>
   </g>
   <g id="text_6">
    <!-- R4=4立 -->
    <g transform="translate(205.074563 86.343125) scale(0.14 -0.14)">
     <defs>
      <path id="DejaVuSans-34" d="M 2419 4116 
L 825 1625 
L 2419 1625 
L 2419 4116 
z
M 2253 4666 
L 3047 4666 
L 3047 1625 
L 3713 1625 
L 3713 1100 
L 3047 1100 
L 3047 0 
L 2419 0 
L 2419 1100 
L 313 1100 
L 313 1709 
L 2253 4666 
z
" transform="scale(0.015625)"/>
     </defs>
     <use xlink:href="#DejaVuSans-52"/>
     <use xlink:href="#DejaVuSans-34" x="69.482422"/>
     <use xlink:href="#DejaVuSans-3d" x="133.105469"/>
     <use xlink:href="#DejaVuSans-34" x="216.894531"/>
     <use xlink:href="#DejaVuSans-3a9" x="280.517578"/>
    </g>
   </g>
   <g id="patch_5">
    <path d="M 51.648 31.18 
C 52.364048 31.18 53.050866 30.895511 53.557188 30.389188 
C 54.063511 29.882866 54.348 29.196048 54.348 28.48 
C 54.348 27.763952 54.063511 27.077134 53.557188 26.570812 
C 53.050866 26.064489 52.364048 25.78 51.648 25.78 
C 50.931952 25.78 50.245134 26.064489 49.738812 26.570812 
C 49.232489 27.077134 48.948 27.763952 48.948 28.48 
C 48.948 29.196048 49.232489 29.882866 49.738812 30.389188 
C 50.245134 30.895511 50.931952 31.18 51.648 31.18 
z
" clip-path="url(#p44bcf9fca7)" style="stroke: #000000; stroke-width: 2; stroke-linejoin: miter"/>
   </g>
   <g id="text_7">
    <!-- A -->
    <g transform="translate(46.859562 19.268438) scale(0.14 -0.14)">
     <use xlink:href="#DejaVuSans-41"/>
    </g>
   </g>
   <g id="patch_6">
    <path d="M 159.648 31.18 
C 160.364048 31.18 161.050866 30.895511 161.557188 30.389188 
C 162.063511 29.882866 162.348 29.196048 162.348 28.48 
C 162.348 27.763952 162.063511 27.077134 161.557188 26.570812 
C 161.050866 26.064489 160.364048 25.78 159.648 25.78 
C 158.931952 25.78 158.245134 26.064489 157.738812 26.570812 
C 157.232489 27.077134 156.948 27.763952 156.948 28.48 
C 156.948 29.196048 157.232489 29.882866 157.738812 30.389188 
C 158.245134 30.895511 158.931952 31.18 159.648 31.18 
z
" clip-path="url(#p44bcf9fca7)" style="stroke: #000000; stroke-width: 2; stroke-linejoin: miter"/>
   </g>
   <g id="text_8">
    <!-- B -->
    <g transform="translate(154.845344 19.268438) scale(0.14 -0.14)">
     <defs>
      <path id="DejaVuSans-42" d="M 1259 2228 
L 1259 519 
L 2272 519 
Q 2781 519 3026 730 
Q 3272 941 3272 1375 
Q 3272 1813 3026 2020 
Q 2781 2228 2272 2228 
L 1259 2228 
z
M 1259 4147 
L 1259 2741 
L 2194 2741 
Q 2656 2741 2882 2914 
Q 3109 3088 3109 3444 
Q 3109 3797 2882 3972 
Q 2656 4147 2194 4147 
L 1259 4147 
z
M 628 4666 
L 2241 4666 
Q 2963 4666 3353 4366 
Q 3744 4066 3744 3513 
Q 3744 3084 3544 2831 
Q 3344 2578 2956 2516 
Q 3422 2416 3680 2098 
Q 3938 1781 3938 1306 
Q 3938 681 3513 340 
Q 3088 0 2303 0 
L 628 0 
L 628 4666 
z
" transform="scale(0.015625)"/>
     </defs>
     <use xlink:href="#DejaVuSans-42"/>
    </g>
   </g>
   <g id="patch_7">
    <path d="M 267.648 31.18 
C 268.364048 31.18 269.050866 30.895511 269.557188 30.389188 
C 270.063511 29.882866 270.348 29.196048 270.348 28.48 
C 270.348 27.763952 270.063511 27.077134 269.557188 26.570812 
C 269.050866 26.064489 268.364048 25.78 267.648 25.78 
C 266.931952 25.78 266.245134 26.064489 265.738812 26.570812 
C 265.232489 27.077134 264.948 27.763952 264.948 28.48 
C 264.948 29.196048 265.232489 29.882866 265.738812 30.389188 
C 266.245134 30.895511 266.931952 31.18 267.648 31.18 
z
" clip-path="url(#p44bcf9fca7)" style="stroke: #000000; stroke-width: 2; stroke-linejoin: miter"/>
   </g>
   <g id="text_9">
    <!-- C -->
    <g transform="translate(262.760031 19.268438) scale(0.14 -0.14)">
     <defs>
      <path id="DejaVuSans-43" d="M 4122 4306 
L 4122 3641 
Q 3803 3938 3442 4084 
Q 3081 4231 2675 4231 
Q 1875 4231 1450 3742 
Q 1025 3253 1025 2328 
Q 1025 1406 1450 917 
Q 1875 428 2675 428 
Q 3081 428 3442 575 
Q 3803 722 4122 1019 
L 4122 359 
Q 3791 134 3420 21 
Q 3050 -91 2638 -91 
Q 1578 -91 968 557 
Q 359 1206 359 2328 
Q 359 3453 968 4101 
Q 1578 4750 2638 4750 
Q 3056 4750 3426 4639 
Q 3797 4528 4122 4306 
z
" transform="scale(0.015625)"/>
     </defs>
     <use xlink:href="#DejaVuSans-43"/>
    </g>
   </g>
  </g>
 </g>
 <defs>
  <clipPath id="p44bcf9fca7">
   <rect x="0" y="-0" width="398.328" height="164.2"/>
  </clipPath>
 </defs>
</svg>