<?xml version="1.0" encoding="utf-8" standalone="no"?>
<!DOCTYPE svg PUBLIC "-//W3C//DTD SVG 1.1//EN"
  "http://www.w3.org/Graphics/SVG/1.1/DTD/svg11.dtd">
<svg xmlns:xlink="http://www.w3.org/1999/xlink" width="333.36pt" height="247.86pt" viewBox="0 0 333.36 247.86" xmlns="http://www.w3.org/2000/svg" version="1.1">
 <metadata>
  <rdf:RDF xmlns:dc="http://purl.org/dc/elements/1.1/" xmlns:cc="http://creativecommons.org/ns#" xmlns:rdf="http://www.w3.org/1999/02/22-rdf-syntax-ns#">
   <cc:Work>
    <dc:type rdf:resource="http://purl.org/dc/dcmitype/StillImage"/>
    <dc:date>2024-10-23T13:48:35.303534</dc:date>
    <dc:format>image/svg+xml</dc:format>
    <dc:creator>
     <cc:Agent>
      <dc:title>Matplotlib v3.9.2, https://matplotlib.org/</dc:title>
     </cc:Agent>
    </dc:creator>
   </cc:Work>
  </rdf:RDF>
 </metadata>
 <defs>
  <style type="text/css">*{stroke-linejoin: round; stroke-linecap: butt}</style>
 </defs>
 <g id="figure_1">
  <g id="patch_1">
   <path d="M 0 247.86 
L 333.36 247.86 
L 333.36 0 
L 0 0 
z
" style="fill: #ffffff"/>
  </g>
  <g id="axes_1">
   <g id="line2d_1">
    <path d="M 4.68 18.18 
L 48.555 18.18 
M 68.805 18.18 
L 112.68 18.18 
" clip-path="url(#pe082104230)" style="fill: none; stroke: #000000; stroke-width: 2; stroke-linecap: round"/>
   </g>
   <g id="line2d_2">
    <path d="M 48.555 4.68 
L 48.555 31.68 
" clip-path="url(#pe082104230)" style="fill: none; stroke: #000000; stroke-width: 2; stroke-linecap: round"/>
   </g>
   <g id="line2d_3">
    <path d="M 55.305 11.43 
L 55.305 24.93 
" clip-path="url(#pe082104230)" style="fill: none; stroke: #000000; stroke-width: 2; stroke-linecap: round"/>
   </g>
   <g id="line2d_4">
    <path d="M 62.055 4.68 
L 62.055 31.68 
" clip-path="url(#pe082104230)" style="fill: none; stroke: #000000; stroke-width: 2; stroke-linecap: round"/>
   </g>
   <g id="line2d_5">
    <path d="M 68.805 11.43 
L 68.805 24.93 
" clip-path="url(#pe082104230)" style="fill: none; stroke: #000000; stroke-width: 2; stroke-linecap: round"/>
   </g>
   <g id="line2d_6">
    <path d="M 112.68 18.18 
L 112.68 72.18 
L 112.68 126.18 
" clip-path="url(#pe082104230)" style="fill: none; stroke: #000000; stroke-width: 2; stroke-linecap: round"/>
   </g>
   <g id="line2d_7">
    <path d="M 112.68 126.18 
L 112.68 162.18 
L 121.68 165.18 
L 103.68 171.18 
L 121.68 177.18 
L 103.68 183.18 
L 121.68 189.18 
L 103.68 195.18 
L 112.68 198.18 
L 112.68 234.18 
" clip-path="url(#pe082104230)" style="fill: none; stroke: #000000; stroke-width: 2; stroke-linecap: round"/>
   </g>
   <g id="line2d_8">
    <path d="M 112.68 234.18 
L 166.68 234.18 
L 220.68 234.18 
" clip-path="url(#pe082104230)" style="fill: none; stroke: #000000; stroke-width: 2; stroke-linecap: round"/>
   </g>
   <g id="line2d_9">
    <path d="M 220.68 234.18 
L 271.44 234.18 
M 271.44 225.18 
L 271.44 243.18 
M 277.92 225.18 
L 277.92 243.18 
M 277.92 234.18 
L 328.68 234.18 
" clip-path="url(#pe082104230)" style="fill: none; stroke: #000000; stroke-width: 2; stroke-linecap: round"/>
   </g>
  </g>
 </g>
 <defs>
  <clipPath id="pe082104230">
   <rect x="0" y="-0" width="333.36" height="247.86"/>
  </clipPath>
 </defs>
</svg>