<?xml version="1.0" encoding="utf-8" standalone="no"?>
<!DOCTYPE svg PUBLIC "-//W3C//DTD SVG 1.1//EN"
  "http://www.w3.org/Graphics/SVG/1.1/DTD/svg11.dtd">
<svg xmlns:xlink="http://www.w3.org/1999/xlink" width="135.36pt" height="234.36pt" viewBox="0 0 135.36 234.36" xmlns="http://www.w3.org/2000/svg" version="1.1">
 <metadata>
  <rdf:RDF xmlns:dc="http://purl.org/dc/elements/1.1/" xmlns:cc="http://creativecommons.org/ns#" xmlns:rdf="http://www.w3.org/1999/02/22-rdf-syntax-ns#">
   <cc:Work>
    <dc:type rdf:resource="http://purl.org/dc/dcmitype/StillImage"/>
    <dc:date>2024-10-23T13:48:35.532319</dc:date>
    <dc:format>image/svg+xml</dc:format>
    <dc:creator>
     <cc:Agent>
      <dc:title>Matplotlib v3.9.2, https://matplotlib.org/</dc:title>
     </cc:Agent>
    </dc:creator>
   </cc:Work>
  </rdf:RDF>
 </metadata>
 <defs>
  <style type="text/css">*{stroke-linejoin: round; stroke-linecap: butt}</style>
 </defs>
 <g id="figure_1">
  <g id="patch_1">
   <path d="M 0 234.36 
L 135.36 234.36 
L 135.36 0 
L 0 0 
z
" style="fill: #ffffff"/>
  </g>
  <g id="axes_1">
   <g id="patch_2">
    <path d="M 130.68 115.38 
L 121.68 127.98 
L 112.68 115.38 
L 130.68 115.38 
z
" clip-path="url(#pd96c1f4851)" style="fill: none; stroke: #000000; stroke-width: 2; stroke-linecap: round"/>
   </g>
   <g id="patch_3">
    <path d="M 67.68 139.68 
C 72.453656 139.68 77.032438 137.783406 80.407922 134.407922 
C 83.783406 131.032438 85.68 126.453656 85.68 121.68 
C 85.68 116.906344 83.783406 112.327562 80.407922 108.952078 
C 77.032438 105.576594 72.453656 103.68 67.68 103.68 
C 62.906344 103.68 58.327562 105.576594 54.952078 108.952078 
C 51.576594 112.327562 49.68 116.906344 49.68 121.68 
C 49.68 126.453656 51.576594 131.032438 54.952078 134.407922 
C 58.327562 137.783406 62.906344 139.68 67.68 139.68 
L 67.68 139.68 
z
" clip-path="url(#pd96c1f4851)" style="fill: none; stroke: #000000; stroke-width: 2; stroke-linejoin: miter"/>
   </g>
   <g id="line2d_1">
    <path d="M 13.68 13.68 
L 49.68 13.68 
L 52.68 4.68 
L 58.68 22.68 
L 64.68 4.68 
L 70.68 22.68 
L 76.68 4.68 
L 82.68 22.68 
L 85.68 13.68 
L 121.68 13.68 
" clip-path="url(#pd96c1f4851)" style="fill: none; stroke: #000000; stroke-width: 2; stroke-linecap: round"/>
   </g>
   <g id="line2d_2">
    <path d="M 121.68 13.68 
L 121.68 115.38 
M 130.68 127.98 
L 112.68 127.98 
M 121.68 127.98 
L 121.68 229.68 
" clip-path="url(#pd96c1f4851)" style="fill: none; stroke: #000000; stroke-width: 2; stroke-linecap: round"/>
   </g>
   <g id="line2d_3">
    <path d="M 121.68 229.68 
L 67.68 229.68 
L 13.68 229.68 
" clip-path="url(#pd96c1f4851)" style="fill: none; stroke: #000000; stroke-width: 2; stroke-linecap: round"/>
   </g>
   <g id="line2d_4">
    <path d="M 13.68 229.68 
L 13.68 124.92 
M 4.68 124.92 
L 22.68 124.92 
M 4.68 118.44 
L 22.68 118.44 
M 13.68 118.44 
L 13.68 13.68 
" clip-path="url(#pd96c1f4851)" style="fill: none; stroke: #000000; stroke-width: 2; stroke-linecap: round"/>
   </g>
   <g id="line2d_5">
    <path d="M 121.68 229.68 
L 75.729845 137.779689 
L 75.729845 137.779689 
M 59.630155 105.580311 
L 59.630155 105.580311 
L 13.68 13.68 
" clip-path="url(#pd96c1f4851)" style="fill: none; stroke: #000000; stroke-width: 2; stroke-linecap: round"/>
   </g>
   <g id="line2d_6">
    <path d="M 74.92486 128.119876 
L 68.484984 131.339814 
" clip-path="url(#pd96c1f4851)" style="fill: none; stroke: #000000; stroke-width: 2; stroke-linecap: round"/>
   </g>
   <g id="line2d_7">
    <path d="M 65.265047 116.850093 
L 62.045109 110.410217 
" clip-path="url(#pd96c1f4851)" style="fill: none; stroke: #000000; stroke-width: 2; stroke-linecap: round"/>
   </g>
   <g id="line2d_8">
    <path d="M 66.875016 112.020186 
L 60.43514 115.240124 
" clip-path="url(#pd96c1f4851)" style="fill: none; stroke: #000000; stroke-width: 2; stroke-linecap: round"/>
   </g>
  </g>
 </g>
 <defs>
  <clipPath id="pd96c1f4851">
   <rect x="0" y="-0" width="135.36" height="234.36"/>
  </clipPath>
 </defs>
</svg>