<?xml version="1.0" encoding="utf-8" standalone="no"?>
<!DOCTYPE svg PUBLIC "-//W3C//DTD SVG 1.1//EN"
  "http://www.w3.org/Graphics/SVG/1.1/DTD/svg11.dtd">
<svg xmlns:xlink="http://www.w3.org/1999/xlink" width="333.36pt" height="27.36pt" viewBox="0 0 333.36 27.36" xmlns="http://www.w3.org/2000/svg" version="1.1">
 <metadata>
  <rdf:RDF xmlns:dc="http://purl.org/dc/elements/1.1/" xmlns:cc="http://creativecommons.org/ns#" xmlns:rdf="http://www.w3.org/1999/02/22-rdf-syntax-ns#">
   <cc:Work>
    <dc:type rdf:resource="http://purl.org/dc/dcmitype/StillImage"/>
    <dc:date>2024-10-23T13:48:35.140634</dc:date>
    <dc:format>image/svg+xml</dc:format>
    <dc:creator>
     <cc:Agent>
      <dc:title>Matplotlib v3.9.2, https://matplotlib.org/</dc:title>
     </cc:Agent>
    </dc:creator>
   </cc:Work>
  </rdf:RDF>
 </metadata>
 <defs>
  <style type="text/css">*{stroke-linejoin: round; stroke-linecap: butt}</style>
 </defs>
 <g id="figure_1">
  <g id="patch_1">
   <path d="M 0 27.36 
L 333.36 27.36 
L 333.36 0 
L 0 0 
z
" style="fill: #ffffff"/>
  </g>
  <g id="axes_1">
   <g id="patch_2">
    <path d="M 268.38 4.68 
L 280.98 13.68 
L 268.38 22.68 
L 268.38 4.68 
z
" clip-path="url(#padf36febcf)" style="fill: none; stroke: #000000; stroke-width: 2; stroke-linecap: round"/>
   </g>
   <g id="line2d_1">
    <path d="M 4.68 13.68 
L 55.44 13.68 
M 55.44 4.68 
L 55.44 22.68 
M 61.92 4.68 
L 61.92 22.68 
M 61.92 13.68 
L 112.68 13.68 
" clip-path="url(#padf36febcf)" style="fill: none; stroke: #000000; stroke-width: 2; stroke-linecap: round"/>
   </g>
   <g id="line2d_2">
    <path d="M 112.68 13.68 
L 148.68 13.68 
L 151.68 4.68 
L 157.68 22.68 
L 163.68 4.68 
L 169.68 22.68 
L 175.68 4.68 
L 181.68 22.68 
L 184.68 13.68 
L 220.68 13.68 
" clip-path="url(#padf36febcf)" style="fill: none; stroke: #000000; stroke-width: 2; stroke-linecap: round"/>
   </g>
   <g id="line2d_3">
    <path d="M 220.68 13.68 
L 268.38 13.68 
M 280.98 4.68 
L 280.98 22.68 
M 280.98 13.68 
L 328.68 13.68 
" clip-path="url(#padf36febcf)" style="fill: none; stroke: #000000; stroke-width: 2; stroke-linecap: round"/>
   </g>
  </g>
 </g>
 <defs>
  <clipPath id="padf36febcf">
   <rect x="0" y="-0" width="333.36" height="27.36"/>
  </clipPath>
 </defs>
</svg>