<?xml version="1.0" encoding="utf-8" standalone="no"?>
<!DOCTYPE svg PUBLIC "-//W3C//DTD SVG 1.1//EN"
  "http://www.w3.org/Graphics/SVG/1.1/DTD/svg11.dtd">
<svg xmlns:xlink="http://www.w3.org/1999/xlink" width="251.28pt" height="194.48pt" viewBox="0 0 251.28 194.48" xmlns="http://www.w3.org/2000/svg" version="1.1">
 <metadata>
  <rdf:RDF xmlns:dc="http://purl.org/dc/elements/1.1/" xmlns:cc="http://creativecommons.org/ns#" xmlns:rdf="http://www.w3.org/1999/02/22-rdf-syntax-ns#">
   <cc:Work>
    <dc:type rdf:resource="http://purl.org/dc/dcmitype/StillImage"/>
    <dc:date>2024-10-24T14:42:52.925377</dc:date>
    <dc:format>image/svg+xml</dc:format>
    <dc:creator>
     <cc:Agent>
      <dc:title>Matplotlib v3.9.2, https://matplotlib.org/</dc:title>
     </cc:Agent>
    </dc:creator>
   </cc:Work>
  </rdf:RDF>
 </metadata>
 <defs>
  <style type="text/css">*{stroke-linejoin: round; stroke-linecap: butt}</style>
 </defs>
 <g id="figure_1">
  <g id="patch_1">
   <path d="M 0 194.48 
L 251.28 194.48 
L 251.28 0 
L 0 0 
z
" style="fill: #ffffff"/>
  </g>
  <g id="axes_1">
   <g id="line2d_1">
    <path d="M 24.3 183.5 
L 24.3 147.5 
L 18 147.5 
L 18 111.5 
L 30.6 111.5 
L 30.6 147.5 
L 24.3 147.5 
M 24.3 111.5 
L 24.3 75.5 
" clip-path="url(#p5961f29c0c)" style="fill: none; stroke: #000000; stroke-width: 2; stroke-linecap: round"/>
   </g>
   <g id="line2d_2">
    <path d="M 24.3 75.5 
L 60.3 75.5 
L 60.3 69.2 
L 96.3 69.2 
L 96.3 81.8 
L 60.3 81.8 
L 60.3 75.5 
M 96.3 75.5 
L 132.3 75.5 
" clip-path="url(#p5961f29c0c)" style="fill: none; stroke: #000000; stroke-width: 2; stroke-linecap: round"/>
   </g>
   <g id="line2d_3">
    <path d="M 132.3 75.5 
L 132.3 111.5 
L 138.6 111.5 
L 138.6 147.5 
L 126 147.5 
L 126 111.5 
L 132.3 111.5 
M 132.3 147.5 
L 132.3 183.5 
" clip-path="url(#p5961f29c0c)" style="fill: none; stroke: #000000; stroke-width: 2; stroke-linecap: round"/>
   </g>
   <g id="line2d_4">
    <path d="M 132.3 183.5 
L 96.3 183.5 
L 96.3 189.8 
L 60.3 189.8 
L 60.3 177.2 
L 96.3 177.2 
L 96.3 183.5 
M 60.3 183.5 
L 24.3 183.5 
" clip-path="url(#p5961f29c0c)" style="fill: none; stroke: #000000; stroke-width: 2; stroke-linecap: round"/>
   </g>
   <g id="line2d_5">
    <path d="M 132.3 183.5 
L 168.3 183.5 
L 168.3 177.2 
L 204.3 177.2 
L 204.3 189.8 
L 168.3 189.8 
L 168.3 183.5 
M 204.3 183.5 
L 240.3 183.5 
" clip-path="url(#p5961f29c0c)" style="fill: none; stroke: #000000; stroke-width: 2; stroke-linecap: round"/>
   </g>
   <g id="line2d_6">
    <path d="M 240.3 183.5 
L 240.3 147.5 
L 234 147.5 
L 234 111.5 
L 246.6 111.5 
L 246.6 147.5 
L 240.3 147.5 
M 240.3 111.5 
L 240.3 75.5 
" clip-path="url(#p5961f29c0c)" style="fill: none; stroke: #000000; stroke-width: 2; stroke-linecap: round"/>
   </g>
   <g id="line2d_7">
    <path d="M 240.3 75.5 
L 186.3 75.5 
L 132.3 75.5 
" clip-path="url(#p5961f29c0c)" style="fill: none; stroke: #000000; stroke-width: 2; stroke-linecap: round"/>
   </g>
   <g id="line2d_8">
    <path d="M 24.3 75.5 
L 24.3 48.5 
L 24.3 21.5 
" clip-path="url(#p5961f29c0c)" style="fill: none; stroke: #000000; stroke-width: 2; stroke-linecap: round"/>
   </g>
   <g id="line2d_9">
    <path d="M 24.3 21.5 
L 60.3 21.5 
L 60.3 15.2 
L 96.3 15.2 
L 96.3 27.8 
L 60.3 27.8 
L 60.3 21.5 
M 96.3 21.5 
L 132.3 21.5 
" clip-path="url(#p5961f29c0c)" style="fill: none; stroke: #000000; stroke-width: 2; stroke-linecap: round"/>
   </g>
   <g id="line2d_10">
    <path d="M 132.3 21.5 
L 168.3 21.5 
L 168.3 15.2 
L 204.3 15.2 
L 204.3 27.8 
L 168.3 27.8 
L 168.3 21.5 
M 204.3 21.5 
L 240.3 21.5 
" clip-path="url(#p5961f29c0c)" style="fill: none; stroke: #000000; stroke-width: 2; stroke-linecap: round"/>
   </g>
   <g id="line2d_11">
    <path d="M 240.3 21.5 
L 240.3 48.5 
L 240.3 75.5 
" clip-path="url(#p5961f29c0c)" style="fill: none; stroke: #000000; stroke-width: 2; stroke-linecap: round"/>
   </g>
   <g id="patch_2">
    <path d="M 24.3 72.8 
L 24.541688 72.822167 
L 24.779407 72.888304 
L 25.009255 72.997325 
L 25.227456 73.147439 
L 25.430429 73.336183 
L 25.61484 73.560457 
L 25.777662 73.816578 
L 25.91622 74.10034 
L 26.02824 74.407085 
L 26.111882 74.731776 
L 26.165774 75.06908 
L 26.189029 75.413461 
L 26.181267 75.759262 
L 26.142614 76.100807 
L 26.073705 76.432486 
L 25.975673 76.748853 
L 25.850126 77.044715 
L 25.699125 77.315212 
L 25.525152 77.555904 
L 25.331061 77.762838 
L 25.12004 77.932616 
L 24.895555 78.062451 
L 24.66129 78.15021 
L 24.421093 78.194453 
L 24.178907 78.194453 
L 23.93871 78.15021 
L 23.704445 78.062451 
L 23.47996 77.932616 
L 23.268939 77.762838 
L 23.074848 77.555904 
L 22.900875 77.315212 
L 22.749874 77.044715 
L 22.624327 76.748853 
L 22.526295 76.432486 
L 22.457386 76.100807 
L 22.418733 75.759262 
L 22.410971 75.413461 
L 22.434226 75.06908 
L 22.488118 74.731776 
L 22.57176 74.407085 
L 22.68378 74.10034 
L 22.822338 73.816578 
L 22.98516 73.560457 
L 23.169571 73.336183 
L 23.372544 73.147439 
L 23.590745 72.997325 
L 23.820593 72.888304 
L 24.058312 72.822167 
" clip-path="url(#p5961f29c0c)" style="stroke: #000000; stroke-width: 2; stroke-linejoin: miter"/>
   </g>
   <g id="text_1">
    <!-- + -->
    <g transform="translate(7.100312 158.584375) scale(0.1 -0.1)">
     <defs>
      <path id="DejaVuSans-2b" d="M 2944 4013 
L 2944 2272 
L 4684 2272 
L 4684 1741 
L 2944 1741 
L 2944 0 
L 2419 0 
L 2419 1741 
L 678 1741 
L 678 2272 
L 2419 2272 
L 2419 4013 
L 2944 4013 
z
" transform="scale(0.015625)"/>
     </defs>
     <use xlink:href="#DejaVuSans-2b"/>
    </g>
   </g>
   <g id="text_2">
    <!-- $v1$ -->
    <g transform="translate(3.18 130.909375) scale(0.1 -0.1)">
     <defs>
      <path id="DejaVuSans-Oblique-76" d="M 459 3500 
L 1069 3500 
L 1581 525 
L 3256 3500 
L 3866 3500 
L 1875 0 
L 1100 0 
L 459 3500 
z
" transform="scale(0.015625)"/>
      <path id="DejaVuSans-31" d="M 794 531 
L 1825 531 
L 1825 4091 
L 703 3866 
L 703 4441 
L 1819 4666 
L 2450 4666 
L 2450 531 
L 3481 531 
L 3481 0 
L 794 0 
L 794 531 
z
" transform="scale(0.015625)"/>
     </defs>
     <use xlink:href="#DejaVuSans-Oblique-76" transform="translate(0 0.09375)"/>
     <use xlink:href="#DejaVuSans-31" transform="translate(59.179688 0.09375)"/>
    </g>
   </g>
   <g id="text_3">
    <!-- - -->
    <g transform="translate(11.872188 103.234375) scale(0.1 -0.1)">
     <defs>
      <path id="DejaVuSans-2d" d="M 313 2009 
L 1997 2009 
L 1997 1497 
L 313 1497 
L 313 2009 
z
" transform="scale(0.015625)"/>
     </defs>
     <use xlink:href="#DejaVuSans-2d"/>
    </g>
   </g>
   <g id="patch_3">
    <path d="M 135 75.5 
L 134.977833 75.741688 
L 134.911696 75.979407 
L 134.802675 76.209255 
L 134.652561 76.427456 
L 134.463817 76.630429 
L 134.239543 76.81484 
L 133.983422 76.977662 
L 133.69966 77.11622 
L 133.392915 77.22824 
L 133.068224 77.311882 
L 132.73092 77.365774 
L 132.386539 77.389029 
L 132.040738 77.381267 
L 131.699193 77.342614 
L 131.367514 77.273705 
L 131.051147 77.175673 
L 130.755285 77.050126 
L 130.484788 76.899125 
L 130.244096 76.725152 
L 130.037162 76.531061 
L 129.867384 76.32004 
L 129.737549 76.095555 
L 129.64979 75.86129 
L 129.605547 75.621093 
L 129.605547 75.378907 
L 129.64979 75.13871 
L 129.737549 74.904445 
L 129.867384 74.67996 
L 130.037162 74.468939 
L 130.244096 74.274848 
L 130.484788 74.100875 
L 130.755285 73.949874 
L 131.051147 73.824327 
L 131.367514 73.726295 
L 131.699193 73.657386 
L 132.040738 73.618733 
L 132.386539 73.610971 
L 132.73092 73.634226 
L 133.068224 73.688118 
L 133.392915 73.77176 
L 133.69966 73.88378 
L 133.983422 74.022338 
L 134.239543 74.18516 
L 134.463817 74.369571 
L 134.652561 74.572544 
L 134.802675 74.790745 
L 134.911696 75.020593 
L 134.977833 75.258312 
" clip-path="url(#p5961f29c0c)" style="stroke: #000000; stroke-width: 2; stroke-linejoin: miter"/>
   </g>
   <g id="text_4">
    <!-- - -->
    <g transform="translate(50.171094 64.600312) scale(0.1 -0.1)">
     <use xlink:href="#DejaVuSans-2d"/>
    </g>
   </g>
   <g id="text_5">
    <!-- $v2$ -->
    <g transform="translate(73.5 64.600312) scale(0.1 -0.1)">
     <defs>
      <path id="DejaVuSans-32" d="M 1228 531 
L 3431 531 
L 3431 0 
L 469 0 
L 469 531 
Q 828 903 1448 1529 
Q 2069 2156 2228 2338 
Q 2531 2678 2651 2914 
Q 2772 3150 2772 3378 
Q 2772 3750 2511 3984 
Q 2250 4219 1831 4219 
Q 1534 4219 1204 4116 
Q 875 4013 500 3803 
L 500 4441 
Q 881 4594 1212 4672 
Q 1544 4750 1819 4750 
Q 2544 4750 2975 4387 
Q 3406 4025 3406 3419 
Q 3406 3131 3298 2873 
Q 3191 2616 2906 2266 
Q 2828 2175 2409 1742 
Q 1991 1309 1228 531 
z
" transform="scale(0.015625)"/>
     </defs>
     <use xlink:href="#DejaVuSans-Oblique-76" transform="translate(0 0.78125)"/>
     <use xlink:href="#DejaVuSans-32" transform="translate(59.179688 0.78125)"/>
    </g>
   </g>
   <g id="text_6">
    <!-- + -->
    <g transform="translate(103.135156 64.600312) scale(0.1 -0.1)">
     <use xlink:href="#DejaVuSans-2b"/>
    </g>
   </g>
   <g id="text_7">
    <!-- + -->
    <g transform="translate(115.100312 105.259375) scale(0.1 -0.1)">
     <use xlink:href="#DejaVuSans-2b"/>
    </g>
   </g>
   <g id="text_8">
    <!-- $v4$ -->
    <g transform="translate(111.18 132.259375) scale(0.1 -0.1)">
     <defs>
      <path id="DejaVuSans-34" d="M 2419 4116 
L 825 1625 
L 2419 1625 
L 2419 4116 
z
M 2253 4666 
L 3047 4666 
L 3047 1625 
L 3713 1625 
L 3713 1100 
L 3047 1100 
L 3047 0 
L 2419 0 
L 2419 1100 
L 313 1100 
L 313 1709 
L 2253 4666 
z
" transform="scale(0.015625)"/>
     </defs>
     <use xlink:href="#DejaVuSans-Oblique-76" transform="translate(0 0.09375)"/>
     <use xlink:href="#DejaVuSans-34" transform="translate(59.179688 0.09375)"/>
    </g>
   </g>
   <g id="text_9">
    <!-- - -->
    <g transform="translate(119.872187 159.259375) scale(0.1 -0.1)">
     <use xlink:href="#DejaVuSans-2d"/>
    </g>
   </g>
   <g id="text_10">
    <!-- - -->
    <g transform="translate(103.496094 172.600312) scale(0.1 -0.1)">
     <use xlink:href="#DejaVuSans-2d"/>
    </g>
   </g>
   <g id="text_11">
    <!-- $v3$ -->
    <g transform="translate(72.15 172.600312) scale(0.1 -0.1)">
     <defs>
      <path id="DejaVuSans-33" d="M 2597 2516 
Q 3050 2419 3304 2112 
Q 3559 1806 3559 1356 
Q 3559 666 3084 287 
Q 2609 -91 1734 -91 
Q 1441 -91 1130 -33 
Q 819 25 488 141 
L 488 750 
Q 750 597 1062 519 
Q 1375 441 1716 441 
Q 2309 441 2620 675 
Q 2931 909 2931 1356 
Q 2931 1769 2642 2001 
Q 2353 2234 1838 2234 
L 1294 2234 
L 1294 2753 
L 1863 2753 
Q 2328 2753 2575 2939 
Q 2822 3125 2822 3475 
Q 2822 3834 2567 4026 
Q 2313 4219 1838 4219 
Q 1578 4219 1281 4162 
Q 984 4106 628 3988 
L 628 4550 
Q 988 4650 1302 4700 
Q 1616 4750 1894 4750 
Q 2613 4750 3031 4423 
Q 3450 4097 3450 3541 
Q 3450 3153 3228 2886 
Q 3006 2619 2597 2516 
z
" transform="scale(0.015625)"/>
     </defs>
     <use xlink:href="#DejaVuSans-Oblique-76" transform="translate(0 0.78125)"/>
     <use xlink:href="#DejaVuSans-33" transform="translate(59.179688 0.78125)"/>
    </g>
   </g>
   <g id="text_12">
    <!-- + -->
    <g transform="translate(47.110156 172.600312) scale(0.1 -0.1)">
     <use xlink:href="#DejaVuSans-2b"/>
    </g>
   </g>
   <g id="text_13">
    <!-- - -->
    <g transform="translate(157.496094 172.600313) scale(0.1 -0.1)">
     <use xlink:href="#DejaVuSans-2d"/>
    </g>
   </g>
   <g id="text_14">
    <!-- $v5$ -->
    <g transform="translate(180.15 172.600313) scale(0.1 -0.1)">
     <defs>
      <path id="DejaVuSans-35" d="M 691 4666 
L 3169 4666 
L 3169 4134 
L 1269 4134 
L 1269 2991 
Q 1406 3038 1543 3061 
Q 1681 3084 1819 3084 
Q 2600 3084 3056 2656 
Q 3513 2228 3513 1497 
Q 3513 744 3044 326 
Q 2575 -91 1722 -91 
Q 1428 -91 1123 -41 
Q 819 9 494 109 
L 494 744 
Q 775 591 1075 516 
Q 1375 441 1709 441 
Q 2250 441 2565 725 
Q 2881 1009 2881 1497 
Q 2881 1984 2565 2268 
Q 2250 2553 1709 2553 
Q 1456 2553 1204 2497 
Q 953 2441 691 2322 
L 691 4666 
z
" transform="scale(0.015625)"/>
     </defs>
     <use xlink:href="#DejaVuSans-Oblique-76" transform="translate(0 0.09375)"/>
     <use xlink:href="#DejaVuSans-35" transform="translate(59.179688 0.09375)"/>
    </g>
   </g>
   <g id="text_15">
    <!-- + -->
    <g transform="translate(209.110156 172.600313) scale(0.1 -0.1)">
     <use xlink:href="#DejaVuSans-2b"/>
    </g>
   </g>
   <g id="patch_4">
    <path d="M 240.3 72.8 
L 240.541688 72.822167 
L 240.779407 72.888304 
L 241.009255 72.997325 
L 241.227456 73.147439 
L 241.430429 73.336183 
L 241.61484 73.560457 
L 241.777662 73.816578 
L 241.91622 74.10034 
L 242.02824 74.407085 
L 242.111882 74.731776 
L 242.165774 75.06908 
L 242.189029 75.413461 
L 242.181267 75.759262 
L 242.142614 76.100807 
L 242.073705 76.432486 
L 241.975673 76.748853 
L 241.850126 77.044715 
L 241.699125 77.315212 
L 241.525152 77.555904 
L 241.331061 77.762838 
L 241.12004 77.932616 
L 240.895555 78.062451 
L 240.66129 78.15021 
L 240.421093 78.194453 
L 240.178907 78.194453 
L 239.93871 78.15021 
L 239.704445 78.062451 
L 239.47996 77.932616 
L 239.268939 77.762838 
L 239.074848 77.555904 
L 238.900875 77.315212 
L 238.749874 77.044715 
L 238.624327 76.748853 
L 238.526295 76.432486 
L 238.457386 76.100807 
L 238.418733 75.759262 
L 238.410971 75.413461 
L 238.434226 75.06908 
L 238.488118 74.731776 
L 238.57176 74.407085 
L 238.68378 74.10034 
L 238.822338 73.816578 
L 238.98516 73.560457 
L 239.169571 73.336183 
L 239.372544 73.147439 
L 239.590745 72.997325 
L 239.820593 72.888304 
L 240.058312 72.822167 
" clip-path="url(#p5961f29c0c)" style="stroke: #000000; stroke-width: 2; stroke-linejoin: miter"/>
   </g>
   <g id="text_16">
    <!-- - -->
    <g transform="translate(227.872188 158.584375) scale(0.1 -0.1)">
     <use xlink:href="#DejaVuSans-2d"/>
    </g>
   </g>
   <g id="text_17">
    <!-- $v6$ -->
    <g transform="translate(219.18 130.909375) scale(0.1 -0.1)">
     <defs>
      <path id="DejaVuSans-36" d="M 2113 2584 
Q 1688 2584 1439 2293 
Q 1191 2003 1191 1497 
Q 1191 994 1439 701 
Q 1688 409 2113 409 
Q 2538 409 2786 701 
Q 3034 994 3034 1497 
Q 3034 2003 2786 2293 
Q 2538 2584 2113 2584 
z
M 3366 4563 
L 3366 3988 
Q 3128 4100 2886 4159 
Q 2644 4219 2406 4219 
Q 1781 4219 1451 3797 
Q 1122 3375 1075 2522 
Q 1259 2794 1537 2939 
Q 1816 3084 2150 3084 
Q 2853 3084 3261 2657 
Q 3669 2231 3669 1497 
Q 3669 778 3244 343 
Q 2819 -91 2113 -91 
Q 1303 -91 875 529 
Q 447 1150 447 2328 
Q 447 3434 972 4092 
Q 1497 4750 2381 4750 
Q 2619 4750 2861 4703 
Q 3103 4656 3366 4563 
z
" transform="scale(0.015625)"/>
     </defs>
     <use xlink:href="#DejaVuSans-Oblique-76" transform="translate(0 0.78125)"/>
     <use xlink:href="#DejaVuSans-36" transform="translate(59.179688 0.78125)"/>
    </g>
   </g>
   <g id="text_18">
    <!-- + -->
    <g transform="translate(223.100313 103.234375) scale(0.1 -0.1)">
     <use xlink:href="#DejaVuSans-2b"/>
    </g>
   </g>
   <g id="text_19">
    <!-- - -->
    <g transform="translate(49.496094 10.600313) scale(0.1 -0.1)">
     <use xlink:href="#DejaVuSans-2d"/>
    </g>
   </g>
   <g id="text_20">
    <!-- $v7$ -->
    <g transform="translate(72.15 10.600313) scale(0.1 -0.1)">
     <defs>
      <path id="DejaVuSans-37" d="M 525 4666 
L 3525 4666 
L 3525 4397 
L 1831 0 
L 1172 0 
L 2766 4134 
L 525 4134 
L 525 4666 
z
" transform="scale(0.015625)"/>
     </defs>
     <use xlink:href="#DejaVuSans-Oblique-76" transform="translate(0 0.09375)"/>
     <use xlink:href="#DejaVuSans-37" transform="translate(59.179688 0.09375)"/>
    </g>
   </g>
   <g id="text_21">
    <!-- + -->
    <g transform="translate(101.110156 10.600313) scale(0.1 -0.1)">
     <use xlink:href="#DejaVuSans-2b"/>
    </g>
   </g>
   <g id="text_22">
    <!-- - -->
    <g transform="translate(157.496094 10.600313) scale(0.1 -0.1)">
     <use xlink:href="#DejaVuSans-2d"/>
    </g>
   </g>
   <g id="text_23">
    <!-- $v8$ -->
    <g transform="translate(180.15 10.600313) scale(0.1 -0.1)">
     <defs>
      <path id="DejaVuSans-38" d="M 2034 2216 
Q 1584 2216 1326 1975 
Q 1069 1734 1069 1313 
Q 1069 891 1326 650 
Q 1584 409 2034 409 
Q 2484 409 2743 651 
Q 3003 894 3003 1313 
Q 3003 1734 2745 1975 
Q 2488 2216 2034 2216 
z
M 1403 2484 
Q 997 2584 770 2862 
Q 544 3141 544 3541 
Q 544 4100 942 4425 
Q 1341 4750 2034 4750 
Q 2731 4750 3128 4425 
Q 3525 4100 3525 3541 
Q 3525 3141 3298 2862 
Q 3072 2584 2669 2484 
Q 3125 2378 3379 2068 
Q 3634 1759 3634 1313 
Q 3634 634 3220 271 
Q 2806 -91 2034 -91 
Q 1263 -91 848 271 
Q 434 634 434 1313 
Q 434 1759 690 2068 
Q 947 2378 1403 2484 
z
M 1172 3481 
Q 1172 3119 1398 2916 
Q 1625 2713 2034 2713 
Q 2441 2713 2670 2916 
Q 2900 3119 2900 3481 
Q 2900 3844 2670 4047 
Q 2441 4250 2034 4250 
Q 1625 4250 1398 4047 
Q 1172 3844 1172 3481 
z
" transform="scale(0.015625)"/>
     </defs>
     <use xlink:href="#DejaVuSans-Oblique-76" transform="translate(0 0.78125)"/>
     <use xlink:href="#DejaVuSans-38" transform="translate(59.179688 0.78125)"/>
    </g>
   </g>
   <g id="text_24">
    <!-- + -->
    <g transform="translate(209.110156 10.600313) scale(0.1 -0.1)">
     <use xlink:href="#DejaVuSans-2b"/>
    </g>
   </g>
  </g>
 </g>
 <defs>
  <clipPath id="p5961f29c0c">
   <rect x="0" y="0" width="251.28" height="194.48"/>
  </clipPath>
 </defs>
</svg>