<?xml version="1.0" encoding="utf-8" standalone="no"?>
<!DOCTYPE svg PUBLIC "-//W3C//DTD SVG 1.1//EN"
  "http://www.w3.org/Graphics/SVG/1.1/DTD/svg11.dtd">
<svg xmlns:xlink="http://www.w3.org/1999/xlink" width="386.876pt" height="162.534pt" viewBox="0 0 386.876 162.534" xmlns="http://www.w3.org/2000/svg" version="1.1">
 <metadata>
  <rdf:RDF xmlns:dc="http://purl.org/dc/elements/1.1/" xmlns:cc="http://creativecommons.org/ns#" xmlns:rdf="http://www.w3.org/1999/02/22-rdf-syntax-ns#">
   <cc:Work>
    <dc:type rdf:resource="http://purl.org/dc/dcmitype/StillImage"/>
    <dc:date>2024-10-04T12:43:57.349192</dc:date>
    <dc:format>image/svg+xml</dc:format>
    <dc:creator>
     <cc:Agent>
      <dc:title>Matplotlib v3.9.2, https://matplotlib.org/</dc:title>
     </cc:Agent>
    </dc:creator>
   </cc:Work>
  </rdf:RDF>
 </metadata>
 <defs>
  <style type="text/css">*{stroke-linejoin: round; stroke-linecap: butt}</style>
 </defs>
 <g id="figure_1">
  <g id="patch_1">
   <path d="M 0 162.534 
L 386.876 162.534 
L 386.876 0 
L 0 0 
z
" style="fill: #ffffff"/>
  </g>
  <g id="axes_1">
   <g id="patch_2">
    <path d="M 40.196 98.814 
C 44.969656 98.814 49.548438 96.917406 52.923922 93.541922 
C 56.299406 90.166438 58.196 85.587656 58.196 80.814 
C 58.196 76.040344 56.299406 71.461562 52.923922 68.086078 
C 49.548438 64.710594 44.969656 62.814 40.196 62.814 
C 35.422344 62.814 30.843562 64.710594 27.468078 68.086078 
C 24.092594 71.461562 22.196 76.040344 22.196 80.814 
C 22.196 85.587656 24.092594 90.166438 27.468078 93.541922 
C 30.843562 96.917406 35.422344 98.814 40.196 98.814 
L 40.196 98.814 
z
" clip-path="url(#p862feb11ff)" style="fill: none; stroke: #000000; stroke-width: 2; stroke-linejoin: miter"/>
   </g>
   <g id="patch_3">
    <path d="M 364.196 98.814 
C 368.969656 98.814 373.548438 96.917406 376.923922 93.541922 
C 380.299406 90.166438 382.196 85.587656 382.196 80.814 
C 382.196 76.040344 380.299406 71.461562 376.923922 68.086078 
C 373.548438 64.710594 368.969656 62.814 364.196 62.814 
C 359.422344 62.814 354.843562 64.710594 351.468078 68.086078 
C 348.092594 71.461562 346.196 76.040344 346.196 80.814 
C 346.196 85.587656 348.092594 90.166438 351.468078 93.541922 
C 354.843562 96.917406 359.422344 98.814 364.196 98.814 
L 364.196 98.814 
z
" clip-path="url(#p862feb11ff)" style="fill: none; stroke: #000000; stroke-width: 2; stroke-linejoin: miter"/>
   </g>
   <g id="line2d_1">
    <path d="M 40.196 134.814 
L 40.196 98.814 
L 40.196 98.814 
M 40.196 62.814 
L 40.196 62.814 
L 40.196 26.814 
" clip-path="url(#p862feb11ff)" style="fill: none; stroke: #000000; stroke-width: 2; stroke-linecap: round"/>
   </g>
   <g id="line2d_2">
    <path d="M 43.796 89.814 
L 36.596 89.814 
" clip-path="url(#p862feb11ff)" style="fill: none; stroke: #000000; stroke-width: 2; stroke-linecap: round"/>
   </g>
   <g id="line2d_3">
    <path d="M 40.196 75.414 
L 40.196 68.214 
" clip-path="url(#p862feb11ff)" style="fill: none; stroke: #000000; stroke-width: 2; stroke-linecap: round"/>
   </g>
   <g id="line2d_4">
    <path d="M 43.796 71.814 
L 36.596 71.814 
" clip-path="url(#p862feb11ff)" style="fill: none; stroke: #000000; stroke-width: 2; stroke-linecap: round"/>
   </g>
   <g id="line2d_5">
    <path d="M 40.196 26.814 
L 76.196 26.814 
L 79.196 17.814 
L 85.196 35.814 
L 91.196 17.814 
L 97.196 35.814 
L 103.196 17.814 
L 109.196 35.814 
L 112.196 26.814 
L 148.196 26.814 
" clip-path="url(#p862feb11ff)" style="fill: none; stroke: #000000; stroke-width: 2; stroke-linecap: round"/>
   </g>
   <g id="line2d_6">
    <path d="M 148.196 26.814 
L 184.196 26.814 
L 187.196 17.814 
L 193.196 35.814 
L 199.196 17.814 
L 205.196 35.814 
L 211.196 17.814 
L 217.196 35.814 
L 220.196 26.814 
L 256.196 26.814 
" clip-path="url(#p862feb11ff)" style="fill: none; stroke: #000000; stroke-width: 2; stroke-linecap: round"/>
   </g>
   <g id="line2d_7">
    <path d="M 256.196 26.814 
L 310.196 26.814 
L 364.196 26.814 
" clip-path="url(#p862feb11ff)" style="fill: none; stroke: #000000; stroke-width: 2; stroke-linecap: round"/>
   </g>
   <g id="line2d_8">
    <path d="M 40.196 134.814 
L 94.196 134.814 
L 148.196 134.814 
" clip-path="url(#p862feb11ff)" style="fill: none; stroke: #000000; stroke-width: 2; stroke-linecap: round"/>
   </g>
   <g id="line2d_9">
    <path d="M 148.196 134.814 
L 202.196 134.814 
L 256.196 134.814 
" clip-path="url(#p862feb11ff)" style="fill: none; stroke: #000000; stroke-width: 2; stroke-linecap: round"/>
   </g>
   <g id="line2d_10">
    <path d="M 256.196 134.814 
L 256.196 149.214 
L 247.196 149.214 
L 265.196 149.214 
M 249.896 153.534 
L 262.496 153.534 
M 254.396 157.854 
L 257.996 157.854 
" clip-path="url(#p862feb11ff)" style="fill: none; stroke: #000000; stroke-width: 2; stroke-linecap: round"/>
   </g>
   <g id="line2d_11">
    <path d="M 256.196 134.814 
L 310.196 134.814 
L 364.196 134.814 
" clip-path="url(#p862feb11ff)" style="fill: none; stroke: #000000; stroke-width: 2; stroke-linecap: round"/>
   </g>
   <g id="line2d_12">
    <path d="M 364.196 134.814 
L 364.196 98.814 
L 364.196 98.814 
M 364.196 62.814 
L 364.196 62.814 
L 364.196 26.814 
" clip-path="url(#p862feb11ff)" style="fill: none; stroke: #000000; stroke-width: 2; stroke-linecap: round"/>
   </g>
   <g id="line2d_13">
    <path d="M 364.196 89.814 
L 364.196 80.814 
" clip-path="url(#p862feb11ff)" style="fill: none; stroke: #000000; stroke-width: 2; stroke-linecap: round"/>
   </g>
   <g id="patch_4">
    <path d="M 361.496 80.814 
L 364.196 71.814 
L 366.896 80.814 
z
" clip-path="url(#p862feb11ff)"/>
   </g>
   <g id="line2d_14">
    <path d="M 148.196 26.814 
L 148.196 62.814 
L 157.196 65.814 
L 139.196 71.814 
L 157.196 77.814 
L 139.196 83.814 
L 157.196 89.814 
L 139.196 95.814 
L 148.196 98.814 
L 148.196 134.814 
" clip-path="url(#p862feb11ff)" style="fill: none; stroke: #000000; stroke-width: 2; stroke-linecap: round"/>
   </g>
   <g id="line2d_15">
    <path d="M 256.196 26.814 
L 256.196 62.814 
L 265.196 65.814 
L 247.196 71.814 
L 265.196 77.814 
L 247.196 83.814 
L 265.196 89.814 
L 247.196 95.814 
L 256.196 98.814 
L 256.196 134.814 
" clip-path="url(#p862feb11ff)" style="fill: none; stroke: #000000; stroke-width: 2; stroke-linecap: round"/>
   </g>
   <g id="text_1">
    <!-- 9V -->
    <g transform="translate(0.111625 84.677125) scale(0.14 -0.14)">
     <defs>
      <path id="DejaVuSans-39" d="M 703 97 
L 703 672 
Q 941 559 1184 500 
Q 1428 441 1663 441 
Q 2288 441 2617 861 
Q 2947 1281 2994 2138 
Q 2813 1869 2534 1725 
Q 2256 1581 1919 1581 
Q 1219 1581 811 2004 
Q 403 2428 403 3163 
Q 403 3881 828 4315 
Q 1253 4750 1959 4750 
Q 2769 4750 3195 4129 
Q 3622 3509 3622 2328 
Q 3622 1225 3098 567 
Q 2575 -91 1691 -91 
Q 1453 -91 1209 -44 
Q 966 3 703 97 
z
M 1959 2075 
Q 2384 2075 2632 2365 
Q 2881 2656 2881 3163 
Q 2881 3666 2632 3958 
Q 2384 4250 1959 4250 
Q 1534 4250 1286 3958 
Q 1038 3666 1038 3163 
Q 1038 2656 1286 2365 
Q 1534 2075 1959 2075 
z
" transform="scale(0.015625)"/>
      <path id="DejaVuSans-56" d="M 1831 0 
L 50 4666 
L 709 4666 
L 2188 738 
L 3669 4666 
L 4325 4666 
L 2547 0 
L 1831 0 
z
" transform="scale(0.015625)"/>
     </defs>
     <use xlink:href="#DejaVuSans-39"/>
     <use xlink:href="#DejaVuSans-56" x="63.623047"/>
    </g>
   </g>
   <g id="text_2">
    <!-- R1=4立 -->
    <g transform="translate(69.209281 11.302438) scale(0.14 -0.14)">
     <defs>
      <path id="DejaVuSans-52" d="M 2841 2188 
Q 3044 2119 3236 1894 
Q 3428 1669 3622 1275 
L 4263 0 
L 3584 0 
L 2988 1197 
Q 2756 1666 2539 1819 
Q 2322 1972 1947 1972 
L 1259 1972 
L 1259 0 
L 628 0 
L 628 4666 
L 2053 4666 
Q 2853 4666 3247 4331 
Q 3641 3997 3641 3322 
Q 3641 2881 3436 2590 
Q 3231 2300 2841 2188 
z
M 1259 4147 
L 1259 2491 
L 2053 2491 
Q 2509 2491 2742 2702 
Q 2975 2913 2975 3322 
Q 2975 3731 2742 3939 
Q 2509 4147 2053 4147 
L 1259 4147 
z
" transform="scale(0.015625)"/>
      <path id="DejaVuSans-31" d="M 794 531 
L 1825 531 
L 1825 4091 
L 703 3866 
L 703 4441 
L 1819 4666 
L 2450 4666 
L 2450 531 
L 3481 531 
L 3481 0 
L 794 0 
L 794 531 
z
" transform="scale(0.015625)"/>
      <path id="DejaVuSans-3d" d="M 678 2906 
L 4684 2906 
L 4684 2381 
L 678 2381 
L 678 2906 
z
M 678 1631 
L 4684 1631 
L 4684 1100 
L 678 1100 
L 678 1631 
z
" transform="scale(0.015625)"/>
      <path id="DejaVuSans-34" d="M 2419 4116 
L 825 1625 
L 2419 1625 
L 2419 4116 
z
M 2253 4666 
L 3047 4666 
L 3047 1625 
L 3713 1625 
L 3713 1100 
L 3047 1100 
L 3047 0 
L 2419 0 
L 2419 1100 
L 313 1100 
L 313 1709 
L 2253 4666 
z
" transform="scale(0.015625)"/>
      <path id="DejaVuSans-3a9" d="M 4647 556 
L 4647 0 
L 2772 0 
L 2772 556 
Q 3325 859 3634 1378 
Q 3944 1897 3944 2528 
Q 3944 3278 3531 3731 
Q 3119 4184 2444 4184 
Q 1769 4184 1355 3729 
Q 941 3275 941 2528 
Q 941 1897 1250 1378 
Q 1563 859 2119 556 
L 2119 0 
L 244 0 
L 244 556 
L 1241 556 
Q 747 991 519 1456 
Q 294 1922 294 2497 
Q 294 3491 894 4106 
Q 1491 4722 2444 4722 
Q 3391 4722 3994 4106 
Q 4594 3494 4594 2528 
Q 4594 1922 4372 1459 
Q 4150 997 3647 556 
L 4647 556 
z
" transform="scale(0.015625)"/>
     </defs>
     <use xlink:href="#DejaVuSans-52"/>
     <use xlink:href="#DejaVuSans-31" x="69.482422"/>
     <use xlink:href="#DejaVuSans-3d" x="133.105469"/>
     <use xlink:href="#DejaVuSans-34" x="216.894531"/>
     <use xlink:href="#DejaVuSans-3a9" x="280.517578"/>
    </g>
   </g>
   <g id="text_3">
    <!-- R3=3立 -->
    <g transform="translate(177.209281 11.302438) scale(0.14 -0.14)">
     <defs>
      <path id="DejaVuSans-33" d="M 2597 2516 
Q 3050 2419 3304 2112 
Q 3559 1806 3559 1356 
Q 3559 666 3084 287 
Q 2609 -91 1734 -91 
Q 1441 -91 1130 -33 
Q 819 25 488 141 
L 488 750 
Q 750 597 1062 519 
Q 1375 441 1716 441 
Q 2309 441 2620 675 
Q 2931 909 2931 1356 
Q 2931 1769 2642 2001 
Q 2353 2234 1838 2234 
L 1294 2234 
L 1294 2753 
L 1863 2753 
Q 2328 2753 2575 2939 
Q 2822 3125 2822 3475 
Q 2822 3834 2567 4026 
Q 2313 4219 1838 4219 
Q 1578 4219 1281 4162 
Q 984 4106 628 3988 
L 628 4550 
Q 988 4650 1302 4700 
Q 1616 4750 1894 4750 
Q 2613 4750 3031 4423 
Q 3450 4097 3450 3541 
Q 3450 3153 3228 2886 
Q 3006 2619 2597 2516 
z
" transform="scale(0.015625)"/>
     </defs>
     <use xlink:href="#DejaVuSans-52"/>
     <use xlink:href="#DejaVuSans-33" x="69.482422"/>
     <use xlink:href="#DejaVuSans-3d" x="133.105469"/>
     <use xlink:href="#DejaVuSans-33" x="216.894531"/>
     <use xlink:href="#DejaVuSans-3a9" x="280.517578"/>
    </g>
   </g>
   <g id="text_4">
    <!-- 5A -->
    <g transform="translate(324.111625 84.677125) scale(0.14 -0.14)">
     <defs>
      <path id="DejaVuSans-35" d="M 691 4666 
L 3169 4666 
L 3169 4134 
L 1269 4134 
L 1269 2991 
Q 1406 3038 1543 3061 
Q 1681 3084 1819 3084 
Q 2600 3084 3056 2656 
Q 3513 2228 3513 1497 
Q 3513 744 3044 326 
Q 2575 -91 1722 -91 
Q 1428 -91 1123 -41 
Q 819 9 494 109 
L 494 744 
Q 775 591 1075 516 
Q 1375 441 1709 441 
Q 2250 441 2565 725 
Q 2881 1009 2881 1497 
Q 2881 1984 2565 2268 
Q 2250 2553 1709 2553 
Q 1456 2553 1204 2497 
Q 953 2441 691 2322 
L 691 4666 
z
" transform="scale(0.015625)"/>
      <path id="DejaVuSans-41" d="M 2188 4044 
L 1331 1722 
L 3047 1722 
L 2188 4044 
z
M 1831 4666 
L 2547 4666 
L 4325 0 
L 3669 0 
L 3244 1197 
L 1141 1197 
L 716 0 
L 50 0 
L 1831 4666 
z
" transform="scale(0.015625)"/>
     </defs>
     <use xlink:href="#DejaVuSans-35"/>
     <use xlink:href="#DejaVuSans-41" x="63.623047"/>
    </g>
   </g>
   <g id="text_5">
    <!-- R2=7立 -->
    <g transform="translate(85.622563 84.677125) scale(0.14 -0.14)">
     <defs>
      <path id="DejaVuSans-32" d="M 1228 531 
L 3431 531 
L 3431 0 
L 469 0 
L 469 531 
Q 828 903 1448 1529 
Q 2069 2156 2228 2338 
Q 2531 2678 2651 2914 
Q 2772 3150 2772 3378 
Q 2772 3750 2511 3984 
Q 2250 4219 1831 4219 
Q 1534 4219 1204 4116 
Q 875 4013 500 3803 
L 500 4441 
Q 881 4594 1212 4672 
Q 1544 4750 1819 4750 
Q 2544 4750 2975 4387 
Q 3406 4025 3406 3419 
Q 3406 3131 3298 2873 
Q 3191 2616 2906 2266 
Q 2828 2175 2409 1742 
Q 1991 1309 1228 531 
z
" transform="scale(0.015625)"/>
      <path id="DejaVuSans-37" d="M 525 4666 
L 3525 4666 
L 3525 4397 
L 1831 0 
L 1172 0 
L 2766 4134 
L 525 4134 
L 525 4666 
z
" transform="scale(0.015625)"/>
     </defs>
     <use xlink:href="#DejaVuSans-52"/>
     <use xlink:href="#DejaVuSans-32" x="69.482422"/>
     <use xlink:href="#DejaVuSans-3d" x="133.105469"/>
     <use xlink:href="#DejaVuSans-37" x="216.894531"/>
     <use xlink:href="#DejaVuSans-3a9" x="280.517578"/>
    </g>
   </g>
   <g id="text_6">
    <!-- R4=2立 -->
    <g transform="translate(193.622563 84.677125) scale(0.14 -0.14)">
     <use xlink:href="#DejaVuSans-52"/>
     <use xlink:href="#DejaVuSans-34" x="69.482422"/>
     <use xlink:href="#DejaVuSans-3d" x="133.105469"/>
     <use xlink:href="#DejaVuSans-32" x="216.894531"/>
     <use xlink:href="#DejaVuSans-3a9" x="280.517578"/>
    </g>
   </g>
   <g id="patch_5">
    <path d="M 40.196 29.514 
C 40.912048 29.514 41.598866 29.229511 42.105188 28.723188 
C 42.611511 28.216866 42.896 27.530048 42.896 26.814 
C 42.896 26.097952 42.611511 25.411134 42.105188 24.904812 
C 41.598866 24.398489 40.912048 24.114 40.196 24.114 
C 39.479952 24.114 38.793134 24.398489 38.286812 24.904812 
C 37.780489 25.411134 37.496 26.097952 37.496 26.814 
C 37.496 27.530048 37.780489 28.216866 38.286812 28.723188 
C 38.793134 29.229511 39.479952 29.514 40.196 29.514 
z
" clip-path="url(#p862feb11ff)" style="stroke: #000000; stroke-width: 2; stroke-linejoin: miter"/>
   </g>
   <g id="text_7">
    <!-- A -->
    <g transform="translate(35.407562 17.602438) scale(0.14 -0.14)">
     <use xlink:href="#DejaVuSans-41"/>
    </g>
   </g>
   <g id="patch_6">
    <path d="M 148.196 29.514 
C 148.912048 29.514 149.598866 29.229511 150.105188 28.723188 
C 150.611511 28.216866 150.896 27.530048 150.896 26.814 
C 150.896 26.097952 150.611511 25.411134 150.105188 24.904812 
C 149.598866 24.398489 148.912048 24.114 148.196 24.114 
C 147.479952 24.114 146.793134 24.398489 146.286812 24.904812 
C 145.780489 25.411134 145.496 26.097952 145.496 26.814 
C 145.496 27.530048 145.780489 28.216866 146.286812 28.723188 
C 146.793134 29.229511 147.479952 29.514 148.196 29.514 
z
" clip-path="url(#p862feb11ff)" style="stroke: #000000; stroke-width: 2; stroke-linejoin: miter"/>
   </g>
   <g id="text_8">
    <!-- B -->
    <g transform="translate(143.393344 17.602438) scale(0.14 -0.14)">
     <defs>
      <path id="DejaVuSans-42" d="M 1259 2228 
L 1259 519 
L 2272 519 
Q 2781 519 3026 730 
Q 3272 941 3272 1375 
Q 3272 1813 3026 2020 
Q 2781 2228 2272 2228 
L 1259 2228 
z
M 1259 4147 
L 1259 2741 
L 2194 2741 
Q 2656 2741 2882 2914 
Q 3109 3088 3109 3444 
Q 3109 3797 2882 3972 
Q 2656 4147 2194 4147 
L 1259 4147 
z
M 628 4666 
L 2241 4666 
Q 2963 4666 3353 4366 
Q 3744 4066 3744 3513 
Q 3744 3084 3544 2831 
Q 3344 2578 2956 2516 
Q 3422 2416 3680 2098 
Q 3938 1781 3938 1306 
Q 3938 681 3513 340 
Q 3088 0 2303 0 
L 628 0 
L 628 4666 
z
" transform="scale(0.015625)"/>
     </defs>
     <use xlink:href="#DejaVuSans-42"/>
    </g>
   </g>
   <g id="patch_7">
    <path d="M 256.196 29.514 
C 256.912048 29.514 257.598866 29.229511 258.105188 28.723188 
C 258.611511 28.216866 258.896 27.530048 258.896 26.814 
C 258.896 26.097952 258.611511 25.411134 258.105188 24.904812 
C 257.598866 24.398489 256.912048 24.114 256.196 24.114 
C 255.479952 24.114 254.793134 24.398489 254.286812 24.904812 
C 253.780489 25.411134 253.496 26.097952 253.496 26.814 
C 253.496 27.530048 253.780489 28.216866 254.286812 28.723188 
C 254.793134 29.229511 255.479952 29.514 256.196 29.514 
z
" clip-path="url(#p862feb11ff)" style="stroke: #000000; stroke-width: 2; stroke-linejoin: miter"/>
   </g>
   <g id="text_9">
    <!-- C -->
    <g transform="translate(251.308031 17.602438) scale(0.14 -0.14)">
     <defs>
      <path id="DejaVuSans-43" d="M 4122 4306 
L 4122 3641 
Q 3803 3938 3442 4084 
Q 3081 4231 2675 4231 
Q 1875 4231 1450 3742 
Q 1025 3253 1025 2328 
Q 1025 1406 1450 917 
Q 1875 428 2675 428 
Q 3081 428 3442 575 
Q 3803 722 4122 1019 
L 4122 359 
Q 3791 134 3420 21 
Q 3050 -91 2638 -91 
Q 1578 -91 968 557 
Q 359 1206 359 2328 
Q 359 3453 968 4101 
Q 1578 4750 2638 4750 
Q 3056 4750 3426 4639 
Q 3797 4528 4122 4306 
z
" transform="scale(0.015625)"/>
     </defs>
     <use xlink:href="#DejaVuSans-43"/>
    </g>
   </g>
  </g>
 </g>
 <defs>
  <clipPath id="p862feb11ff">
   <rect x="0" y="0" width="386.876" height="162.534"/>
  </clipPath>
 </defs>
</svg>