<?xml version="1.0" encoding="utf-8" standalone="no"?>
<!DOCTYPE svg PUBLIC "-//W3C//DTD SVG 1.1//EN"
  "http://www.w3.org/Graphics/SVG/1.1/DTD/svg11.dtd">
<svg xmlns:xlink="http://www.w3.org/1999/xlink" width="395.671875pt" height="162.534pt" viewBox="0 0 395.671875 162.534" xmlns="http://www.w3.org/2000/svg" version="1.1">
 <metadata>
  <rdf:RDF xmlns:dc="http://purl.org/dc/elements/1.1/" xmlns:cc="http://creativecommons.org/ns#" xmlns:rdf="http://www.w3.org/1999/02/22-rdf-syntax-ns#">
   <cc:Work>
    <dc:type rdf:resource="http://purl.org/dc/dcmitype/StillImage"/>
    <dc:date>2024-10-04T12:08:54.817950</dc:date>
    <dc:format>image/svg+xml</dc:format>
    <dc:creator>
     <cc:Agent>
      <dc:title>Matplotlib v3.9.2, https://matplotlib.org/</dc:title>
     </cc:Agent>
    </dc:creator>
   </cc:Work>
  </rdf:RDF>
 </metadata>
 <defs>
  <style type="text/css">*{stroke-linejoin: round; stroke-linecap: butt}</style>
 </defs>
 <g id="figure_1">
  <g id="patch_1">
   <path d="M 0 162.534 
L 395.671875 162.534 
L 395.671875 0 
L 0 0 
z
" style="fill: #ffffff"/>
  </g>
  <g id="axes_1">
   <g id="patch_2">
    <path d="M 48.991875 98.814 
C 53.765531 98.814 58.344313 96.917406 61.719797 93.541922 
C 65.095281 90.166438 66.991875 85.587656 66.991875 80.814 
C 66.991875 76.040344 65.095281 71.461562 61.719797 68.086078 
C 58.344313 64.710594 53.765531 62.814 48.991875 62.814 
C 44.218219 62.814 39.639437 64.710594 36.263953 68.086078 
C 32.888469 71.461562 30.991875 76.040344 30.991875 80.814 
C 30.991875 85.587656 32.888469 90.166438 36.263953 93.541922 
C 39.639437 96.917406 44.218219 98.814 48.991875 98.814 
L 48.991875 98.814 
z
" clip-path="url(#pc68f0840ca)" style="fill: none; stroke: #000000; stroke-width: 2; stroke-linejoin: miter"/>
   </g>
   <g id="patch_3">
    <path d="M 372.991875 98.814 
C 377.765531 98.814 382.344313 96.917406 385.719797 93.541922 
C 389.095281 90.166438 390.991875 85.587656 390.991875 80.814 
C 390.991875 76.040344 389.095281 71.461562 385.719797 68.086078 
C 382.344313 64.710594 377.765531 62.814 372.991875 62.814 
C 368.218219 62.814 363.639437 64.710594 360.263953 68.086078 
C 356.888469 71.461562 354.991875 76.040344 354.991875 80.814 
C 354.991875 85.587656 356.888469 90.166438 360.263953 93.541922 
C 363.639437 96.917406 368.218219 98.814 372.991875 98.814 
L 372.991875 98.814 
z
" clip-path="url(#pc68f0840ca)" style="fill: none; stroke: #000000; stroke-width: 2; stroke-linejoin: miter"/>
   </g>
   <g id="line2d_1">
    <path d="M 48.991875 134.814 
L 48.991875 98.814 
L 48.991875 98.814 
M 48.991875 62.814 
L 48.991875 62.814 
L 48.991875 26.814 
" clip-path="url(#pc68f0840ca)" style="fill: none; stroke: #000000; stroke-width: 2; stroke-linecap: round"/>
   </g>
   <g id="line2d_2">
    <path d="M 52.591875 89.814 
L 45.391875 89.814 
" clip-path="url(#pc68f0840ca)" style="fill: none; stroke: #000000; stroke-width: 2; stroke-linecap: round"/>
   </g>
   <g id="line2d_3">
    <path d="M 48.991875 75.414 
L 48.991875 68.214 
" clip-path="url(#pc68f0840ca)" style="fill: none; stroke: #000000; stroke-width: 2; stroke-linecap: round"/>
   </g>
   <g id="line2d_4">
    <path d="M 52.591875 71.814 
L 45.391875 71.814 
" clip-path="url(#pc68f0840ca)" style="fill: none; stroke: #000000; stroke-width: 2; stroke-linecap: round"/>
   </g>
   <g id="line2d_5">
    <path d="M 48.991875 26.814 
L 84.991875 26.814 
L 87.991875 17.814 
L 93.991875 35.814 
L 99.991875 17.814 
L 105.991875 35.814 
L 111.991875 17.814 
L 117.991875 35.814 
L 120.991875 26.814 
L 156.991875 26.814 
" clip-path="url(#pc68f0840ca)" style="fill: none; stroke: #000000; stroke-width: 2; stroke-linecap: round"/>
   </g>
   <g id="line2d_6">
    <path d="M 156.991875 26.814 
L 192.991875 26.814 
L 195.991875 17.814 
L 201.991875 35.814 
L 207.991875 17.814 
L 213.991875 35.814 
L 219.991875 17.814 
L 225.991875 35.814 
L 228.991875 26.814 
L 264.991875 26.814 
" clip-path="url(#pc68f0840ca)" style="fill: none; stroke: #000000; stroke-width: 2; stroke-linecap: round"/>
   </g>
   <g id="line2d_7">
    <path d="M 264.991875 26.814 
L 318.991875 26.814 
L 372.991875 26.814 
" clip-path="url(#pc68f0840ca)" style="fill: none; stroke: #000000; stroke-width: 2; stroke-linecap: round"/>
   </g>
   <g id="line2d_8">
    <path d="M 48.991875 134.814 
L 102.991875 134.814 
L 156.991875 134.814 
" clip-path="url(#pc68f0840ca)" style="fill: none; stroke: #000000; stroke-width: 2; stroke-linecap: round"/>
   </g>
   <g id="line2d_9">
    <path d="M 156.991875 134.814 
L 210.991875 134.814 
L 264.991875 134.814 
" clip-path="url(#pc68f0840ca)" style="fill: none; stroke: #000000; stroke-width: 2; stroke-linecap: round"/>
   </g>
   <g id="line2d_10">
    <path d="M 264.991875 134.814 
L 264.991875 149.214 
L 255.991875 149.214 
L 273.991875 149.214 
M 258.691875 153.534 
L 271.291875 153.534 
M 263.191875 157.854 
L 266.791875 157.854 
" clip-path="url(#pc68f0840ca)" style="fill: none; stroke: #000000; stroke-width: 2; stroke-linecap: round"/>
   </g>
   <g id="line2d_11">
    <path d="M 264.991875 134.814 
L 318.991875 134.814 
L 372.991875 134.814 
" clip-path="url(#pc68f0840ca)" style="fill: none; stroke: #000000; stroke-width: 2; stroke-linecap: round"/>
   </g>
   <g id="line2d_12">
    <path d="M 372.991875 134.814 
L 372.991875 98.814 
L 372.991875 98.814 
M 372.991875 62.814 
L 372.991875 62.814 
L 372.991875 26.814 
" clip-path="url(#pc68f0840ca)" style="fill: none; stroke: #000000; stroke-width: 2; stroke-linecap: round"/>
   </g>
   <g id="line2d_13">
    <path d="M 372.991875 89.814 
L 372.991875 80.814 
" clip-path="url(#pc68f0840ca)" style="fill: none; stroke: #000000; stroke-width: 2; stroke-linecap: round"/>
   </g>
   <g id="patch_4">
    <path d="M 370.291875 80.814 
L 372.991875 71.814 
L 375.691875 80.814 
z
" clip-path="url(#pc68f0840ca)"/>
   </g>
   <g id="line2d_14">
    <path d="M 156.991875 26.814 
L 156.991875 62.814 
L 165.991875 65.814 
L 147.991875 71.814 
L 165.991875 77.814 
L 147.991875 83.814 
L 165.991875 89.814 
L 147.991875 95.814 
L 156.991875 98.814 
L 156.991875 134.814 
" clip-path="url(#pc68f0840ca)" style="fill: none; stroke: #000000; stroke-width: 2; stroke-linecap: round"/>
   </g>
   <g id="line2d_15">
    <path d="M 264.991875 26.814 
L 264.991875 62.814 
L 273.991875 65.814 
L 255.991875 71.814 
L 273.991875 77.814 
L 255.991875 83.814 
L 273.991875 89.814 
L 255.991875 95.814 
L 264.991875 98.814 
L 264.991875 134.814 
" clip-path="url(#pc68f0840ca)" style="fill: none; stroke: #000000; stroke-width: 2; stroke-linecap: round"/>
   </g>
   <g id="text_1">
    <!-- 12V -->
    <g transform="translate(-0 84.677125) scale(0.14 -0.14)">
     <defs>
      <path id="DejaVuSans-31" d="M 794 531 
L 1825 531 
L 1825 4091 
L 703 3866 
L 703 4441 
L 1819 4666 
L 2450 4666 
L 2450 531 
L 3481 531 
L 3481 0 
L 794 0 
L 794 531 
z
" transform="scale(0.015625)"/>
      <path id="DejaVuSans-32" d="M 1228 531 
L 3431 531 
L 3431 0 
L 469 0 
L 469 531 
Q 828 903 1448 1529 
Q 2069 2156 2228 2338 
Q 2531 2678 2651 2914 
Q 2772 3150 2772 3378 
Q 2772 3750 2511 3984 
Q 2250 4219 1831 4219 
Q 1534 4219 1204 4116 
Q 875 4013 500 3803 
L 500 4441 
Q 881 4594 1212 4672 
Q 1544 4750 1819 4750 
Q 2544 4750 2975 4387 
Q 3406 4025 3406 3419 
Q 3406 3131 3298 2873 
Q 3191 2616 2906 2266 
Q 2828 2175 2409 1742 
Q 1991 1309 1228 531 
z
" transform="scale(0.015625)"/>
      <path id="DejaVuSans-56" d="M 1831 0 
L 50 4666 
L 709 4666 
L 2188 738 
L 3669 4666 
L 4325 4666 
L 2547 0 
L 1831 0 
z
" transform="scale(0.015625)"/>
     </defs>
     <use xlink:href="#DejaVuSans-31"/>
     <use xlink:href="#DejaVuSans-32" x="63.623047"/>
     <use xlink:href="#DejaVuSans-56" x="127.246094"/>
    </g>
   </g>
   <g id="text_2">
    <!-- R1=2立 -->
    <g transform="translate(78.005156 11.302438) scale(0.14 -0.14)">
     <defs>
      <path id="DejaVuSans-52" d="M 2841 2188 
Q 3044 2119 3236 1894 
Q 3428 1669 3622 1275 
L 4263 0 
L 3584 0 
L 2988 1197 
Q 2756 1666 2539 1819 
Q 2322 1972 1947 1972 
L 1259 1972 
L 1259 0 
L 628 0 
L 628 4666 
L 2053 4666 
Q 2853 4666 3247 4331 
Q 3641 3997 3641 3322 
Q 3641 2881 3436 2590 
Q 3231 2300 2841 2188 
z
M 1259 4147 
L 1259 2491 
L 2053 2491 
Q 2509 2491 2742 2702 
Q 2975 2913 2975 3322 
Q 2975 3731 2742 3939 
Q 2509 4147 2053 4147 
L 1259 4147 
z
" transform="scale(0.015625)"/>
      <path id="DejaVuSans-3d" d="M 678 2906 
L 4684 2906 
L 4684 2381 
L 678 2381 
L 678 2906 
z
M 678 1631 
L 4684 1631 
L 4684 1100 
L 678 1100 
L 678 1631 
z
" transform="scale(0.015625)"/>
      <path id="DejaVuSans-3a9" d="M 4647 556 
L 4647 0 
L 2772 0 
L 2772 556 
Q 3325 859 3634 1378 
Q 3944 1897 3944 2528 
Q 3944 3278 3531 3731 
Q 3119 4184 2444 4184 
Q 1769 4184 1355 3729 
Q 941 3275 941 2528 
Q 941 1897 1250 1378 
Q 1563 859 2119 556 
L 2119 0 
L 244 0 
L 244 556 
L 1241 556 
Q 747 991 519 1456 
Q 294 1922 294 2497 
Q 294 3491 894 4106 
Q 1491 4722 2444 4722 
Q 3391 4722 3994 4106 
Q 4594 3494 4594 2528 
Q 4594 1922 4372 1459 
Q 4150 997 3647 556 
L 4647 556 
z
" transform="scale(0.015625)"/>
     </defs>
     <use xlink:href="#DejaVuSans-52"/>
     <use xlink:href="#DejaVuSans-31" x="69.482422"/>
     <use xlink:href="#DejaVuSans-3d" x="133.105469"/>
     <use xlink:href="#DejaVuSans-32" x="216.894531"/>
     <use xlink:href="#DejaVuSans-3a9" x="280.517578"/>
    </g>
   </g>
   <g id="text_3">
    <!-- R3=5立 -->
    <g transform="translate(186.005156 11.302438) scale(0.14 -0.14)">
     <defs>
      <path id="DejaVuSans-33" d="M 2597 2516 
Q 3050 2419 3304 2112 
Q 3559 1806 3559 1356 
Q 3559 666 3084 287 
Q 2609 -91 1734 -91 
Q 1441 -91 1130 -33 
Q 819 25 488 141 
L 488 750 
Q 750 597 1062 519 
Q 1375 441 1716 441 
Q 2309 441 2620 675 
Q 2931 909 2931 1356 
Q 2931 1769 2642 2001 
Q 2353 2234 1838 2234 
L 1294 2234 
L 1294 2753 
L 1863 2753 
Q 2328 2753 2575 2939 
Q 2822 3125 2822 3475 
Q 2822 3834 2567 4026 
Q 2313 4219 1838 4219 
Q 1578 4219 1281 4162 
Q 984 4106 628 3988 
L 628 4550 
Q 988 4650 1302 4700 
Q 1616 4750 1894 4750 
Q 2613 4750 3031 4423 
Q 3450 4097 3450 3541 
Q 3450 3153 3228 2886 
Q 3006 2619 2597 2516 
z
" transform="scale(0.015625)"/>
      <path id="DejaVuSans-35" d="M 691 4666 
L 3169 4666 
L 3169 4134 
L 1269 4134 
L 1269 2991 
Q 1406 3038 1543 3061 
Q 1681 3084 1819 3084 
Q 2600 3084 3056 2656 
Q 3513 2228 3513 1497 
Q 3513 744 3044 326 
Q 2575 -91 1722 -91 
Q 1428 -91 1123 -41 
Q 819 9 494 109 
L 494 744 
Q 775 591 1075 516 
Q 1375 441 1709 441 
Q 2250 441 2565 725 
Q 2881 1009 2881 1497 
Q 2881 1984 2565 2268 
Q 2250 2553 1709 2553 
Q 1456 2553 1204 2497 
Q 953 2441 691 2322 
L 691 4666 
z
" transform="scale(0.015625)"/>
     </defs>
     <use xlink:href="#DejaVuSans-52"/>
     <use xlink:href="#DejaVuSans-33" x="69.482422"/>
     <use xlink:href="#DejaVuSans-3d" x="133.105469"/>
     <use xlink:href="#DejaVuSans-35" x="216.894531"/>
     <use xlink:href="#DejaVuSans-3a9" x="280.517578"/>
    </g>
   </g>
   <g id="text_4">
    <!-- 5A -->
    <g transform="translate(332.9075 84.677125) scale(0.14 -0.14)">
     <defs>
      <path id="DejaVuSans-41" d="M 2188 4044 
L 1331 1722 
L 3047 1722 
L 2188 4044 
z
M 1831 4666 
L 2547 4666 
L 4325 0 
L 3669 0 
L 3244 1197 
L 1141 1197 
L 716 0 
L 50 0 
L 1831 4666 
z
" transform="scale(0.015625)"/>
     </defs>
     <use xlink:href="#DejaVuSans-35"/>
     <use xlink:href="#DejaVuSans-41" x="63.623047"/>
    </g>
   </g>
   <g id="text_5">
    <!-- R2=3立 -->
    <g transform="translate(94.418437 84.677125) scale(0.14 -0.14)">
     <use xlink:href="#DejaVuSans-52"/>
     <use xlink:href="#DejaVuSans-32" x="69.482422"/>
     <use xlink:href="#DejaVuSans-3d" x="133.105469"/>
     <use xlink:href="#DejaVuSans-33" x="216.894531"/>
     <use xlink:href="#DejaVuSans-3a9" x="280.517578"/>
    </g>
   </g>
   <g id="text_6">
    <!-- R4=4立 -->
    <g transform="translate(202.418437 84.677125) scale(0.14 -0.14)">
     <defs>
      <path id="DejaVuSans-34" d="M 2419 4116 
L 825 1625 
L 2419 1625 
L 2419 4116 
z
M 2253 4666 
L 3047 4666 
L 3047 1625 
L 3713 1625 
L 3713 1100 
L 3047 1100 
L 3047 0 
L 2419 0 
L 2419 1100 
L 313 1100 
L 313 1709 
L 2253 4666 
z
" transform="scale(0.015625)"/>
     </defs>
     <use xlink:href="#DejaVuSans-52"/>
     <use xlink:href="#DejaVuSans-34" x="69.482422"/>
     <use xlink:href="#DejaVuSans-3d" x="133.105469"/>
     <use xlink:href="#DejaVuSans-34" x="216.894531"/>
     <use xlink:href="#DejaVuSans-3a9" x="280.517578"/>
    </g>
   </g>
   <g id="patch_5">
    <path d="M 48.991875 29.514 
C 49.707923 29.514 50.394741 29.229511 50.901063 28.723188 
C 51.407386 28.216866 51.691875 27.530048 51.691875 26.814 
C 51.691875 26.097952 51.407386 25.411134 50.901063 24.904812 
C 50.394741 24.398489 49.707923 24.114 48.991875 24.114 
C 48.275827 24.114 47.589009 24.398489 47.082687 24.904812 
C 46.576364 25.411134 46.291875 26.097952 46.291875 26.814 
C 46.291875 27.530048 46.576364 28.216866 47.082687 28.723188 
C 47.589009 29.229511 48.275827 29.514 48.991875 29.514 
z
" clip-path="url(#pc68f0840ca)" style="stroke: #000000; stroke-width: 2; stroke-linejoin: miter"/>
   </g>
   <g id="text_7">
    <!-- A -->
    <g transform="translate(44.203437 17.602438) scale(0.14 -0.14)">
     <use xlink:href="#DejaVuSans-41"/>
    </g>
   </g>
   <g id="patch_6">
    <path d="M 156.991875 29.514 
C 157.707923 29.514 158.394741 29.229511 158.901063 28.723188 
C 159.407386 28.216866 159.691875 27.530048 159.691875 26.814 
C 159.691875 26.097952 159.407386 25.411134 158.901063 24.904812 
C 158.394741 24.398489 157.707923 24.114 156.991875 24.114 
C 156.275827 24.114 155.589009 24.398489 155.082687 24.904812 
C 154.576364 25.411134 154.291875 26.097952 154.291875 26.814 
C 154.291875 27.530048 154.576364 28.216866 155.082687 28.723188 
C 155.589009 29.229511 156.275827 29.514 156.991875 29.514 
z
" clip-path="url(#pc68f0840ca)" style="stroke: #000000; stroke-width: 2; stroke-linejoin: miter"/>
   </g>
   <g id="text_8">
    <!-- B -->
    <g transform="translate(152.189219 17.602438) scale(0.14 -0.14)">
     <defs>
      <path id="DejaVuSans-42" d="M 1259 2228 
L 1259 519 
L 2272 519 
Q 2781 519 3026 730 
Q 3272 941 3272 1375 
Q 3272 1813 3026 2020 
Q 2781 2228 2272 2228 
L 1259 2228 
z
M 1259 4147 
L 1259 2741 
L 2194 2741 
Q 2656 2741 2882 2914 
Q 3109 3088 3109 3444 
Q 3109 3797 2882 3972 
Q 2656 4147 2194 4147 
L 1259 4147 
z
M 628 4666 
L 2241 4666 
Q 2963 4666 3353 4366 
Q 3744 4066 3744 3513 
Q 3744 3084 3544 2831 
Q 3344 2578 2956 2516 
Q 3422 2416 3680 2098 
Q 3938 1781 3938 1306 
Q 3938 681 3513 340 
Q 3088 0 2303 0 
L 628 0 
L 628 4666 
z
" transform="scale(0.015625)"/>
     </defs>
     <use xlink:href="#DejaVuSans-42"/>
    </g>
   </g>
   <g id="patch_7">
    <path d="M 264.991875 29.514 
C 265.707923 29.514 266.394741 29.229511 266.901063 28.723188 
C 267.407386 28.216866 267.691875 27.530048 267.691875 26.814 
C 267.691875 26.097952 267.407386 25.411134 266.901063 24.904812 
C 266.394741 24.398489 265.707923 24.114 264.991875 24.114 
C 264.275827 24.114 263.589009 24.398489 263.082687 24.904812 
C 262.576364 25.411134 262.291875 26.097952 262.291875 26.814 
C 262.291875 27.530048 262.576364 28.216866 263.082687 28.723188 
C 263.589009 29.229511 264.275827 29.514 264.991875 29.514 
z
" clip-path="url(#pc68f0840ca)" style="stroke: #000000; stroke-width: 2; stroke-linejoin: miter"/>
   </g>
   <g id="text_9">
    <!-- C -->
    <g transform="translate(260.103906 17.602438) scale(0.14 -0.14)">
     <defs>
      <path id="DejaVuSans-43" d="M 4122 4306 
L 4122 3641 
Q 3803 3938 3442 4084 
Q 3081 4231 2675 4231 
Q 1875 4231 1450 3742 
Q 1025 3253 1025 2328 
Q 1025 1406 1450 917 
Q 1875 428 2675 428 
Q 3081 428 3442 575 
Q 3803 722 4122 1019 
L 4122 359 
Q 3791 134 3420 21 
Q 3050 -91 2638 -91 
Q 1578 -91 968 557 
Q 359 1206 359 2328 
Q 359 3453 968 4101 
Q 1578 4750 2638 4750 
Q 3056 4750 3426 4639 
Q 3797 4528 4122 4306 
z
" transform="scale(0.015625)"/>
     </defs>
     <use xlink:href="#DejaVuSans-43"/>
    </g>
   </g>
  </g>
 </g>
 <defs>
  <clipPath id="pc68f0840ca">
   <rect x="2.523875" y="0" width="393.148" height="162.534"/>
  </clipPath>
 </defs>
</svg>