<?xml version="1.0" encoding="utf-8" standalone="no"?>
<!DOCTYPE svg PUBLIC "-//W3C//DTD SVG 1.1//EN"
  "http://www.w3.org/Graphics/SVG/1.1/DTD/svg11.dtd">
<svg xmlns:xlink="http://www.w3.org/1999/xlink" width="338.166562pt" height="163.134375pt" viewBox="0 0 338.166562 163.134375" xmlns="http://www.w3.org/2000/svg" version="1.1">
 <metadata>
  <rdf:RDF xmlns:dc="http://purl.org/dc/elements/1.1/" xmlns:cc="http://creativecommons.org/ns#" xmlns:rdf="http://www.w3.org/1999/02/22-rdf-syntax-ns#">
   <cc:Work>
    <dc:type rdf:resource="http://purl.org/dc/dcmitype/StillImage"/>
    <dc:date>2024-10-24T14:42:53.537301</dc:date>
    <dc:format>image/svg+xml</dc:format>
    <dc:creator>
     <cc:Agent>
      <dc:title>Matplotlib v3.9.2, https://matplotlib.org/</dc:title>
     </cc:Agent>
    </dc:creator>
   </cc:Work>
  </rdf:RDF>
 </metadata>
 <defs>
  <style type="text/css">*{stroke-linejoin: round; stroke-linecap: butt}</style>
 </defs>
 <g id="figure_1">
  <g id="patch_1">
   <path d="M 0 163.134375 
L 338.166562 163.134375 
L 338.166562 0 
L 0 0 
z
" style="fill: #ffffff"/>
  </g>
  <g id="axes_1">
   <g id="patch_2">
    <path d="M 70.146563 104.454375 
C 73.488122 104.454375 76.693269 103.12676 79.056108 100.76392 
C 81.418947 98.401081 82.746562 95.195934 82.746562 91.854375 
C 82.746562 88.512816 81.418947 85.307669 79.056108 82.94483 
C 76.693269 80.58199 73.488122 79.254375 70.146563 79.254375 
C 66.805003 79.254375 63.599856 80.58199 61.237017 82.94483 
C 58.874178 85.307669 57.546563 88.512816 57.546563 91.854375 
C 57.546563 95.195934 58.874178 98.401081 61.237017 100.76392 
C 63.599856 103.12676 66.805003 104.454375 70.146563 104.454375 
L 70.146563 104.454375 
z
" clip-path="url(#p5e2cea69ff)" style="fill: none; stroke: #000000; stroke-width: 2; stroke-linejoin: miter"/>
   </g>
   <g id="patch_3">
    <path d="M 232.146562 158.454375 
C 235.488122 158.454375 238.693269 157.12676 241.056108 154.76392 
C 243.418947 152.401081 244.746562 149.195934 244.746562 145.854375 
C 244.746562 142.512816 243.418947 139.307669 241.056108 136.94483 
C 238.693269 134.58199 235.488122 133.254375 232.146562 133.254375 
C 228.805003 133.254375 225.599856 134.58199 223.237017 136.94483 
C 220.874178 139.307669 219.546562 142.512816 219.546562 145.854375 
C 219.546562 149.195934 220.874178 152.401081 223.237017 154.76392 
C 225.599856 157.12676 228.805003 158.454375 232.146562 158.454375 
L 232.146562 158.454375 
z
" clip-path="url(#p5e2cea69ff)" style="fill: none; stroke: #000000; stroke-width: 2; stroke-linejoin: miter"/>
   </g>
   <g id="patch_4">
    <path d="M 250.146562 50.454375 
C 253.488122 50.454375 256.693269 49.12676 259.056108 46.76392 
C 261.418947 44.401081 262.746562 41.195934 262.746562 37.854375 
C 262.746562 34.512816 261.418947 31.307669 259.056108 28.94483 
C 256.693269 26.58199 253.488122 25.254375 250.146562 25.254375 
C 246.805003 25.254375 243.599856 26.58199 241.237017 28.94483 
C 238.874178 31.307669 237.546562 34.512816 237.546562 37.854375 
C 237.546562 41.195934 238.874178 44.401081 241.237017 46.76392 
C 243.599856 49.12676 246.805003 50.454375 250.146562 50.454375 
L 250.146562 50.454375 
z
" clip-path="url(#p5e2cea69ff)" style="fill: none; stroke: #000000; stroke-width: 2; stroke-linejoin: miter"/>
   </g>
   <g id="line2d_1">
    <path d="M 70.146563 145.854375 
L 70.146563 104.454375 
L 70.146563 104.454375 
M 70.146563 79.254375 
L 70.146563 79.254375 
L 70.146563 37.854375 
" clip-path="url(#p5e2cea69ff)" style="fill: none; stroke: #000000; stroke-width: 2; stroke-linecap: round"/>
   </g>
   <g id="line2d_2">
    <path d="M 72.666562 98.154375 
L 67.626563 98.154375 
" clip-path="url(#p5e2cea69ff)" style="fill: none; stroke: #000000; stroke-width: 2; stroke-linecap: round"/>
   </g>
   <g id="line2d_3">
    <path d="M 70.146563 88.074375 
L 70.146563 83.034375 
" clip-path="url(#p5e2cea69ff)" style="fill: none; stroke: #000000; stroke-width: 2; stroke-linecap: round"/>
   </g>
   <g id="line2d_4">
    <path d="M 72.666562 85.554375 
L 67.626563 85.554375 
" clip-path="url(#p5e2cea69ff)" style="fill: none; stroke: #000000; stroke-width: 2; stroke-linecap: round"/>
   </g>
   <g id="line2d_5">
    <path d="M 70.146563 37.854375 
L 88.146563 37.854375 
L 88.146563 31.554375 
L 124.146563 31.554375 
L 124.146563 44.154375 
L 88.146563 44.154375 
L 88.146563 37.854375 
M 124.146563 37.854375 
L 142.146562 37.854375 
" clip-path="url(#p5e2cea69ff)" style="fill: none; stroke: #000000; stroke-width: 2; stroke-linecap: round"/>
   </g>
   <g id="line2d_6">
    <path d="M 70.146563 145.854375 
L 106.146562 145.854375 
L 106.146562 139.554375 
L 142.146562 139.554375 
L 142.146562 152.154375 
L 106.146562 152.154375 
L 106.146562 145.854375 
M 142.146562 145.854375 
L 178.146562 145.854375 
" clip-path="url(#p5e2cea69ff)" style="fill: none; stroke: #000000; stroke-width: 2; stroke-linecap: round"/>
   </g>
   <g id="line2d_7">
    <path d="M 178.146562 145.854375 
L 219.546562 145.854375 
L 219.546562 145.854375 
M 244.746562 145.854375 
L 244.746562 145.854375 
L 286.146562 145.854375 
" clip-path="url(#p5e2cea69ff)" style="fill: none; stroke: #000000; stroke-width: 2; stroke-linecap: round"/>
   </g>
   <g id="line2d_8">
    <path d="M 238.446562 143.334375 
L 238.446562 148.374375 
" clip-path="url(#p5e2cea69ff)" style="fill: none; stroke: #000000; stroke-width: 2; stroke-linecap: round"/>
   </g>
   <g id="line2d_9">
    <path d="M 223.326562 145.854375 
L 228.366562 145.854375 
" clip-path="url(#p5e2cea69ff)" style="fill: none; stroke: #000000; stroke-width: 2; stroke-linecap: round"/>
   </g>
   <g id="line2d_10">
    <path d="M 225.846563 143.334375 
L 225.846563 148.374375 
" clip-path="url(#p5e2cea69ff)" style="fill: none; stroke: #000000; stroke-width: 2; stroke-linecap: round"/>
   </g>
   <g id="line2d_11">
    <path d="M 286.146562 145.854375 
L 286.146562 109.854375 
L 279.846562 109.854375 
L 279.846562 73.854375 
L 292.446562 73.854375 
L 292.446562 109.854375 
L 286.146562 109.854375 
M 286.146562 73.854375 
L 286.146562 37.854375 
" clip-path="url(#p5e2cea69ff)" style="fill: none; stroke: #000000; stroke-width: 2; stroke-linecap: round"/>
   </g>
   <g id="line2d_12">
    <path d="M 286.146562 37.854375 
L 262.746562 37.854375 
L 262.746562 37.854375 
M 237.546562 37.854375 
L 237.546562 37.854375 
L 214.146562 37.854375 
" clip-path="url(#p5e2cea69ff)" style="fill: none; stroke: #000000; stroke-width: 2; stroke-linecap: round"/>
   </g>
   <g id="line2d_13">
    <path d="M 243.846562 40.374375 
L 243.846562 35.334375 
" clip-path="url(#p5e2cea69ff)" style="fill: none; stroke: #000000; stroke-width: 2; stroke-linecap: round"/>
   </g>
   <g id="line2d_14">
    <path d="M 258.966562 37.854375 
L 253.926562 37.854375 
" clip-path="url(#p5e2cea69ff)" style="fill: none; stroke: #000000; stroke-width: 2; stroke-linecap: round"/>
   </g>
   <g id="line2d_15">
    <path d="M 256.446562 40.374375 
L 256.446562 35.334375 
" clip-path="url(#p5e2cea69ff)" style="fill: none; stroke: #000000; stroke-width: 2; stroke-linecap: round"/>
   </g>
   <g id="text_1">
    <!-- v1=45v -->
    <g transform="translate(0 95.7175) scale(0.14 -0.14)">
     <defs>
      <path id="DejaVuSans-76" d="M 191 3500 
L 800 3500 
L 1894 563 
L 2988 3500 
L 3597 3500 
L 2284 0 
L 1503 0 
L 191 3500 
z
" transform="scale(0.015625)"/>
      <path id="DejaVuSans-31" d="M 794 531 
L 1825 531 
L 1825 4091 
L 703 3866 
L 703 4441 
L 1819 4666 
L 2450 4666 
L 2450 531 
L 3481 531 
L 3481 0 
L 794 0 
L 794 531 
z
" transform="scale(0.015625)"/>
      <path id="DejaVuSans-3d" d="M 678 2906 
L 4684 2906 
L 4684 2381 
L 678 2381 
L 678 2906 
z
M 678 1631 
L 4684 1631 
L 4684 1100 
L 678 1100 
L 678 1631 
z
" transform="scale(0.015625)"/>
      <path id="DejaVuSans-34" d="M 2419 4116 
L 825 1625 
L 2419 1625 
L 2419 4116 
z
M 2253 4666 
L 3047 4666 
L 3047 1625 
L 3713 1625 
L 3713 1100 
L 3047 1100 
L 3047 0 
L 2419 0 
L 2419 1100 
L 313 1100 
L 313 1709 
L 2253 4666 
z
" transform="scale(0.015625)"/>
      <path id="DejaVuSans-35" d="M 691 4666 
L 3169 4666 
L 3169 4134 
L 1269 4134 
L 1269 2991 
Q 1406 3038 1543 3061 
Q 1681 3084 1819 3084 
Q 2600 3084 3056 2656 
Q 3513 2228 3513 1497 
Q 3513 744 3044 326 
Q 2575 -91 1722 -91 
Q 1428 -91 1123 -41 
Q 819 9 494 109 
L 494 744 
Q 775 591 1075 516 
Q 1375 441 1709 441 
Q 2250 441 2565 725 
Q 2881 1009 2881 1497 
Q 2881 1984 2565 2268 
Q 2250 2553 1709 2553 
Q 1456 2553 1204 2497 
Q 953 2441 691 2322 
L 691 4666 
z
" transform="scale(0.015625)"/>
     </defs>
     <use xlink:href="#DejaVuSans-76"/>
     <use xlink:href="#DejaVuSans-31" x="59.179688"/>
     <use xlink:href="#DejaVuSans-3d" x="122.802734"/>
     <use xlink:href="#DejaVuSans-34" x="206.591797"/>
     <use xlink:href="#DejaVuSans-35" x="270.214844"/>
     <use xlink:href="#DejaVuSans-76" x="333.837891"/>
    </g>
   </g>
   <g id="text_2">
    <!-- + -->
    <g transform="translate(83.956719 26.954687) scale(0.1 -0.1)">
     <defs>
      <path id="DejaVuSans-2b" d="M 2944 4013 
L 2944 2272 
L 4684 2272 
L 4684 1741 
L 2944 1741 
L 2944 0 
L 2419 0 
L 2419 1741 
L 678 1741 
L 678 2272 
L 2419 2272 
L 2419 4013 
L 2944 4013 
z
" transform="scale(0.015625)"/>
     </defs>
     <use xlink:href="#DejaVuSans-2b"/>
    </g>
   </g>
   <g id="text_3">
    <!--  -->
    <g transform="translate(106.146563 7.598437) scale(0.1 -0.1)"/>
    <!-- v2=15v -->
    <g transform="translate(86.494219 17.276562) scale(0.1 -0.1)">
     <defs>
      <path id="DejaVuSans-32" d="M 1228 531 
L 3431 531 
L 3431 0 
L 469 0 
L 469 531 
Q 828 903 1448 1529 
Q 2069 2156 2228 2338 
Q 2531 2678 2651 2914 
Q 2772 3150 2772 3378 
Q 2772 3750 2511 3984 
Q 2250 4219 1831 4219 
Q 1534 4219 1204 4116 
Q 875 4013 500 3803 
L 500 4441 
Q 881 4594 1212 4672 
Q 1544 4750 1819 4750 
Q 2544 4750 2975 4387 
Q 3406 4025 3406 3419 
Q 3406 3131 3298 2873 
Q 3191 2616 2906 2266 
Q 2828 2175 2409 1742 
Q 1991 1309 1228 531 
z
" transform="scale(0.015625)"/>
     </defs>
     <use xlink:href="#DejaVuSans-76"/>
     <use xlink:href="#DejaVuSans-32" x="59.179688"/>
     <use xlink:href="#DejaVuSans-3d" x="122.802734"/>
     <use xlink:href="#DejaVuSans-31" x="206.591797"/>
     <use xlink:href="#DejaVuSans-35" x="270.214844"/>
     <use xlink:href="#DejaVuSans-76" x="333.837891"/>
    </g>
    <!--  -->
    <g transform="translate(106.146563 26.954687) scale(0.1 -0.1)"/>
   </g>
   <g id="text_4">
    <!-- - -->
    <g transform="translate(122.342656 26.954687) scale(0.1 -0.1)">
     <defs>
      <path id="DejaVuSans-2d" d="M 313 2009 
L 1997 2009 
L 1997 1497 
L 313 1497 
L 313 2009 
z
" transform="scale(0.015625)"/>
     </defs>
     <use xlink:href="#DejaVuSans-2d"/>
    </g>
   </g>
   <g id="text_5">
    <!-- + -->
    <g transform="translate(92.956719 134.954687) scale(0.1 -0.1)">
     <use xlink:href="#DejaVuSans-2b"/>
    </g>
   </g>
   <g id="text_6">
    <!--  -->
    <g transform="translate(124.146562 115.598437) scale(0.1 -0.1)"/>
    <!-- v7=30v -->
    <g transform="translate(104.494219 125.276562) scale(0.1 -0.1)">
     <defs>
      <path id="DejaVuSans-37" d="M 525 4666 
L 3525 4666 
L 3525 4397 
L 1831 0 
L 1172 0 
L 2766 4134 
L 525 4134 
L 525 4666 
z
" transform="scale(0.015625)"/>
      <path id="DejaVuSans-33" d="M 2597 2516 
Q 3050 2419 3304 2112 
Q 3559 1806 3559 1356 
Q 3559 666 3084 287 
Q 2609 -91 1734 -91 
Q 1441 -91 1130 -33 
Q 819 25 488 141 
L 488 750 
Q 750 597 1062 519 
Q 1375 441 1716 441 
Q 2309 441 2620 675 
Q 2931 909 2931 1356 
Q 2931 1769 2642 2001 
Q 2353 2234 1838 2234 
L 1294 2234 
L 1294 2753 
L 1863 2753 
Q 2328 2753 2575 2939 
Q 2822 3125 2822 3475 
Q 2822 3834 2567 4026 
Q 2313 4219 1838 4219 
Q 1578 4219 1281 4162 
Q 984 4106 628 3988 
L 628 4550 
Q 988 4650 1302 4700 
Q 1616 4750 1894 4750 
Q 2613 4750 3031 4423 
Q 3450 4097 3450 3541 
Q 3450 3153 3228 2886 
Q 3006 2619 2597 2516 
z
" transform="scale(0.015625)"/>
      <path id="DejaVuSans-30" d="M 2034 4250 
Q 1547 4250 1301 3770 
Q 1056 3291 1056 2328 
Q 1056 1369 1301 889 
Q 1547 409 2034 409 
Q 2525 409 2770 889 
Q 3016 1369 3016 2328 
Q 3016 3291 2770 3770 
Q 2525 4250 2034 4250 
z
M 2034 4750 
Q 2819 4750 3233 4129 
Q 3647 3509 3647 2328 
Q 3647 1150 3233 529 
Q 2819 -91 2034 -91 
Q 1250 -91 836 529 
Q 422 1150 422 2328 
Q 422 3509 836 4129 
Q 1250 4750 2034 4750 
z
" transform="scale(0.015625)"/>
     </defs>
     <use xlink:href="#DejaVuSans-76"/>
     <use xlink:href="#DejaVuSans-37" x="59.179688"/>
     <use xlink:href="#DejaVuSans-3d" x="122.802734"/>
     <use xlink:href="#DejaVuSans-33" x="206.591797"/>
     <use xlink:href="#DejaVuSans-30" x="270.214844"/>
     <use xlink:href="#DejaVuSans-76" x="333.837891"/>
    </g>
    <!--  -->
    <g transform="translate(124.146562 134.954687) scale(0.1 -0.1)"/>
   </g>
   <g id="text_7">
    <!-- - -->
    <g transform="translate(149.342656 134.954687) scale(0.1 -0.1)">
     <use xlink:href="#DejaVuSans-2d"/>
    </g>
   </g>
   <g id="text_8">
    <!-- v6=90v -->
    <g transform="translate(204.633281 127.822812) scale(0.14 -0.14)">
     <defs>
      <path id="DejaVuSans-36" d="M 2113 2584 
Q 1688 2584 1439 2293 
Q 1191 2003 1191 1497 
Q 1191 994 1439 701 
Q 1688 409 2113 409 
Q 2538 409 2786 701 
Q 3034 994 3034 1497 
Q 3034 2003 2786 2293 
Q 2538 2584 2113 2584 
z
M 3366 4563 
L 3366 3988 
Q 3128 4100 2886 4159 
Q 2644 4219 2406 4219 
Q 1781 4219 1451 3797 
Q 1122 3375 1075 2522 
Q 1259 2794 1537 2939 
Q 1816 3084 2150 3084 
Q 2853 3084 3261 2657 
Q 3669 2231 3669 1497 
Q 3669 778 3244 343 
Q 2819 -91 2113 -91 
Q 1303 -91 875 529 
Q 447 1150 447 2328 
Q 447 3434 972 4092 
Q 1497 4750 2381 4750 
Q 2619 4750 2861 4703 
Q 3103 4656 3366 4563 
z
" transform="scale(0.015625)"/>
      <path id="DejaVuSans-39" d="M 703 97 
L 703 672 
Q 941 559 1184 500 
Q 1428 441 1663 441 
Q 2288 441 2617 861 
Q 2947 1281 2994 2138 
Q 2813 1869 2534 1725 
Q 2256 1581 1919 1581 
Q 1219 1581 811 2004 
Q 403 2428 403 3163 
Q 403 3881 828 4315 
Q 1253 4750 1959 4750 
Q 2769 4750 3195 4129 
Q 3622 3509 3622 2328 
Q 3622 1225 3098 567 
Q 2575 -91 1691 -91 
Q 1453 -91 1209 -44 
Q 966 3 703 97 
z
M 1959 2075 
Q 2384 2075 2632 2365 
Q 2881 2656 2881 3163 
Q 2881 3666 2632 3958 
Q 2384 4250 1959 4250 
Q 1534 4250 1286 3958 
Q 1038 3666 1038 3163 
Q 1038 2656 1286 2365 
Q 1534 2075 1959 2075 
z
" transform="scale(0.015625)"/>
     </defs>
     <use xlink:href="#DejaVuSans-76"/>
     <use xlink:href="#DejaVuSans-36" x="59.179688"/>
     <use xlink:href="#DejaVuSans-3d" x="122.802734"/>
     <use xlink:href="#DejaVuSans-39" x="206.591797"/>
     <use xlink:href="#DejaVuSans-30" x="270.214844"/>
     <use xlink:href="#DejaVuSans-76" x="333.837891"/>
    </g>
   </g>
   <g id="text_9">
    <!-- + -->
    <g transform="translate(294.966562 121.61375) scale(0.1 -0.1)">
     <use xlink:href="#DejaVuSans-2b"/>
    </g>
   </g>
   <g id="text_10">
    <!-- $v5=60v$ -->
    <g transform="translate(294.966562 94.61375) scale(0.1 -0.1)">
     <defs>
      <path id="DejaVuSans-Oblique-76" d="M 459 3500 
L 1069 3500 
L 1581 525 
L 3256 3500 
L 3866 3500 
L 1875 0 
L 1100 0 
L 459 3500 
z
" transform="scale(0.015625)"/>
     </defs>
     <use xlink:href="#DejaVuSans-Oblique-76" transform="translate(0 0.78125)"/>
     <use xlink:href="#DejaVuSans-35" transform="translate(59.179688 0.78125)"/>
     <use xlink:href="#DejaVuSans-3d" transform="translate(142.285156 0.78125)"/>
     <use xlink:href="#DejaVuSans-36" transform="translate(245.556641 0.78125)"/>
     <use xlink:href="#DejaVuSans-30" transform="translate(309.179688 0.78125)"/>
     <use xlink:href="#DejaVuSans-Oblique-76" transform="translate(372.802734 0.78125)"/>
    </g>
   </g>
   <g id="text_11">
    <!-- - -->
    <g transform="translate(294.966562 67.61375) scale(0.1 -0.1)">
     <use xlink:href="#DejaVuSans-2d"/>
    </g>
   </g>
   <g id="text_12">
    <!-- v4=75v -->
    <g transform="translate(222.633281 19.822812) scale(0.14 -0.14)">
     <use xlink:href="#DejaVuSans-76"/>
     <use xlink:href="#DejaVuSans-34" x="59.179688"/>
     <use xlink:href="#DejaVuSans-3d" x="122.802734"/>
     <use xlink:href="#DejaVuSans-37" x="206.591797"/>
     <use xlink:href="#DejaVuSans-35" x="270.214844"/>
     <use xlink:href="#DejaVuSans-76" x="333.837891"/>
    </g>
   </g>
   <g id="patch_5">
    <path d="M 142.146562 40.554375 
C 142.862611 40.554375 143.549428 40.269886 144.055751 39.763563 
C 144.562073 39.257241 144.846562 38.570423 144.846562 37.854375 
C 144.846562 37.138327 144.562073 36.451509 144.055751 35.945187 
C 143.549428 35.438864 142.862611 35.154375 142.146562 35.154375 
C 141.430514 35.154375 140.743697 35.438864 140.237374 35.945187 
C 139.731052 36.451509 139.446562 37.138327 139.446562 37.854375 
C 139.446562 38.570423 139.731052 39.257241 140.237374 39.763563 
C 140.743697 40.269886 141.430514 40.554375 142.146562 40.554375 
z
" clip-path="url(#p5e2cea69ff)" style="fill: #ffffff; stroke: #000000; stroke-width: 2; stroke-linejoin: miter"/>
   </g>
   <g id="text_13">
    <!-- + -->
    <g transform="translate(135.380781 28.642812) scale(0.14 -0.14)">
     <use xlink:href="#DejaVuSans-2b"/>
    </g>
   </g>
   <g id="text_14">
    <!--                 V3 -->
    <g transform="translate(98.209375 28.642812) scale(0.14 -0.14)">
     <defs>
      <path id="DejaVuSans-20" transform="scale(0.015625)"/>
      <path id="DejaVuSans-56" d="M 1831 0 
L 50 4666 
L 709 4666 
L 2188 738 
L 3669 4666 
L 4325 4666 
L 2547 0 
L 1831 0 
z
" transform="scale(0.015625)"/>
     </defs>
     <use xlink:href="#DejaVuSans-20"/>
     <use xlink:href="#DejaVuSans-20" x="31.787109"/>
     <use xlink:href="#DejaVuSans-20" x="63.574219"/>
     <use xlink:href="#DejaVuSans-20" x="95.361328"/>
     <use xlink:href="#DejaVuSans-20" x="127.148438"/>
     <use xlink:href="#DejaVuSans-20" x="158.935547"/>
     <use xlink:href="#DejaVuSans-20" x="190.722656"/>
     <use xlink:href="#DejaVuSans-20" x="222.509766"/>
     <use xlink:href="#DejaVuSans-20" x="254.296875"/>
     <use xlink:href="#DejaVuSans-20" x="286.083984"/>
     <use xlink:href="#DejaVuSans-20" x="317.871094"/>
     <use xlink:href="#DejaVuSans-20" x="349.658203"/>
     <use xlink:href="#DejaVuSans-20" x="381.445312"/>
     <use xlink:href="#DejaVuSans-20" x="413.232422"/>
     <use xlink:href="#DejaVuSans-20" x="445.019531"/>
     <use xlink:href="#DejaVuSans-20" x="476.806641"/>
     <use xlink:href="#DejaVuSans-56" x="508.59375"/>
     <use xlink:href="#DejaVuSans-33" x="577.001953"/>
    </g>
   </g>
   <g id="patch_6">
    <path d="M 214.146562 40.554375 
C 214.862611 40.554375 215.549428 40.269886 216.055751 39.763563 
C 216.562073 39.257241 216.846562 38.570423 216.846562 37.854375 
C 216.846562 37.138327 216.562073 36.451509 216.055751 35.945187 
C 215.549428 35.438864 214.862611 35.154375 214.146562 35.154375 
C 213.430514 35.154375 212.743697 35.438864 212.237374 35.945187 
C 211.731052 36.451509 211.446562 37.138327 211.446562 37.854375 
C 211.446562 38.570423 211.731052 39.257241 212.237374 39.763563 
C 212.743697 40.269886 213.430514 40.554375 214.146562 40.554375 
z
" clip-path="url(#p5e2cea69ff)" style="fill: #ffffff; stroke: #000000; stroke-width: 2; stroke-linejoin: miter"/>
   </g>
   <g id="text_15">
    <!-- - -->
    <g transform="translate(211.621094 28.642812) scale(0.14 -0.14)">
     <use xlink:href="#DejaVuSans-2d"/>
    </g>
   </g>
  </g>
 </g>
 <defs>
  <clipPath id="p5e2cea69ff">
   <rect x="4.146563" y="4.354375" width="328.5" height="158.78"/>
  </clipPath>
 </defs>
</svg>