<?xml version="1.0" encoding="utf-8" standalone="no"?>
<!DOCTYPE svg PUBLIC "-//W3C//DTD SVG 1.1//EN"
  "http://www.w3.org/Graphics/SVG/1.1/DTD/svg11.dtd">
<svg xmlns:xlink="http://www.w3.org/1999/xlink" width="474.588pt" height="182.76pt" viewBox="0 0 474.588 182.76" xmlns="http://www.w3.org/2000/svg" version="1.1">
 <metadata>
  <rdf:RDF xmlns:dc="http://purl.org/dc/elements/1.1/" xmlns:cc="http://creativecommons.org/ns#" xmlns:rdf="http://www.w3.org/1999/02/22-rdf-syntax-ns#">
   <cc:Work>
    <dc:type rdf:resource="http://purl.org/dc/dcmitype/StillImage"/>
    <dc:date>2024-10-23T13:48:36.026460</dc:date>
    <dc:format>image/svg+xml</dc:format>
    <dc:creator>
     <cc:Agent>
      <dc:title>Matplotlib v3.9.2, https://matplotlib.org/</dc:title>
     </cc:Agent>
    </dc:creator>
   </cc:Work>
  </rdf:RDF>
 </metadata>
 <defs>
  <style type="text/css">*{stroke-linejoin: round; stroke-linecap: butt}</style>
 </defs>
 <g id="figure_1">
  <g id="patch_1">
   <path d="M 0 182.76 
L 474.588 182.76 
L 474.588 0 
L 0 0 
z
" style="fill: #ffffff"/>
  </g>
  <g id="axes_1">
   <g id="patch_2">
    <path d="M 59.628 154.48 
C 64.401656 154.48 68.980438 152.583406 72.355922 149.207922 
C 75.731406 145.832438 77.628 141.253656 77.628 136.48 
C 77.628 131.706344 75.731406 127.127562 72.355922 123.752078 
C 68.980438 120.376594 64.401656 118.48 59.628 118.48 
C 54.854344 118.48 50.275562 120.376594 46.900078 123.752078 
C 43.524594 127.127562 41.628 131.706344 41.628 136.48 
C 41.628 141.253656 43.524594 145.832438 46.900078 149.207922 
C 50.275562 152.583406 54.854344 154.48 59.628 154.48 
L 59.628 154.48 
z
" clip-path="url(#pd4b4cf4c52)" style="fill: none; stroke: #000000; stroke-width: 2; stroke-linejoin: miter"/>
   </g>
   <g id="patch_3">
    <path d="M 167.628 82.48 
C 172.401656 82.48 176.980438 80.583406 180.355922 77.207922 
C 183.731406 73.832438 185.628 69.253656 185.628 64.48 
C 185.628 59.706344 183.731406 55.127562 180.355922 51.752078 
C 176.980438 48.376594 172.401656 46.48 167.628 46.48 
C 162.854344 46.48 158.275562 48.376594 154.900078 51.752078 
C 151.524594 55.127562 149.628 59.706344 149.628 64.48 
C 149.628 69.253656 151.524594 73.832438 154.900078 77.207922 
C 158.275562 80.583406 162.854344 82.48 167.628 82.48 
L 167.628 82.48 
z
" clip-path="url(#pd4b4cf4c52)" style="fill: none; stroke: #000000; stroke-width: 2; stroke-linejoin: miter"/>
   </g>
   <g id="patch_4">
    <path d="M 275.628 154.48 
C 280.401656 154.48 284.980438 152.583406 288.355922 149.207922 
C 291.731406 145.832438 293.628 141.253656 293.628 136.48 
C 293.628 131.706344 291.731406 127.127562 288.355922 123.752078 
C 284.980438 120.376594 280.401656 118.48 275.628 118.48 
C 270.854344 118.48 266.275562 120.376594 262.900078 123.752078 
C 259.524594 127.127562 257.628 131.706344 257.628 136.48 
C 257.628 141.253656 259.524594 145.832438 262.900078 149.207922 
C 266.275562 152.583406 270.854344 154.48 275.628 154.48 
L 275.628 154.48 
z
" clip-path="url(#pd4b4cf4c52)" style="fill: none; stroke: #000000; stroke-width: 2; stroke-linejoin: miter"/>
   </g>
   <g id="line2d_1">
    <path d="M 59.628 28.48 
L 59.628 46.48 
L 68.628 49.48 
L 50.628 55.48 
L 68.628 61.48 
L 50.628 67.48 
L 68.628 73.48 
L 50.628 79.48 
L 59.628 82.48 
L 59.628 100.48 
" clip-path="url(#pd4b4cf4c52)" style="fill: none; stroke: #000000; stroke-width: 2; stroke-linecap: round"/>
   </g>
   <g id="line2d_2">
    <path d="M 59.628 100.48 
L 59.628 118.48 
L 59.628 118.48 
M 59.628 154.48 
L 59.628 154.48 
L 59.628 172.48 
" clip-path="url(#pd4b4cf4c52)" style="fill: none; stroke: #000000; stroke-width: 2; stroke-linecap: round"/>
   </g>
   <g id="line2d_3">
    <path d="M 63.228 145.48 
L 56.028 145.48 
" clip-path="url(#pd4b4cf4c52)" style="fill: none; stroke: #000000; stroke-width: 2; stroke-linecap: round"/>
   </g>
   <g id="line2d_4">
    <path d="M 59.628 123.88 
L 59.628 131.08 
" clip-path="url(#pd4b4cf4c52)" style="fill: none; stroke: #000000; stroke-width: 2; stroke-linecap: round"/>
   </g>
   <g id="line2d_5">
    <path d="M 63.228 127.48 
L 56.028 127.48 
" clip-path="url(#pd4b4cf4c52)" style="fill: none; stroke: #000000; stroke-width: 2; stroke-linecap: round"/>
   </g>
   <g id="line2d_6">
    <path d="M 59.628 172.48 
L 113.628 172.48 
L 167.628 172.48 
" clip-path="url(#pd4b4cf4c52)" style="fill: none; stroke: #000000; stroke-width: 2; stroke-linecap: round"/>
   </g>
   <g id="line2d_7">
    <path d="M 59.628 28.48 
L 113.628 28.48 
L 167.628 28.48 
" clip-path="url(#pd4b4cf4c52)" style="fill: none; stroke: #000000; stroke-width: 2; stroke-linecap: round"/>
   </g>
   <g id="line2d_8">
    <path d="M 167.628 28.48 
L 167.628 46.48 
L 167.628 46.48 
M 167.628 82.48 
L 167.628 82.48 
L 167.628 100.48 
" clip-path="url(#pd4b4cf4c52)" style="fill: none; stroke: #000000; stroke-width: 2; stroke-linecap: round"/>
   </g>
   <g id="line2d_9">
    <path d="M 171.228 73.48 
L 164.028 73.48 
" clip-path="url(#pd4b4cf4c52)" style="fill: none; stroke: #000000; stroke-width: 2; stroke-linecap: round"/>
   </g>
   <g id="line2d_10">
    <path d="M 167.628 51.88 
L 167.628 59.08 
" clip-path="url(#pd4b4cf4c52)" style="fill: none; stroke: #000000; stroke-width: 2; stroke-linecap: round"/>
   </g>
   <g id="line2d_11">
    <path d="M 171.228 55.48 
L 164.028 55.48 
" clip-path="url(#pd4b4cf4c52)" style="fill: none; stroke: #000000; stroke-width: 2; stroke-linecap: round"/>
   </g>
   <g id="line2d_12">
    <path d="M 167.628 100.48 
L 167.628 118.48 
L 176.628 121.48 
L 158.628 127.48 
L 176.628 133.48 
L 158.628 139.48 
L 176.628 145.48 
L 158.628 151.48 
L 167.628 154.48 
L 167.628 172.48 
" clip-path="url(#pd4b4cf4c52)" style="fill: none; stroke: #000000; stroke-width: 2; stroke-linecap: round"/>
   </g>
   <g id="line2d_13">
    <path d="M 167.628 172.48 
L 221.628 172.48 
L 275.628 172.48 
" clip-path="url(#pd4b4cf4c52)" style="fill: none; stroke: #000000; stroke-width: 2; stroke-linecap: round"/>
   </g>
   <g id="line2d_14">
    <path d="M 275.628 172.48 
L 275.628 154.48 
L 275.628 154.48 
M 275.628 118.48 
L 275.628 118.48 
L 275.628 100.48 
" clip-path="url(#pd4b4cf4c52)" style="fill: none; stroke: #000000; stroke-width: 2; stroke-linecap: round"/>
   </g>
   <g id="line2d_15">
    <path d="M 275.628 145.48 
L 275.628 136.48 
" clip-path="url(#pd4b4cf4c52)" style="fill: none; stroke: #000000; stroke-width: 2; stroke-linecap: round"/>
   </g>
   <g id="patch_5">
    <path d="M 272.928 136.48 
L 275.628 127.48 
L 278.328 136.48 
z
" clip-path="url(#pd4b4cf4c52)"/>
   </g>
   <g id="line2d_16">
    <path d="M 275.628 100.48 
L 275.628 82.48 
L 266.628 79.48 
L 284.628 73.48 
L 266.628 67.48 
L 284.628 61.48 
L 266.628 55.48 
L 284.628 49.48 
L 275.628 46.48 
L 275.628 28.48 
" clip-path="url(#pd4b4cf4c52)" style="fill: none; stroke: #000000; stroke-width: 2; stroke-linecap: round"/>
   </g>
   <g id="line2d_17">
    <path d="M 275.628 28.48 
L 221.628 28.48 
L 167.628 28.48 
" clip-path="url(#pd4b4cf4c52)" style="fill: none; stroke: #000000; stroke-width: 2; stroke-linecap: round"/>
   </g>
   <g id="line2d_18">
    <path d="M 275.628 28.48 
L 329.628 28.48 
L 383.628 28.48 
" clip-path="url(#pd4b4cf4c52)" style="fill: none; stroke: #000000; stroke-width: 2; stroke-linecap: round"/>
   </g>
   <g id="line2d_19">
    <path d="M 383.628 28.48 
L 383.628 82.48 
L 392.628 85.48 
L 374.628 91.48 
L 392.628 97.48 
L 374.628 103.48 
L 392.628 109.48 
L 374.628 115.48 
L 383.628 118.48 
L 383.628 172.48 
" clip-path="url(#pd4b4cf4c52)" style="fill: none; stroke: #000000; stroke-width: 2; stroke-linecap: round"/>
   </g>
   <g id="line2d_20">
    <path d="M 383.628 172.48 
L 329.628 172.48 
L 275.628 172.48 
" clip-path="url(#pd4b4cf4c52)" style="fill: none; stroke: #000000; stroke-width: 2; stroke-linecap: round"/>
   </g>
   <g id="line2d_21">
    <path d="M 383.628 28.48 
L 401.628 28.48 
L 404.628 19.48 
L 410.628 37.48 
L 416.628 19.48 
L 422.628 37.48 
L 428.628 19.48 
L 434.628 37.48 
L 437.628 28.48 
L 455.628 28.48 
" clip-path="url(#pd4b4cf4c52)" style="fill: none; stroke: #000000; stroke-width: 2; stroke-linecap: round"/>
   </g>
   <g id="line2d_22">
    <path d="M 383.628 172.48 
L 419.628 172.48 
L 455.628 172.48 
" clip-path="url(#pd4b4cf4c52)" style="fill: none; stroke: #000000; stroke-width: 2; stroke-linecap: round"/>
   </g>
   <g id="text_1">
    <!-- 20Ω -->
    <g transform="translate(18.513938 68.343125) scale(0.14 -0.14)">
     <defs>
      <path id="DejaVuSans-32" d="M 1228 531 
L 3431 531 
L 3431 0 
L 469 0 
L 469 531 
Q 828 903 1448 1529 
Q 2069 2156 2228 2338 
Q 2531 2678 2651 2914 
Q 2772 3150 2772 3378 
Q 2772 3750 2511 3984 
Q 2250 4219 1831 4219 
Q 1534 4219 1204 4116 
Q 875 4013 500 3803 
L 500 4441 
Q 881 4594 1212 4672 
Q 1544 4750 1819 4750 
Q 2544 4750 2975 4387 
Q 3406 4025 3406 3419 
Q 3406 3131 3298 2873 
Q 3191 2616 2906 2266 
Q 2828 2175 2409 1742 
Q 1991 1309 1228 531 
z
" transform="scale(0.015625)"/>
      <path id="DejaVuSans-30" d="M 2034 4250 
Q 1547 4250 1301 3770 
Q 1056 3291 1056 2328 
Q 1056 1369 1301 889 
Q 1547 409 2034 409 
Q 2525 409 2770 889 
Q 3016 1369 3016 2328 
Q 3016 3291 2770 3770 
Q 2525 4250 2034 4250 
z
M 2034 4750 
Q 2819 4750 3233 4129 
Q 3647 3509 3647 2328 
Q 3647 1150 3233 529 
Q 2819 -91 2034 -91 
Q 1250 -91 836 529 
Q 422 1150 422 2328 
Q 422 3509 836 4129 
Q 1250 4750 2034 4750 
z
" transform="scale(0.015625)"/>
      <path id="DejaVuSans-3a9" d="M 4647 556 
L 4647 0 
L 2772 0 
L 2772 556 
Q 3325 859 3634 1378 
Q 3944 1897 3944 2528 
Q 3944 3278 3531 3731 
Q 3119 4184 2444 4184 
Q 1769 4184 1355 3729 
Q 941 3275 941 2528 
Q 941 1897 1250 1378 
Q 1563 859 2119 556 
L 2119 0 
L 244 0 
L 244 556 
L 1241 556 
Q 747 991 519 1456 
Q 294 1922 294 2497 
Q 294 3491 894 4106 
Q 1491 4722 2444 4722 
Q 3391 4722 3994 4106 
Q 4594 3494 4594 2528 
Q 4594 1922 4372 1459 
Q 4150 997 3647 556 
L 4647 556 
z
" transform="scale(0.015625)"/>
     </defs>
     <use xlink:href="#DejaVuSans-32"/>
     <use xlink:href="#DejaVuSans-30" x="63.623047"/>
     <use xlink:href="#DejaVuSans-3a9" x="127.246094"/>
    </g>
   </g>
   <g id="text_2">
    <!-- 120V -->
    <g transform="translate(1.728625 140.343125) scale(0.14 -0.14)">
     <defs>
      <path id="DejaVuSans-31" d="M 794 531 
L 1825 531 
L 1825 4091 
L 703 3866 
L 703 4441 
L 1819 4666 
L 2450 4666 
L 2450 531 
L 3481 531 
L 3481 0 
L 794 0 
L 794 531 
z
" transform="scale(0.015625)"/>
      <path id="DejaVuSans-56" d="M 1831 0 
L 50 4666 
L 709 4666 
L 2188 738 
L 3669 4666 
L 4325 4666 
L 2547 0 
L 1831 0 
z
" transform="scale(0.015625)"/>
     </defs>
     <use xlink:href="#DejaVuSans-31"/>
     <use xlink:href="#DejaVuSans-32" x="63.623047"/>
     <use xlink:href="#DejaVuSans-30" x="127.246094"/>
     <use xlink:href="#DejaVuSans-56" x="190.869141"/>
    </g>
   </g>
   <g id="patch_6">
    <path d="M 167.628 175.18 
C 168.344048 175.18 169.030866 174.895511 169.537188 174.389188 
C 170.043511 173.882866 170.328 173.196048 170.328 172.48 
C 170.328 171.763952 170.043511 171.077134 169.537188 170.570812 
C 169.030866 170.064489 168.344048 169.78 167.628 169.78 
C 166.911952 169.78 166.225134 170.064489 165.718812 170.570812 
C 165.212489 171.077134 164.928 171.763952 164.928 172.48 
C 164.928 173.196048 165.212489 173.882866 165.718812 174.389188 
C 166.225134 174.895511 166.911952 175.18 167.628 175.18 
z
" clip-path="url(#pd4b4cf4c52)" style="stroke: #000000; stroke-width: 2; stroke-linejoin: miter"/>
   </g>
   <g id="patch_7">
    <path d="M 167.628 31.18 
C 168.344048 31.18 169.030866 30.895511 169.537188 30.389188 
C 170.043511 29.882866 170.328 29.196048 170.328 28.48 
C 170.328 27.763952 170.043511 27.077134 169.537188 26.570812 
C 169.030866 26.064489 168.344048 25.78 167.628 25.78 
C 166.911952 25.78 166.225134 26.064489 165.718812 26.570812 
C 165.212489 27.077134 164.928 27.763952 164.928 28.48 
C 164.928 29.196048 165.212489 29.882866 165.718812 30.389188 
C 166.225134 30.895511 166.911952 31.18 167.628 31.18 
z
" clip-path="url(#pd4b4cf4c52)" style="stroke: #000000; stroke-width: 2; stroke-linejoin: miter"/>
   </g>
   <g id="text_3">
    <!-- 60V -->
    <g transform="translate(118.636125 68.343125) scale(0.14 -0.14)">
     <defs>
      <path id="DejaVuSans-36" d="M 2113 2584 
Q 1688 2584 1439 2293 
Q 1191 2003 1191 1497 
Q 1191 994 1439 701 
Q 1688 409 2113 409 
Q 2538 409 2786 701 
Q 3034 994 3034 1497 
Q 3034 2003 2786 2293 
Q 2538 2584 2113 2584 
z
M 3366 4563 
L 3366 3988 
Q 3128 4100 2886 4159 
Q 2644 4219 2406 4219 
Q 1781 4219 1451 3797 
Q 1122 3375 1075 2522 
Q 1259 2794 1537 2939 
Q 1816 3084 2150 3084 
Q 2853 3084 3261 2657 
Q 3669 2231 3669 1497 
Q 3669 778 3244 343 
Q 2819 -91 2113 -91 
Q 1303 -91 875 529 
Q 447 1150 447 2328 
Q 447 3434 972 4092 
Q 1497 4750 2381 4750 
Q 2619 4750 2861 4703 
Q 3103 4656 3366 4563 
z
" transform="scale(0.015625)"/>
     </defs>
     <use xlink:href="#DejaVuSans-36"/>
     <use xlink:href="#DejaVuSans-30" x="63.623047"/>
     <use xlink:href="#DejaVuSans-56" x="127.246094"/>
    </g>
   </g>
   <g id="patch_8">
    <path d="M 167.628 175.18 
C 168.344048 175.18 169.030866 174.895511 169.537188 174.389188 
C 170.043511 173.882866 170.328 173.196048 170.328 172.48 
C 170.328 171.763952 170.043511 171.077134 169.537188 170.570812 
C 169.030866 170.064489 168.344048 169.78 167.628 169.78 
C 166.911952 169.78 166.225134 170.064489 165.718812 170.570812 
C 165.212489 171.077134 164.928 171.763952 164.928 172.48 
C 164.928 173.196048 165.212489 173.882866 165.718812 174.389188 
C 166.225134 174.895511 166.911952 175.18 167.628 175.18 
z
" clip-path="url(#pd4b4cf4c52)" style="stroke: #000000; stroke-width: 2; stroke-linejoin: miter"/>
   </g>
   <g id="text_4">
    <!-- 5Ω -->
    <g transform="translate(135.421437 141.693125) scale(0.14 -0.14)">
     <defs>
      <path id="DejaVuSans-35" d="M 691 4666 
L 3169 4666 
L 3169 4134 
L 1269 4134 
L 1269 2991 
Q 1406 3038 1543 3061 
Q 1681 3084 1819 3084 
Q 2600 3084 3056 2656 
Q 3513 2228 3513 1497 
Q 3513 744 3044 326 
Q 2575 -91 1722 -91 
Q 1428 -91 1123 -41 
Q 819 9 494 109 
L 494 744 
Q 775 591 1075 516 
Q 1375 441 1709 441 
Q 2250 441 2565 725 
Q 2881 1009 2881 1497 
Q 2881 1984 2565 2268 
Q 2250 2553 1709 2553 
Q 1456 2553 1204 2497 
Q 953 2441 691 2322 
L 691 4666 
z
" transform="scale(0.015625)"/>
     </defs>
     <use xlink:href="#DejaVuSans-35"/>
     <use xlink:href="#DejaVuSans-3a9" x="63.623047"/>
    </g>
   </g>
   <g id="patch_9">
    <path d="M 275.628 175.18 
C 276.344048 175.18 277.030866 174.895511 277.537188 174.389188 
C 278.043511 173.882866 278.328 173.196048 278.328 172.48 
C 278.328 171.763952 278.043511 171.077134 277.537188 170.570812 
C 277.030866 170.064489 276.344048 169.78 275.628 169.78 
C 274.911952 169.78 274.225134 170.064489 273.718812 170.570812 
C 273.212489 171.077134 272.928 171.763952 272.928 172.48 
C 272.928 173.196048 273.212489 173.882866 273.718812 174.389188 
C 274.225134 174.895511 274.911952 175.18 275.628 175.18 
z
" clip-path="url(#pd4b4cf4c52)" style="stroke: #000000; stroke-width: 2; stroke-linejoin: miter"/>
   </g>
   <g id="text_5">
    <!-- 36A -->
    <g transform="translate(226.636125 140.343125) scale(0.14 -0.14)">
     <defs>
      <path id="DejaVuSans-33" d="M 2597 2516 
Q 3050 2419 3304 2112 
Q 3559 1806 3559 1356 
Q 3559 666 3084 287 
Q 2609 -91 1734 -91 
Q 1441 -91 1130 -33 
Q 819 25 488 141 
L 488 750 
Q 750 597 1062 519 
Q 1375 441 1716 441 
Q 2309 441 2620 675 
Q 2931 909 2931 1356 
Q 2931 1769 2642 2001 
Q 2353 2234 1838 2234 
L 1294 2234 
L 1294 2753 
L 1863 2753 
Q 2328 2753 2575 2939 
Q 2822 3125 2822 3475 
Q 2822 3834 2567 4026 
Q 2313 4219 1838 4219 
Q 1578 4219 1281 4162 
Q 984 4106 628 3988 
L 628 4550 
Q 988 4650 1302 4700 
Q 1616 4750 1894 4750 
Q 2613 4750 3031 4423 
Q 3450 4097 3450 3541 
Q 3450 3153 3228 2886 
Q 3006 2619 2597 2516 
z
" transform="scale(0.015625)"/>
      <path id="DejaVuSans-41" d="M 2188 4044 
L 1331 1722 
L 3047 1722 
L 2188 4044 
z
M 1831 4666 
L 2547 4666 
L 4325 0 
L 3669 0 
L 3244 1197 
L 1141 1197 
L 716 0 
L 50 0 
L 1831 4666 
z
" transform="scale(0.015625)"/>
     </defs>
     <use xlink:href="#DejaVuSans-33"/>
     <use xlink:href="#DejaVuSans-36" x="63.623047"/>
     <use xlink:href="#DejaVuSans-41" x="127.246094"/>
    </g>
   </g>
   <g id="patch_10">
    <path d="M 275.628 31.18 
C 276.344048 31.18 277.030866 30.895511 277.537188 30.389188 
C 278.043511 29.882866 278.328 29.196048 278.328 28.48 
C 278.328 27.763952 278.043511 27.077134 277.537188 26.570812 
C 277.030866 26.064489 276.344048 25.78 275.628 25.78 
C 274.911952 25.78 274.225134 26.064489 273.718812 26.570812 
C 273.212489 27.077134 272.928 27.763952 272.928 28.48 
C 272.928 29.196048 273.212489 29.882866 273.718812 30.389188 
C 274.225134 30.895511 274.911952 31.18 275.628 31.18 
z
" clip-path="url(#pd4b4cf4c52)" style="stroke: #000000; stroke-width: 2; stroke-linejoin: miter"/>
   </g>
   <g id="text_6">
    <!-- 10Ω -->
    <g transform="translate(234.513938 66.993125) scale(0.14 -0.14)">
     <use xlink:href="#DejaVuSans-31"/>
     <use xlink:href="#DejaVuSans-30" x="63.623047"/>
     <use xlink:href="#DejaVuSans-3a9" x="127.246094"/>
    </g>
   </g>
   <g id="patch_11">
    <path d="M 383.628 31.18 
C 384.344048 31.18 385.030866 30.895511 385.537188 30.389188 
C 386.043511 29.882866 386.328 29.196048 386.328 28.48 
C 386.328 27.763952 386.043511 27.077134 385.537188 26.570812 
C 385.030866 26.064489 384.344048 25.78 383.628 25.78 
C 382.911952 25.78 382.225134 26.064489 381.718812 26.570812 
C 381.212489 27.077134 380.928 27.763952 380.928 28.48 
C 380.928 29.196048 381.212489 29.882866 381.718812 30.389188 
C 382.225134 30.895511 382.911952 31.18 383.628 31.18 
z
" clip-path="url(#pd4b4cf4c52)" style="stroke: #000000; stroke-width: 2; stroke-linejoin: miter"/>
   </g>
   <g id="patch_12">
    <path d="M 383.628 175.18 
C 384.344048 175.18 385.030866 174.895511 385.537188 174.389188 
C 386.043511 173.882866 386.328 173.196048 386.328 172.48 
C 386.328 171.763952 386.043511 171.077134 385.537188 170.570812 
C 385.030866 170.064489 384.344048 169.78 383.628 169.78 
C 382.911952 169.78 382.225134 170.064489 381.718812 170.570812 
C 381.212489 171.077134 380.928 171.763952 380.928 172.48 
C 380.928 173.196048 381.212489 173.882866 381.718812 174.389188 
C 382.225134 174.895511 382.911952 175.18 383.628 175.18 
z
" clip-path="url(#pd4b4cf4c52)" style="stroke: #000000; stroke-width: 2; stroke-linejoin: miter"/>
   </g>
   <g id="text_7">
    <!-- 6Ω -->
    <g transform="translate(351.421438 105.693125) scale(0.14 -0.14)">
     <use xlink:href="#DejaVuSans-36"/>
     <use xlink:href="#DejaVuSans-3a9" x="63.623047"/>
    </g>
   </g>
   <g id="patch_13">
    <path d="M 455.628 31.18 
C 456.344048 31.18 457.030866 30.895511 457.537188 30.389188 
C 458.043511 29.882866 458.328 29.196048 458.328 28.48 
C 458.328 27.763952 458.043511 27.077134 457.537188 26.570812 
C 457.030866 26.064489 456.344048 25.78 455.628 25.78 
C 454.911952 25.78 454.225134 26.064489 453.718812 26.570812 
C 453.212489 27.077134 452.928 27.763952 452.928 28.48 
C 452.928 29.196048 453.212489 29.882866 453.718812 30.389188 
C 454.225134 30.895511 454.911952 31.18 455.628 31.18 
z
" clip-path="url(#pd4b4cf4c52)" style="fill: #ffffff; stroke: #000000; stroke-width: 2; stroke-linejoin: miter"/>
   </g>
   <g id="text_8">
    <!-- 1.6Ω -->
    <g transform="translate(404.496281 12.968437) scale(0.14 -0.14)">
     <defs>
      <path id="DejaVuSans-2e" d="M 684 794 
L 1344 794 
L 1344 0 
L 684 0 
L 684 794 
z
" transform="scale(0.015625)"/>
     </defs>
     <use xlink:href="#DejaVuSans-31"/>
     <use xlink:href="#DejaVuSans-2e" x="63.623047"/>
     <use xlink:href="#DejaVuSans-36" x="95.410156"/>
     <use xlink:href="#DejaVuSans-3a9" x="159.033203"/>
    </g>
   </g>
   <g id="text_9">
    <!-- a -->
    <g transform="translate(461.928 32.343125) scale(0.14 -0.14)">
     <defs>
      <path id="DejaVuSans-61" d="M 2194 1759 
Q 1497 1759 1228 1600 
Q 959 1441 959 1056 
Q 959 750 1161 570 
Q 1363 391 1709 391 
Q 2188 391 2477 730 
Q 2766 1069 2766 1631 
L 2766 1759 
L 2194 1759 
z
M 3341 1997 
L 3341 0 
L 2766 0 
L 2766 531 
Q 2569 213 2275 61 
Q 1981 -91 1556 -91 
Q 1019 -91 701 211 
Q 384 513 384 1019 
Q 384 1609 779 1909 
Q 1175 2209 1959 2209 
L 2766 2209 
L 2766 2266 
Q 2766 2663 2505 2880 
Q 2244 3097 1772 3097 
Q 1472 3097 1187 3025 
Q 903 2953 641 2809 
L 641 3341 
Q 956 3463 1253 3523 
Q 1550 3584 1831 3584 
Q 2591 3584 2966 3190 
Q 3341 2797 3341 1997 
z
" transform="scale(0.015625)"/>
     </defs>
     <use xlink:href="#DejaVuSans-61"/>
    </g>
   </g>
   <g id="patch_14">
    <path d="M 455.628 175.18 
C 456.344048 175.18 457.030866 174.895511 457.537188 174.389188 
C 458.043511 173.882866 458.328 173.196048 458.328 172.48 
C 458.328 171.763952 458.043511 171.077134 457.537188 170.570812 
C 457.030866 170.064489 456.344048 169.78 455.628 169.78 
C 454.911952 169.78 454.225134 170.064489 453.718812 170.570812 
C 453.212489 171.077134 452.928 171.763952 452.928 172.48 
C 452.928 173.196048 453.212489 173.882866 453.718812 174.389188 
C 454.225134 174.895511 454.911952 175.18 455.628 175.18 
z
" clip-path="url(#pd4b4cf4c52)" style="fill: #ffffff; stroke: #000000; stroke-width: 2; stroke-linejoin: miter"/>
   </g>
   <g id="text_10">
    <!-- b -->
    <g transform="translate(461.928 176.343125) scale(0.14 -0.14)">
     <defs>
      <path id="DejaVuSans-62" d="M 3116 1747 
Q 3116 2381 2855 2742 
Q 2594 3103 2138 3103 
Q 1681 3103 1420 2742 
Q 1159 2381 1159 1747 
Q 1159 1113 1420 752 
Q 1681 391 2138 391 
Q 2594 391 2855 752 
Q 3116 1113 3116 1747 
z
M 1159 2969 
Q 1341 3281 1617 3432 
Q 1894 3584 2278 3584 
Q 2916 3584 3314 3078 
Q 3713 2572 3713 1747 
Q 3713 922 3314 415 
Q 2916 -91 2278 -91 
Q 1894 -91 1617 61 
Q 1341 213 1159 525 
L 1159 0 
L 581 0 
L 581 4863 
L 1159 4863 
L 1159 2969 
z
" transform="scale(0.015625)"/>
     </defs>
     <use xlink:href="#DejaVuSans-62"/>
    </g>
   </g>
  </g>
 </g>
 <defs>
  <clipPath id="pd4b4cf4c52">
   <rect x="0" y="0" width="474.588" height="182.76"/>
  </clipPath>
 </defs>
</svg>