<?xml version="1.0" encoding="utf-8" standalone="no"?>
<!DOCTYPE svg PUBLIC "-//W3C//DTD SVG 1.1//EN"
  "http://www.w3.org/Graphics/SVG/1.1/DTD/svg11.dtd">
<svg xmlns:xlink="http://www.w3.org/1999/xlink" width="307.597187pt" height="171.366pt" viewBox="0 0 307.597187 171.366" xmlns="http://www.w3.org/2000/svg" version="1.1">
 <metadata>
  <rdf:RDF xmlns:dc="http://purl.org/dc/elements/1.1/" xmlns:cc="http://creativecommons.org/ns#" xmlns:rdf="http://www.w3.org/1999/02/22-rdf-syntax-ns#">
   <cc:Work>
    <dc:type rdf:resource="http://purl.org/dc/dcmitype/StillImage"/>
    <dc:date>2024-10-04T11:48:59.417524</dc:date>
    <dc:format>image/svg+xml</dc:format>
    <dc:creator>
     <cc:Agent>
      <dc:title>Matplotlib v3.9.2, https://matplotlib.org/</dc:title>
     </cc:Agent>
    </dc:creator>
   </cc:Work>
  </rdf:RDF>
 </metadata>
 <defs>
  <style type="text/css">*{stroke-linejoin: round; stroke-linecap: butt}</style>
 </defs>
 <g id="figure_1">
  <g id="patch_1">
   <path d="M 0 171.366 
L 307.597187 171.366 
L 307.597187 0 
L 0 0 
z
" style="fill: #ffffff"/>
  </g>
  <g id="axes_1">
   <g id="patch_2">
    <path d="M 77.917187 107.646 
C 82.690843 107.646 87.269625 105.749406 90.64511 102.373922 
C 94.020594 98.998438 95.917187 94.419656 95.917187 89.646 
C 95.917187 84.872344 94.020594 80.293562 90.64511 76.918078 
C 87.269625 73.542594 82.690843 71.646 77.917187 71.646 
C 73.143532 71.646 68.56475 73.542594 65.189265 76.918078 
C 61.813781 80.293562 59.917188 84.872344 59.917188 89.646 
C 59.917188 94.419656 61.813781 98.998438 65.189265 102.373922 
C 68.56475 105.749406 73.143532 107.646 77.917187 107.646 
L 77.917187 107.646 
z
" clip-path="url(#pff105e68bd)" style="fill: none; stroke: #000000; stroke-width: 2; stroke-linejoin: miter"/>
   </g>
   <g id="patch_3">
    <path d="M 239.917187 53.646 
C 244.690843 53.646 249.269625 51.749406 252.64511 48.373922 
C 256.020594 44.998438 257.917187 40.419656 257.917187 35.646 
C 257.917187 30.872344 256.020594 26.293562 252.64511 22.918078 
C 249.269625 19.542594 244.690843 17.646 239.917187 17.646 
C 235.143532 17.646 230.56475 19.542594 227.189265 22.918078 
C 223.813781 26.293562 221.917187 30.872344 221.917187 35.646 
C 221.917187 40.419656 223.813781 44.998438 227.189265 48.373922 
C 230.56475 51.749406 235.143532 53.646 239.917187 53.646 
L 239.917187 53.646 
z
" clip-path="url(#pff105e68bd)" style="fill: none; stroke: #000000; stroke-width: 2; stroke-linejoin: miter"/>
   </g>
   <g id="line2d_1">
    <path d="M 77.917187 143.646 
L 77.917187 158.046 
L 68.917187 158.046 
L 86.917187 158.046 
M 71.617188 162.366 
L 84.217187 162.366 
M 76.117188 166.686 
L 79.717187 166.686 
" clip-path="url(#pff105e68bd)" style="fill: none; stroke: #000000; stroke-width: 2; stroke-linecap: round"/>
   </g>
   <g id="line2d_2">
    <path d="M 77.917187 143.646 
L 77.917187 107.646 
L 77.917187 107.646 
M 77.917187 71.646 
L 77.917187 71.646 
L 77.917187 35.646 
" clip-path="url(#pff105e68bd)" style="fill: none; stroke: #000000; stroke-width: 2; stroke-linecap: round"/>
   </g>
   <g id="line2d_3">
    <path d="M 81.517188 98.646 
L 74.317188 98.646 
" clip-path="url(#pff105e68bd)" style="fill: none; stroke: #000000; stroke-width: 2; stroke-linecap: round"/>
   </g>
   <g id="line2d_4">
    <path d="M 77.917187 84.246 
L 77.917187 77.046 
" clip-path="url(#pff105e68bd)" style="fill: none; stroke: #000000; stroke-width: 2; stroke-linecap: round"/>
   </g>
   <g id="line2d_5">
    <path d="M 81.517188 80.646 
L 74.317188 80.646 
" clip-path="url(#pff105e68bd)" style="fill: none; stroke: #000000; stroke-width: 2; stroke-linecap: round"/>
   </g>
   <g id="line2d_6">
    <path d="M 77.917187 35.646 
L 113.917187 35.646 
L 116.917187 26.646 
L 122.917187 44.646 
L 128.917187 26.646 
L 134.917187 44.646 
L 140.917187 26.646 
L 146.917187 44.646 
L 149.917187 35.646 
L 185.917187 35.646 
" clip-path="url(#pff105e68bd)" style="fill: none; stroke: #000000; stroke-width: 2; stroke-linecap: round"/>
   </g>
   <g id="line2d_7">
    <path d="M 185.917187 35.646 
L 221.917187 35.646 
L 221.917187 35.646 
M 257.917187 35.646 
L 257.917187 35.646 
L 293.917187 35.646 
" clip-path="url(#pff105e68bd)" style="fill: none; stroke: #000000; stroke-width: 2; stroke-linecap: round"/>
   </g>
   <g id="line2d_8">
    <path d="M 230.917187 39.246 
L 230.917187 32.046 
" clip-path="url(#pff105e68bd)" style="fill: none; stroke: #000000; stroke-width: 2; stroke-linecap: round"/>
   </g>
   <g id="line2d_9">
    <path d="M 245.317187 35.646 
L 252.517187 35.646 
" clip-path="url(#pff105e68bd)" style="fill: none; stroke: #000000; stroke-width: 2; stroke-linecap: round"/>
   </g>
   <g id="line2d_10">
    <path d="M 248.917187 39.246 
L 248.917187 32.046 
" clip-path="url(#pff105e68bd)" style="fill: none; stroke: #000000; stroke-width: 2; stroke-linecap: round"/>
   </g>
   <g id="line2d_11">
    <path d="M 293.917187 35.646 
L 293.917187 71.646 
L 302.917187 74.646 
L 284.917187 80.646 
L 302.917187 86.646 
L 284.917187 92.646 
L 302.917187 98.646 
L 284.917187 104.646 
L 293.917187 107.646 
L 293.917187 143.646 
" clip-path="url(#pff105e68bd)" style="fill: none; stroke: #000000; stroke-width: 2; stroke-linecap: round"/>
   </g>
   <g id="line2d_12">
    <path d="M 293.917187 143.646 
L 239.917187 143.646 
L 185.917187 143.646 
" clip-path="url(#pff105e68bd)" style="fill: none; stroke: #000000; stroke-width: 2; stroke-linecap: round"/>
   </g>
   <g id="line2d_13">
    <path d="M 185.917187 143.646 
L 131.917187 143.646 
L 77.917187 143.646 
" clip-path="url(#pff105e68bd)" style="fill: none; stroke: #000000; stroke-width: 2; stroke-linecap: round"/>
   </g>
   <g id="text_1">
    <!-- V1=22v -->
    <g transform="translate(0 93.509125) scale(0.14 -0.14)">
     <defs>
      <path id="DejaVuSans-56" d="M 1831 0 
L 50 4666 
L 709 4666 
L 2188 738 
L 3669 4666 
L 4325 4666 
L 2547 0 
L 1831 0 
z
" transform="scale(0.015625)"/>
      <path id="DejaVuSans-31" d="M 794 531 
L 1825 531 
L 1825 4091 
L 703 3866 
L 703 4441 
L 1819 4666 
L 2450 4666 
L 2450 531 
L 3481 531 
L 3481 0 
L 794 0 
L 794 531 
z
" transform="scale(0.015625)"/>
      <path id="DejaVuSans-3d" d="M 678 2906 
L 4684 2906 
L 4684 2381 
L 678 2381 
L 678 2906 
z
M 678 1631 
L 4684 1631 
L 4684 1100 
L 678 1100 
L 678 1631 
z
" transform="scale(0.015625)"/>
      <path id="DejaVuSans-32" d="M 1228 531 
L 3431 531 
L 3431 0 
L 469 0 
L 469 531 
Q 828 903 1448 1529 
Q 2069 2156 2228 2338 
Q 2531 2678 2651 2914 
Q 2772 3150 2772 3378 
Q 2772 3750 2511 3984 
Q 2250 4219 1831 4219 
Q 1534 4219 1204 4116 
Q 875 4013 500 3803 
L 500 4441 
Q 881 4594 1212 4672 
Q 1544 4750 1819 4750 
Q 2544 4750 2975 4387 
Q 3406 4025 3406 3419 
Q 3406 3131 3298 2873 
Q 3191 2616 2906 2266 
Q 2828 2175 2409 1742 
Q 1991 1309 1228 531 
z
" transform="scale(0.015625)"/>
      <path id="DejaVuSans-76" d="M 191 3500 
L 800 3500 
L 1894 563 
L 2988 3500 
L 3597 3500 
L 2284 0 
L 1503 0 
L 191 3500 
z
" transform="scale(0.015625)"/>
     </defs>
     <use xlink:href="#DejaVuSans-56"/>
     <use xlink:href="#DejaVuSans-31" x="68.408203"/>
     <use xlink:href="#DejaVuSans-3d" x="132.03125"/>
     <use xlink:href="#DejaVuSans-32" x="215.820312"/>
     <use xlink:href="#DejaVuSans-32" x="279.443359"/>
     <use xlink:href="#DejaVuSans-76" x="343.066406"/>
    </g>
   </g>
   <g id="text_2">
    <!-- R1=3Ω -->
    <g transform="translate(106.930469 20.134437) scale(0.14 -0.14)">
     <defs>
      <path id="DejaVuSans-52" d="M 2841 2188 
Q 3044 2119 3236 1894 
Q 3428 1669 3622 1275 
L 4263 0 
L 3584 0 
L 2988 1197 
Q 2756 1666 2539 1819 
Q 2322 1972 1947 1972 
L 1259 1972 
L 1259 0 
L 628 0 
L 628 4666 
L 2053 4666 
Q 2853 4666 3247 4331 
Q 3641 3997 3641 3322 
Q 3641 2881 3436 2590 
Q 3231 2300 2841 2188 
z
M 1259 4147 
L 1259 2491 
L 2053 2491 
Q 2509 2491 2742 2702 
Q 2975 2913 2975 3322 
Q 2975 3731 2742 3939 
Q 2509 4147 2053 4147 
L 1259 4147 
z
" transform="scale(0.015625)"/>
      <path id="DejaVuSans-33" d="M 2597 2516 
Q 3050 2419 3304 2112 
Q 3559 1806 3559 1356 
Q 3559 666 3084 287 
Q 2609 -91 1734 -91 
Q 1441 -91 1130 -33 
Q 819 25 488 141 
L 488 750 
Q 750 597 1062 519 
Q 1375 441 1716 441 
Q 2309 441 2620 675 
Q 2931 909 2931 1356 
Q 2931 1769 2642 2001 
Q 2353 2234 1838 2234 
L 1294 2234 
L 1294 2753 
L 1863 2753 
Q 2328 2753 2575 2939 
Q 2822 3125 2822 3475 
Q 2822 3834 2567 4026 
Q 2313 4219 1838 4219 
Q 1578 4219 1281 4162 
Q 984 4106 628 3988 
L 628 4550 
Q 988 4650 1302 4700 
Q 1616 4750 1894 4750 
Q 2613 4750 3031 4423 
Q 3450 4097 3450 3541 
Q 3450 3153 3228 2886 
Q 3006 2619 2597 2516 
z
" transform="scale(0.015625)"/>
      <path id="DejaVuSans-3a9" d="M 4647 556 
L 4647 0 
L 2772 0 
L 2772 556 
Q 3325 859 3634 1378 
Q 3944 1897 3944 2528 
Q 3944 3278 3531 3731 
Q 3119 4184 2444 4184 
Q 1769 4184 1355 3729 
Q 941 3275 941 2528 
Q 941 1897 1250 1378 
Q 1563 859 2119 556 
L 2119 0 
L 244 0 
L 244 556 
L 1241 556 
Q 747 991 519 1456 
Q 294 1922 294 2497 
Q 294 3491 894 4106 
Q 1491 4722 2444 4722 
Q 3391 4722 3994 4106 
Q 4594 3494 4594 2528 
Q 4594 1922 4372 1459 
Q 4150 997 3647 556 
L 4647 556 
z
" transform="scale(0.015625)"/>
     </defs>
     <use xlink:href="#DejaVuSans-52"/>
     <use xlink:href="#DejaVuSans-31" x="69.482422"/>
     <use xlink:href="#DejaVuSans-3d" x="133.105469"/>
     <use xlink:href="#DejaVuSans-33" x="216.894531"/>
     <use xlink:href="#DejaVuSans-3a9" x="280.517578"/>
    </g>
   </g>
   <g id="text_3">
    <!-- V2=10v -->
    <g transform="translate(211.758594 11.134437) scale(0.14 -0.14)">
     <defs>
      <path id="DejaVuSans-30" d="M 2034 4250 
Q 1547 4250 1301 3770 
Q 1056 3291 1056 2328 
Q 1056 1369 1301 889 
Q 1547 409 2034 409 
Q 2525 409 2770 889 
Q 3016 1369 3016 2328 
Q 3016 3291 2770 3770 
Q 2525 4250 2034 4250 
z
M 2034 4750 
Q 2819 4750 3233 4129 
Q 3647 3509 3647 2328 
Q 3647 1150 3233 529 
Q 2819 -91 2034 -91 
Q 1250 -91 836 529 
Q 422 1150 422 2328 
Q 422 3509 836 4129 
Q 1250 4750 2034 4750 
z
" transform="scale(0.015625)"/>
     </defs>
     <use xlink:href="#DejaVuSans-56"/>
     <use xlink:href="#DejaVuSans-32" x="68.408203"/>
     <use xlink:href="#DejaVuSans-3d" x="132.03125"/>
     <use xlink:href="#DejaVuSans-31" x="215.820312"/>
     <use xlink:href="#DejaVuSans-30" x="279.443359"/>
     <use xlink:href="#DejaVuSans-76" x="343.066406"/>
    </g>
   </g>
   <g id="text_4">
    <!-- R2=5Ω -->
    <g transform="translate(231.34375 93.509125) scale(0.14 -0.14)">
     <defs>
      <path id="DejaVuSans-35" d="M 691 4666 
L 3169 4666 
L 3169 4134 
L 1269 4134 
L 1269 2991 
Q 1406 3038 1543 3061 
Q 1681 3084 1819 3084 
Q 2600 3084 3056 2656 
Q 3513 2228 3513 1497 
Q 3513 744 3044 326 
Q 2575 -91 1722 -91 
Q 1428 -91 1123 -41 
Q 819 9 494 109 
L 494 744 
Q 775 591 1075 516 
Q 1375 441 1709 441 
Q 2250 441 2565 725 
Q 2881 1009 2881 1497 
Q 2881 1984 2565 2268 
Q 2250 2553 1709 2553 
Q 1456 2553 1204 2497 
Q 953 2441 691 2322 
L 691 4666 
z
" transform="scale(0.015625)"/>
     </defs>
     <use xlink:href="#DejaVuSans-52"/>
     <use xlink:href="#DejaVuSans-32" x="69.482422"/>
     <use xlink:href="#DejaVuSans-3d" x="133.105469"/>
     <use xlink:href="#DejaVuSans-35" x="216.894531"/>
     <use xlink:href="#DejaVuSans-3a9" x="280.517578"/>
    </g>
   </g>
   <g id="patch_4">
    <path d="M 77.917187 38.346 
C 78.633236 38.346 79.320053 38.061511 79.826376 37.555188 
C 80.332698 37.048866 80.617188 36.362048 80.617188 35.646 
C 80.617188 34.929952 80.332698 34.243134 79.826376 33.736812 
C 79.320053 33.230489 78.633236 32.946 77.917187 32.946 
C 77.201139 32.946 76.514322 33.230489 76.007999 33.736812 
C 75.501677 34.243134 75.217187 34.929952 75.217187 35.646 
C 75.217187 36.362048 75.501677 37.048866 76.007999 37.555188 
C 76.514322 38.061511 77.201139 38.346 77.917187 38.346 
z
" clip-path="url(#pff105e68bd)" style="stroke: #000000; stroke-width: 2; stroke-linejoin: miter"/>
   </g>
   <g id="text_5">
    <!-- A -->
    <g transform="translate(73.12875 26.434437) scale(0.14 -0.14)">
     <defs>
      <path id="DejaVuSans-41" d="M 2188 4044 
L 1331 1722 
L 3047 1722 
L 2188 4044 
z
M 1831 4666 
L 2547 4666 
L 4325 0 
L 3669 0 
L 3244 1197 
L 1141 1197 
L 716 0 
L 50 0 
L 1831 4666 
z
" transform="scale(0.015625)"/>
     </defs>
     <use xlink:href="#DejaVuSans-41"/>
    </g>
   </g>
   <g id="patch_5">
    <path d="M 185.917187 38.346 
C 186.633236 38.346 187.320053 38.061511 187.826376 37.555188 
C 188.332698 37.048866 188.617187 36.362048 188.617187 35.646 
C 188.617187 34.929952 188.332698 34.243134 187.826376 33.736812 
C 187.320053 33.230489 186.633236 32.946 185.917187 32.946 
C 185.201139 32.946 184.514322 33.230489 184.007999 33.736812 
C 183.501677 34.243134 183.217187 34.929952 183.217187 35.646 
C 183.217187 36.362048 183.501677 37.048866 184.007999 37.555188 
C 184.514322 38.061511 185.201139 38.346 185.917187 38.346 
z
" clip-path="url(#pff105e68bd)" style="stroke: #000000; stroke-width: 2; stroke-linejoin: miter"/>
   </g>
   <g id="text_6">
    <!-- B -->
    <g transform="translate(181.114531 26.434437) scale(0.14 -0.14)">
     <defs>
      <path id="DejaVuSans-42" d="M 1259 2228 
L 1259 519 
L 2272 519 
Q 2781 519 3026 730 
Q 3272 941 3272 1375 
Q 3272 1813 3026 2020 
Q 2781 2228 2272 2228 
L 1259 2228 
z
M 1259 4147 
L 1259 2741 
L 2194 2741 
Q 2656 2741 2882 2914 
Q 3109 3088 3109 3444 
Q 3109 3797 2882 3972 
Q 2656 4147 2194 4147 
L 1259 4147 
z
M 628 4666 
L 2241 4666 
Q 2963 4666 3353 4366 
Q 3744 4066 3744 3513 
Q 3744 3084 3544 2831 
Q 3344 2578 2956 2516 
Q 3422 2416 3680 2098 
Q 3938 1781 3938 1306 
Q 3938 681 3513 340 
Q 3088 0 2303 0 
L 628 0 
L 628 4666 
z
" transform="scale(0.015625)"/>
     </defs>
     <use xlink:href="#DejaVuSans-42"/>
    </g>
   </g>
   <g id="patch_6">
    <path d="M 293.917187 38.346 
C 294.633236 38.346 295.320053 38.061511 295.826376 37.555188 
C 296.332698 37.048866 296.617187 36.362048 296.617187 35.646 
C 296.617187 34.929952 296.332698 34.243134 295.826376 33.736812 
C 295.320053 33.230489 294.633236 32.946 293.917187 32.946 
C 293.201139 32.946 292.514322 33.230489 292.007999 33.736812 
C 291.501677 34.243134 291.217187 34.929952 291.217187 35.646 
C 291.217187 36.362048 291.501677 37.048866 292.007999 37.555188 
C 292.514322 38.061511 293.201139 38.346 293.917187 38.346 
z
" clip-path="url(#pff105e68bd)" style="stroke: #000000; stroke-width: 2; stroke-linejoin: miter"/>
   </g>
   <g id="text_7">
    <!-- C -->
    <g transform="translate(289.029219 26.434437) scale(0.14 -0.14)">
     <defs>
      <path id="DejaVuSans-43" d="M 4122 4306 
L 4122 3641 
Q 3803 3938 3442 4084 
Q 3081 4231 2675 4231 
Q 1875 4231 1450 3742 
Q 1025 3253 1025 2328 
Q 1025 1406 1450 917 
Q 1875 428 2675 428 
Q 3081 428 3442 575 
Q 3803 722 4122 1019 
L 4122 359 
Q 3791 134 3420 21 
Q 3050 -91 2638 -91 
Q 1578 -91 968 557 
Q 359 1206 359 2328 
Q 359 3453 968 4101 
Q 1578 4750 2638 4750 
Q 3056 4750 3426 4639 
Q 3797 4528 4122 4306 
z
" transform="scale(0.015625)"/>
     </defs>
     <use xlink:href="#DejaVuSans-43"/>
    </g>
   </g>
  </g>
 </g>
 <defs>
  <clipPath id="pff105e68bd">
   <rect x="6.515188" y="-0" width="301.082" height="171.366"/>
  </clipPath>
 </defs>
</svg>