<?xml version="1.0" encoding="utf-8" standalone="no"?>
<!DOCTYPE svg PUBLIC "-//W3C//DTD SVG 1.1//EN"
  "http://www.w3.org/Graphics/SVG/1.1/DTD/svg11.dtd">
<svg xmlns:xlink="http://www.w3.org/1999/xlink" width="253.35pt" height="156.28pt" viewBox="0 0 253.35 156.28" xmlns="http://www.w3.org/2000/svg" version="1.1">
 <metadata>
  <rdf:RDF xmlns:dc="http://purl.org/dc/elements/1.1/" xmlns:cc="http://creativecommons.org/ns#" xmlns:rdf="http://www.w3.org/1999/02/22-rdf-syntax-ns#">
   <cc:Work>
    <dc:type rdf:resource="http://purl.org/dc/dcmitype/StillImage"/>
    <dc:date>2024-10-24T14:42:53.424324</dc:date>
    <dc:format>image/svg+xml</dc:format>
    <dc:creator>
     <cc:Agent>
      <dc:title>Matplotlib v3.9.2, https://matplotlib.org/</dc:title>
     </cc:Agent>
    </dc:creator>
   </cc:Work>
  </rdf:RDF>
 </metadata>
 <defs>
  <style type="text/css">*{stroke-linejoin: round; stroke-linecap: butt}</style>
 </defs>
 <g id="figure_1">
  <g id="patch_1">
   <path d="M 0 156.28 
L 253.35 156.28 
L 253.35 0 
L 0 0 
z
" style="fill: #ffffff"/>
  </g>
  <g id="axes_1">
   <g id="patch_2">
    <path d="M 66.78 97.6 
C 70.121559 97.6 73.326706 96.272385 75.689545 93.909545 
C 78.052385 91.546706 79.38 88.341559 79.38 85 
C 79.38 81.658441 78.052385 78.453294 75.689545 76.090455 
C 73.326706 73.727615 70.121559 72.4 66.78 72.4 
C 63.438441 72.4 60.233294 73.727615 57.870455 76.090455 
C 55.507615 78.453294 54.18 81.658441 54.18 85 
C 54.18 88.341559 55.507615 91.546706 57.870455 93.909545 
C 60.233294 96.272385 63.438441 97.6 66.78 97.6 
L 66.78 97.6 
z
" clip-path="url(#pa373dc09a0)" style="fill: none; stroke: #000000; stroke-width: 2; stroke-linejoin: miter"/>
   </g>
   <g id="patch_3">
    <path d="M 102.78 43.6 
C 106.121559 43.6 109.326706 42.272385 111.689545 39.909545 
C 114.052385 37.546706 115.38 34.341559 115.38 31 
C 115.38 27.658441 114.052385 24.453294 111.689545 22.090455 
C 109.326706 19.727615 106.121559 18.4 102.78 18.4 
C 99.438441 18.4 96.233294 19.727615 93.870455 22.090455 
C 91.507615 24.453294 90.18 27.658441 90.18 31 
C 90.18 34.341559 91.507615 37.546706 93.870455 39.909545 
C 96.233294 42.272385 99.438441 43.6 102.78 43.6 
L 102.78 43.6 
z
" clip-path="url(#pa373dc09a0)" style="fill: none; stroke: #000000; stroke-width: 2; stroke-linejoin: miter"/>
   </g>
   <g id="patch_4">
    <path d="M 192.78 151.6 
C 196.121559 151.6 199.326706 150.272385 201.689545 147.909545 
C 204.052385 145.546706 205.38 142.341559 205.38 139 
C 205.38 135.658441 204.052385 132.453294 201.689545 130.090455 
C 199.326706 127.727615 196.121559 126.4 192.78 126.4 
C 189.438441 126.4 186.233294 127.727615 183.870455 130.090455 
C 181.507615 132.453294 180.18 135.658441 180.18 139 
C 180.18 142.341559 181.507615 145.546706 183.870455 147.909545 
C 186.233294 150.272385 189.438441 151.6 192.78 151.6 
L 192.78 151.6 
z
" clip-path="url(#pa373dc09a0)" style="fill: none; stroke: #000000; stroke-width: 2; stroke-linejoin: miter"/>
   </g>
   <g id="line2d_1">
    <path d="M 66.78 139 
L 66.78 97.6 
L 66.78 97.6 
M 66.78 72.4 
L 66.78 72.4 
L 66.78 31 
" clip-path="url(#pa373dc09a0)" style="fill: none; stroke: #000000; stroke-width: 2; stroke-linecap: round"/>
   </g>
   <g id="line2d_2">
    <path d="M 69.3 91.3 
L 64.26 91.3 
" clip-path="url(#pa373dc09a0)" style="fill: none; stroke: #000000; stroke-width: 2; stroke-linecap: round"/>
   </g>
   <g id="line2d_3">
    <path d="M 66.78 81.22 
L 66.78 76.18 
" clip-path="url(#pa373dc09a0)" style="fill: none; stroke: #000000; stroke-width: 2; stroke-linecap: round"/>
   </g>
   <g id="line2d_4">
    <path d="M 69.3 78.7 
L 64.26 78.7 
" clip-path="url(#pa373dc09a0)" style="fill: none; stroke: #000000; stroke-width: 2; stroke-linecap: round"/>
   </g>
   <g id="line2d_5">
    <path d="M 66.78 31 
L 90.18 31 
L 90.18 31 
M 115.38 31 
L 115.38 31 
L 138.78 31 
" clip-path="url(#pa373dc09a0)" style="fill: none; stroke: #000000; stroke-width: 2; stroke-linecap: round"/>
   </g>
   <g id="line2d_6">
    <path d="M 109.08 28.48 
L 109.08 33.52 
" clip-path="url(#pa373dc09a0)" style="fill: none; stroke: #000000; stroke-width: 2; stroke-linecap: round"/>
   </g>
   <g id="line2d_7">
    <path d="M 93.96 31 
L 99 31 
" clip-path="url(#pa373dc09a0)" style="fill: none; stroke: #000000; stroke-width: 2; stroke-linecap: round"/>
   </g>
   <g id="line2d_8">
    <path d="M 96.48 28.48 
L 96.48 33.52 
" clip-path="url(#pa373dc09a0)" style="fill: none; stroke: #000000; stroke-width: 2; stroke-linecap: round"/>
   </g>
   <g id="line2d_9">
    <path d="M 138.78 31 
L 174.78 31 
L 174.78 24.7 
L 210.78 24.7 
L 210.78 37.3 
L 174.78 37.3 
L 174.78 31 
M 210.78 31 
L 246.78 31 
" clip-path="url(#pa373dc09a0)" style="fill: none; stroke: #000000; stroke-width: 2; stroke-linecap: round"/>
   </g>
   <g id="line2d_10">
    <path d="M 66.78 139 
L 84.78 139 
L 84.78 132.7 
L 120.78 132.7 
L 120.78 145.3 
L 84.78 145.3 
L 84.78 139 
M 120.78 139 
L 138.78 139 
" clip-path="url(#pa373dc09a0)" style="fill: none; stroke: #000000; stroke-width: 2; stroke-linecap: round"/>
   </g>
   <g id="line2d_11">
    <path d="M 138.78 139 
L 180.18 139 
L 180.18 139 
M 205.38 139 
L 205.38 139 
L 246.78 139 
" clip-path="url(#pa373dc09a0)" style="fill: none; stroke: #000000; stroke-width: 2; stroke-linecap: round"/>
   </g>
   <g id="line2d_12">
    <path d="M 186.48 141.52 
L 186.48 136.48 
" clip-path="url(#pa373dc09a0)" style="fill: none; stroke: #000000; stroke-width: 2; stroke-linecap: round"/>
   </g>
   <g id="line2d_13">
    <path d="M 196.56 139 
L 201.6 139 
" clip-path="url(#pa373dc09a0)" style="fill: none; stroke: #000000; stroke-width: 2; stroke-linecap: round"/>
   </g>
   <g id="line2d_14">
    <path d="M 199.08 141.52 
L 199.08 136.48 
" clip-path="url(#pa373dc09a0)" style="fill: none; stroke: #000000; stroke-width: 2; stroke-linecap: round"/>
   </g>
   <g id="text_1">
    <!-- $v1=8v$ -->
    <g transform="translate(0 88.863125) scale(0.14 -0.14)">
     <defs>
      <path id="DejaVuSans-Oblique-76" d="M 459 3500 
L 1069 3500 
L 1581 525 
L 3256 3500 
L 3866 3500 
L 1875 0 
L 1100 0 
L 459 3500 
z
" transform="scale(0.015625)"/>
      <path id="DejaVuSans-31" d="M 794 531 
L 1825 531 
L 1825 4091 
L 703 3866 
L 703 4441 
L 1819 4666 
L 2450 4666 
L 2450 531 
L 3481 531 
L 3481 0 
L 794 0 
L 794 531 
z
" transform="scale(0.015625)"/>
      <path id="DejaVuSans-3d" d="M 678 2906 
L 4684 2906 
L 4684 2381 
L 678 2381 
L 678 2906 
z
M 678 1631 
L 4684 1631 
L 4684 1100 
L 678 1100 
L 678 1631 
z
" transform="scale(0.015625)"/>
      <path id="DejaVuSans-38" d="M 2034 2216 
Q 1584 2216 1326 1975 
Q 1069 1734 1069 1313 
Q 1069 891 1326 650 
Q 1584 409 2034 409 
Q 2484 409 2743 651 
Q 3003 894 3003 1313 
Q 3003 1734 2745 1975 
Q 2488 2216 2034 2216 
z
M 1403 2484 
Q 997 2584 770 2862 
Q 544 3141 544 3541 
Q 544 4100 942 4425 
Q 1341 4750 2034 4750 
Q 2731 4750 3128 4425 
Q 3525 4100 3525 3541 
Q 3525 3141 3298 2862 
Q 3072 2584 2669 2484 
Q 3125 2378 3379 2068 
Q 3634 1759 3634 1313 
Q 3634 634 3220 271 
Q 2806 -91 2034 -91 
Q 1263 -91 848 271 
Q 434 634 434 1313 
Q 434 1759 690 2068 
Q 947 2378 1403 2484 
z
M 1172 3481 
Q 1172 3119 1398 2916 
Q 1625 2713 2034 2713 
Q 2441 2713 2670 2916 
Q 2900 3119 2900 3481 
Q 2900 3844 2670 4047 
Q 2441 4250 2034 4250 
Q 1625 4250 1398 4047 
Q 1172 3844 1172 3481 
z
" transform="scale(0.015625)"/>
     </defs>
     <use xlink:href="#DejaVuSans-Oblique-76" transform="translate(0 0.78125)"/>
     <use xlink:href="#DejaVuSans-31" transform="translate(59.179688 0.78125)"/>
     <use xlink:href="#DejaVuSans-3d" transform="translate(142.285156 0.78125)"/>
     <use xlink:href="#DejaVuSans-38" transform="translate(245.556641 0.78125)"/>
     <use xlink:href="#DejaVuSans-Oblique-76" transform="translate(309.179688 0.78125)"/>
    </g>
   </g>
   <g id="text_2">
    <!-- $v2=14v$ -->
    <g transform="translate(72.54 12.968438) scale(0.14 -0.14)">
     <defs>
      <path id="DejaVuSans-32" d="M 1228 531 
L 3431 531 
L 3431 0 
L 469 0 
L 469 531 
Q 828 903 1448 1529 
Q 2069 2156 2228 2338 
Q 2531 2678 2651 2914 
Q 2772 3150 2772 3378 
Q 2772 3750 2511 3984 
Q 2250 4219 1831 4219 
Q 1534 4219 1204 4116 
Q 875 4013 500 3803 
L 500 4441 
Q 881 4594 1212 4672 
Q 1544 4750 1819 4750 
Q 2544 4750 2975 4387 
Q 3406 4025 3406 3419 
Q 3406 3131 3298 2873 
Q 3191 2616 2906 2266 
Q 2828 2175 2409 1742 
Q 1991 1309 1228 531 
z
" transform="scale(0.015625)"/>
      <path id="DejaVuSans-34" d="M 2419 4116 
L 825 1625 
L 2419 1625 
L 2419 4116 
z
M 2253 4666 
L 3047 4666 
L 3047 1625 
L 3713 1625 
L 3713 1100 
L 3047 1100 
L 3047 0 
L 2419 0 
L 2419 1100 
L 313 1100 
L 313 1709 
L 2253 4666 
z
" transform="scale(0.015625)"/>
     </defs>
     <use xlink:href="#DejaVuSans-Oblique-76" transform="translate(0 0.78125)"/>
     <use xlink:href="#DejaVuSans-32" transform="translate(59.179688 0.78125)"/>
     <use xlink:href="#DejaVuSans-3d" transform="translate(142.285156 0.78125)"/>
     <use xlink:href="#DejaVuSans-31" transform="translate(245.556641 0.78125)"/>
     <use xlink:href="#DejaVuSans-34" transform="translate(309.179688 0.78125)"/>
     <use xlink:href="#DejaVuSans-Oblique-76" transform="translate(372.802734 0.78125)"/>
    </g>
   </g>
   <g id="patch_5">
    <path d="M 249.48 31 
L 249.457833 31.241688 
L 249.391696 31.479407 
L 249.282675 31.709255 
L 249.132561 31.927456 
L 248.943817 32.130429 
L 248.719543 32.31484 
L 248.463422 32.477662 
L 248.17966 32.61622 
L 247.872915 32.72824 
L 247.548224 32.811882 
L 247.21092 32.865774 
L 246.866539 32.889029 
L 246.520738 32.881267 
L 246.179193 32.842614 
L 245.847514 32.773705 
L 245.531147 32.675673 
L 245.235285 32.550126 
L 244.964788 32.399125 
L 244.724096 32.225152 
L 244.517162 32.031061 
L 244.347384 31.82004 
L 244.217549 31.595555 
L 244.12979 31.36129 
L 244.085547 31.121093 
L 244.085547 30.878907 
L 244.12979 30.63871 
L 244.217549 30.404445 
L 244.347384 30.17996 
L 244.517162 29.968939 
L 244.724096 29.774848 
L 244.964788 29.600875 
L 245.235285 29.449874 
L 245.531147 29.324327 
L 245.847514 29.226295 
L 246.179193 29.157386 
L 246.520738 29.118733 
L 246.866539 29.110971 
L 247.21092 29.134226 
L 247.548224 29.188118 
L 247.872915 29.27176 
L 248.17966 29.38378 
L 248.463422 29.522338 
L 248.719543 29.68516 
L 248.943817 29.869571 
L 249.132561 30.072544 
L 249.282675 30.290745 
L 249.391696 30.520593 
L 249.457833 30.758312 
" clip-path="url(#pa373dc09a0)" style="fill: #ffffff; stroke: #000000; stroke-width: 2; stroke-linejoin: miter"/>
   </g>
   <g id="text_3">
    <!-- - -->
    <g transform="translate(164.651094 20.100313) scale(0.1 -0.1)">
     <defs>
      <path id="DejaVuSans-2d" d="M 313 2009 
L 1997 2009 
L 1997 1497 
L 313 1497 
L 313 2009 
z
" transform="scale(0.015625)"/>
     </defs>
     <use xlink:href="#DejaVuSans-2d"/>
    </g>
   </g>
   <g id="text_4">
    <!-- $v3=7v$ -->
    <g transform="translate(175.68 20.100313) scale(0.1 -0.1)">
     <defs>
      <path id="DejaVuSans-33" d="M 2597 2516 
Q 3050 2419 3304 2112 
Q 3559 1806 3559 1356 
Q 3559 666 3084 287 
Q 2609 -91 1734 -91 
Q 1441 -91 1130 -33 
Q 819 25 488 141 
L 488 750 
Q 750 597 1062 519 
Q 1375 441 1716 441 
Q 2309 441 2620 675 
Q 2931 909 2931 1356 
Q 2931 1769 2642 2001 
Q 2353 2234 1838 2234 
L 1294 2234 
L 1294 2753 
L 1863 2753 
Q 2328 2753 2575 2939 
Q 2822 3125 2822 3475 
Q 2822 3834 2567 4026 
Q 2313 4219 1838 4219 
Q 1578 4219 1281 4162 
Q 984 4106 628 3988 
L 628 4550 
Q 988 4650 1302 4700 
Q 1616 4750 1894 4750 
Q 2613 4750 3031 4423 
Q 3450 4097 3450 3541 
Q 3450 3153 3228 2886 
Q 3006 2619 2597 2516 
z
" transform="scale(0.015625)"/>
      <path id="DejaVuSans-37" d="M 525 4666 
L 3525 4666 
L 3525 4397 
L 1831 0 
L 1172 0 
L 2766 4134 
L 525 4134 
L 525 4666 
z
" transform="scale(0.015625)"/>
     </defs>
     <use xlink:href="#DejaVuSans-Oblique-76" transform="translate(0 0.78125)"/>
     <use xlink:href="#DejaVuSans-33" transform="translate(59.179688 0.78125)"/>
     <use xlink:href="#DejaVuSans-3d" transform="translate(142.285156 0.78125)"/>
     <use xlink:href="#DejaVuSans-37" transform="translate(245.556641 0.78125)"/>
     <use xlink:href="#DejaVuSans-Oblique-76" transform="translate(309.179688 0.78125)"/>
    </g>
   </g>
   <g id="text_5">
    <!-- + -->
    <g transform="translate(217.615156 20.100313) scale(0.1 -0.1)">
     <defs>
      <path id="DejaVuSans-2b" d="M 2944 4013 
L 2944 2272 
L 4684 2272 
L 4684 1741 
L 2944 1741 
L 2944 0 
L 2419 0 
L 2419 1741 
L 678 1741 
L 678 2272 
L 2419 2272 
L 2419 4013 
L 2944 4013 
z
" transform="scale(0.015625)"/>
     </defs>
     <use xlink:href="#DejaVuSans-2b"/>
    </g>
   </g>
   <g id="text_6">
    <!-- + -->
    <g transform="translate(80.590156 128.100313) scale(0.1 -0.1)">
     <use xlink:href="#DejaVuSans-2b"/>
    </g>
   </g>
   <g id="text_7">
    <!--  -->
    <g transform="translate(102.78 108.744063) scale(0.1 -0.1)"/>
    <!-- v5=30v -->
    <g transform="translate(83.127656 118.422188) scale(0.1 -0.1)">
     <defs>
      <path id="DejaVuSans-76" d="M 191 3500 
L 800 3500 
L 1894 563 
L 2988 3500 
L 3597 3500 
L 2284 0 
L 1503 0 
L 191 3500 
z
" transform="scale(0.015625)"/>
      <path id="DejaVuSans-35" d="M 691 4666 
L 3169 4666 
L 3169 4134 
L 1269 4134 
L 1269 2991 
Q 1406 3038 1543 3061 
Q 1681 3084 1819 3084 
Q 2600 3084 3056 2656 
Q 3513 2228 3513 1497 
Q 3513 744 3044 326 
Q 2575 -91 1722 -91 
Q 1428 -91 1123 -41 
Q 819 9 494 109 
L 494 744 
Q 775 591 1075 516 
Q 1375 441 1709 441 
Q 2250 441 2565 725 
Q 2881 1009 2881 1497 
Q 2881 1984 2565 2268 
Q 2250 2553 1709 2553 
Q 1456 2553 1204 2497 
Q 953 2441 691 2322 
L 691 4666 
z
" transform="scale(0.015625)"/>
      <path id="DejaVuSans-30" d="M 2034 4250 
Q 1547 4250 1301 3770 
Q 1056 3291 1056 2328 
Q 1056 1369 1301 889 
Q 1547 409 2034 409 
Q 2525 409 2770 889 
Q 3016 1369 3016 2328 
Q 3016 3291 2770 3770 
Q 2525 4250 2034 4250 
z
M 2034 4750 
Q 2819 4750 3233 4129 
Q 3647 3509 3647 2328 
Q 3647 1150 3233 529 
Q 2819 -91 2034 -91 
Q 1250 -91 836 529 
Q 422 1150 422 2328 
Q 422 3509 836 4129 
Q 1250 4750 2034 4750 
z
" transform="scale(0.015625)"/>
     </defs>
     <use xlink:href="#DejaVuSans-76"/>
     <use xlink:href="#DejaVuSans-35" x="59.179688"/>
     <use xlink:href="#DejaVuSans-3d" x="122.802734"/>
     <use xlink:href="#DejaVuSans-33" x="206.591797"/>
     <use xlink:href="#DejaVuSans-30" x="270.214844"/>
     <use xlink:href="#DejaVuSans-76" x="333.837891"/>
    </g>
    <!--  -->
    <g transform="translate(102.78 128.100313) scale(0.1 -0.1)"/>
   </g>
   <g id="text_8">
    <!-- - -->
    <g transform="translate(118.976094 128.100313) scale(0.1 -0.1)">
     <use xlink:href="#DejaVuSans-2d"/>
    </g>
   </g>
   <g id="patch_6">
    <path d="M 246.78 140.89 
C 247.281234 140.89 247.762006 140.690858 248.116432 140.336432 
C 248.470858 139.982006 248.67 139.501234 248.67 139 
C 248.67 138.498766 248.470858 138.017994 248.116432 137.663568 
C 247.762006 137.309142 247.281234 137.11 246.78 137.11 
C 246.278766 137.11 245.797994 137.309142 245.443568 137.663568 
C 245.089142 138.017994 244.89 138.498766 244.89 139 
C 244.89 139.501234 245.089142 139.982006 245.443568 140.336432 
C 245.797994 140.690858 246.278766 140.89 246.78 140.89 
z
" clip-path="url(#pa373dc09a0)" style="fill: #ffffff; stroke: #000000; stroke-width: 2; stroke-linejoin: miter"/>
   </g>
   <g id="text_9">
    <!-- $v4=19v$ -->
    <g transform="translate(163.485 120.968437) scale(0.14 -0.14)">
     <defs>
      <path id="DejaVuSans-39" d="M 703 97 
L 703 672 
Q 941 559 1184 500 
Q 1428 441 1663 441 
Q 2288 441 2617 861 
Q 2947 1281 2994 2138 
Q 2813 1869 2534 1725 
Q 2256 1581 1919 1581 
Q 1219 1581 811 2004 
Q 403 2428 403 3163 
Q 403 3881 828 4315 
Q 1253 4750 1959 4750 
Q 2769 4750 3195 4129 
Q 3622 3509 3622 2328 
Q 3622 1225 3098 567 
Q 2575 -91 1691 -91 
Q 1453 -91 1209 -44 
Q 966 3 703 97 
z
M 1959 2075 
Q 2384 2075 2632 2365 
Q 2881 2656 2881 3163 
Q 2881 3666 2632 3958 
Q 2384 4250 1959 4250 
Q 1534 4250 1286 3958 
Q 1038 3666 1038 3163 
Q 1038 2656 1286 2365 
Q 1534 2075 1959 2075 
z
" transform="scale(0.015625)"/>
     </defs>
     <use xlink:href="#DejaVuSans-Oblique-76" transform="translate(0 0.78125)"/>
     <use xlink:href="#DejaVuSans-34" transform="translate(59.179688 0.78125)"/>
     <use xlink:href="#DejaVuSans-3d" transform="translate(142.285156 0.78125)"/>
     <use xlink:href="#DejaVuSans-31" transform="translate(245.556641 0.78125)"/>
     <use xlink:href="#DejaVuSans-39" transform="translate(309.179688 0.78125)"/>
     <use xlink:href="#DejaVuSans-Oblique-76" transform="translate(372.802734 0.78125)"/>
    </g>
   </g>
  </g>
 </g>
 <defs>
  <clipPath id="pa373dc09a0">
   <rect x="8.76" y="0" width="244.59" height="156.28"/>
  </clipPath>
 </defs>
</svg>