<?xml version="1.0" encoding="utf-8" standalone="no"?>
<!DOCTYPE svg PUBLIC "-//W3C//DTD SVG 1.1//EN"
  "http://www.w3.org/Graphics/SVG/1.1/DTD/svg11.dtd">
<svg xmlns:xlink="http://www.w3.org/1999/xlink" width="718.932pt" height="287.72pt" viewBox="0 0 718.932 287.72" xmlns="http://www.w3.org/2000/svg" version="1.1">
 <metadata>
  <rdf:RDF xmlns:dc="http://purl.org/dc/elements/1.1/" xmlns:cc="http://creativecommons.org/ns#" xmlns:rdf="http://www.w3.org/1999/02/22-rdf-syntax-ns#">
   <cc:Work>
    <dc:type rdf:resource="http://purl.org/dc/dcmitype/StillImage"/>
    <dc:date>2024-10-09T20:10:15.012596</dc:date>
    <dc:format>image/svg+xml</dc:format>
    <dc:creator>
     <cc:Agent>
      <dc:title>Matplotlib v3.9.2, https://matplotlib.org/</dc:title>
     </cc:Agent>
    </dc:creator>
   </cc:Work>
  </rdf:RDF>
 </metadata>
 <defs>
  <style type="text/css">*{stroke-linejoin: round; stroke-linecap: butt}</style>
 </defs>
 <g id="figure_1">
  <g id="patch_1">
   <path d="M 0 287.72 
L 718.932 287.72 
L 718.932 0 
L 0 0 
z
" style="fill: #ffffff"/>
  </g>
  <g id="axes_1">
   <g id="patch_2">
    <path d="M 152.184 200.96 
C 161.731312 200.96 170.888875 197.166813 177.639844 190.415844 
C 184.390813 183.664875 188.184 174.507312 188.184 164.96 
C 188.184 155.412688 184.390813 146.255125 177.639844 139.504156 
C 170.888875 132.753187 161.731312 128.96 152.184 128.96 
C 142.636688 128.96 133.479125 132.753187 126.728156 139.504156 
C 119.977187 146.255125 116.184 155.412688 116.184 164.96 
C 116.184 174.507312 119.977187 183.664875 126.728156 190.415844 
C 133.479125 197.166813 142.636688 200.96 152.184 200.96 
L 152.184 200.96 
z
" clip-path="url(#p8d99f98674)" style="fill: none; stroke: #000000; stroke-width: 2; stroke-linejoin: miter"/>
   </g>
   <g id="line2d_1">
    <path d="M 152.184 272.96 
L 152.184 200.96 
L 152.184 200.96 
M 152.184 128.96 
L 152.184 128.96 
L 152.184 56.96 
" clip-path="url(#p8d99f98674)" style="fill: none; stroke: #000000; stroke-width: 2; stroke-linecap: round"/>
   </g>
   <g id="line2d_2">
    <path d="M 159.384 182.96 
L 144.984 182.96 
" clip-path="url(#p8d99f98674)" style="fill: none; stroke: #000000; stroke-width: 2; stroke-linecap: round"/>
   </g>
   <g id="line2d_3">
    <path d="M 152.184 154.16 
L 152.184 139.76 
" clip-path="url(#p8d99f98674)" style="fill: none; stroke: #000000; stroke-width: 2; stroke-linecap: round"/>
   </g>
   <g id="line2d_4">
    <path d="M 159.384 146.96 
L 144.984 146.96 
" clip-path="url(#p8d99f98674)" style="fill: none; stroke: #000000; stroke-width: 2; stroke-linecap: round"/>
   </g>
   <g id="line2d_5">
    <path d="M 152.184 56.96 
L 224.184 56.96 
L 230.184 38.96 
L 242.184 74.96 
L 254.184 38.96 
L 266.184 74.96 
L 278.184 38.96 
L 290.184 74.96 
L 296.184 56.96 
L 368.184 56.96 
" clip-path="url(#p8d99f98674)" style="fill: none; stroke: #000000; stroke-width: 2; stroke-linecap: round"/>
   </g>
   <g id="line2d_6">
    <path d="M 368.184 56.96 
L 368.184 128.96 
L 386.184 134.96 
L 350.184 146.96 
L 386.184 158.96 
L 350.184 170.96 
L 386.184 182.96 
L 350.184 194.96 
L 368.184 200.96 
L 368.184 272.96 
" clip-path="url(#p8d99f98674)" style="fill: none; stroke: #000000; stroke-width: 2; stroke-linecap: round"/>
   </g>
   <g id="line2d_7">
    <path d="M 368.184 272.96 
L 260.184 272.96 
L 152.184 272.96 
" clip-path="url(#p8d99f98674)" style="fill: none; stroke: #000000; stroke-width: 2; stroke-linecap: round"/>
   </g>
   <g id="line2d_8">
    <path d="M 368.184 56.96 
L 530.184 56.96 
L 692.184 56.96 
" clip-path="url(#p8d99f98674)" style="fill: none; stroke: #000000; stroke-width: 2; stroke-linecap: round"/>
   </g>
   <g id="line2d_9">
    <path d="M 368.184 272.96 
L 530.184 272.96 
L 692.184 272.96 
" clip-path="url(#p8d99f98674)" style="fill: none; stroke: #000000; stroke-width: 2; stroke-linecap: round"/>
   </g>
   <g id="text_1">
    <!-- v_i = 5V -->
    <g transform="translate(50.693688 168.628438) scale(0.14 -0.14)">
     <defs>
      <path id="DejaVuSans-76" d="M 191 3500 
L 800 3500 
L 1894 563 
L 2988 3500 
L 3597 3500 
L 2284 0 
L 1503 0 
L 191 3500 
z
" transform="scale(0.015625)"/>
      <path id="DejaVuSans-5f" d="M 3263 -1063 
L 3263 -1509 
L -63 -1509 
L -63 -1063 
L 3263 -1063 
z
" transform="scale(0.015625)"/>
      <path id="DejaVuSans-69" d="M 603 3500 
L 1178 3500 
L 1178 0 
L 603 0 
L 603 3500 
z
M 603 4863 
L 1178 4863 
L 1178 4134 
L 603 4134 
L 603 4863 
z
" transform="scale(0.015625)"/>
      <path id="DejaVuSans-20" transform="scale(0.015625)"/>
      <path id="DejaVuSans-3d" d="M 678 2906 
L 4684 2906 
L 4684 2381 
L 678 2381 
L 678 2906 
z
M 678 1631 
L 4684 1631 
L 4684 1100 
L 678 1100 
L 678 1631 
z
" transform="scale(0.015625)"/>
      <path id="DejaVuSans-35" d="M 691 4666 
L 3169 4666 
L 3169 4134 
L 1269 4134 
L 1269 2991 
Q 1406 3038 1543 3061 
Q 1681 3084 1819 3084 
Q 2600 3084 3056 2656 
Q 3513 2228 3513 1497 
Q 3513 744 3044 326 
Q 2575 -91 1722 -91 
Q 1428 -91 1123 -41 
Q 819 9 494 109 
L 494 744 
Q 775 591 1075 516 
Q 1375 441 1709 441 
Q 2250 441 2565 725 
Q 2881 1009 2881 1497 
Q 2881 1984 2565 2268 
Q 2250 2553 1709 2553 
Q 1456 2553 1204 2497 
Q 953 2441 691 2322 
L 691 4666 
z
" transform="scale(0.015625)"/>
      <path id="DejaVuSans-56" d="M 1831 0 
L 50 4666 
L 709 4666 
L 2188 738 
L 3669 4666 
L 4325 4666 
L 2547 0 
L 1831 0 
z
" transform="scale(0.015625)"/>
     </defs>
     <use xlink:href="#DejaVuSans-76"/>
     <use xlink:href="#DejaVuSans-5f" x="59.179688"/>
     <use xlink:href="#DejaVuSans-69" x="109.179688"/>
     <use xlink:href="#DejaVuSans-20" x="136.962891"/>
     <use xlink:href="#DejaVuSans-3d" x="168.75"/>
     <use xlink:href="#DejaVuSans-20" x="252.539062"/>
     <use xlink:href="#DejaVuSans-35" x="284.326172"/>
     <use xlink:href="#DejaVuSans-56" x="347.949219"/>
    </g>
   </g>
   <g id="text_2">
    <!-- R1 = 50 ± 5% Ω -->
    <g transform="translate(202.649469 28.848438) scale(0.14 -0.14)">
     <defs>
      <path id="DejaVuSans-52" d="M 2841 2188 
Q 3044 2119 3236 1894 
Q 3428 1669 3622 1275 
L 4263 0 
L 3584 0 
L 2988 1197 
Q 2756 1666 2539 1819 
Q 2322 1972 1947 1972 
L 1259 1972 
L 1259 0 
L 628 0 
L 628 4666 
L 2053 4666 
Q 2853 4666 3247 4331 
Q 3641 3997 3641 3322 
Q 3641 2881 3436 2590 
Q 3231 2300 2841 2188 
z
M 1259 4147 
L 1259 2491 
L 2053 2491 
Q 2509 2491 2742 2702 
Q 2975 2913 2975 3322 
Q 2975 3731 2742 3939 
Q 2509 4147 2053 4147 
L 1259 4147 
z
" transform="scale(0.015625)"/>
      <path id="DejaVuSans-31" d="M 794 531 
L 1825 531 
L 1825 4091 
L 703 3866 
L 703 4441 
L 1819 4666 
L 2450 4666 
L 2450 531 
L 3481 531 
L 3481 0 
L 794 0 
L 794 531 
z
" transform="scale(0.015625)"/>
      <path id="DejaVuSans-30" d="M 2034 4250 
Q 1547 4250 1301 3770 
Q 1056 3291 1056 2328 
Q 1056 1369 1301 889 
Q 1547 409 2034 409 
Q 2525 409 2770 889 
Q 3016 1369 3016 2328 
Q 3016 3291 2770 3770 
Q 2525 4250 2034 4250 
z
M 2034 4750 
Q 2819 4750 3233 4129 
Q 3647 3509 3647 2328 
Q 3647 1150 3233 529 
Q 2819 -91 2034 -91 
Q 1250 -91 836 529 
Q 422 1150 422 2328 
Q 422 3509 836 4129 
Q 1250 4750 2034 4750 
z
" transform="scale(0.015625)"/>
      <path id="DejaVuSans-b1" d="M 2944 4013 
L 2944 2803 
L 4684 2803 
L 4684 2272 
L 2944 2272 
L 2944 1063 
L 2419 1063 
L 2419 2272 
L 678 2272 
L 678 2803 
L 2419 2803 
L 2419 4013 
L 2944 4013 
z
M 678 531 
L 4684 531 
L 4684 0 
L 678 0 
L 678 531 
z
" transform="scale(0.015625)"/>
      <path id="DejaVuSans-25" d="M 4653 2053 
Q 4381 2053 4226 1822 
Q 4072 1591 4072 1178 
Q 4072 772 4226 539 
Q 4381 306 4653 306 
Q 4919 306 5073 539 
Q 5228 772 5228 1178 
Q 5228 1588 5073 1820 
Q 4919 2053 4653 2053 
z
M 4653 2450 
Q 5147 2450 5437 2106 
Q 5728 1763 5728 1178 
Q 5728 594 5436 251 
Q 5144 -91 4653 -91 
Q 4153 -91 3862 251 
Q 3572 594 3572 1178 
Q 3572 1766 3864 2108 
Q 4156 2450 4653 2450 
z
M 1428 4353 
Q 1159 4353 1004 4120 
Q 850 3888 850 3481 
Q 850 3069 1003 2837 
Q 1156 2606 1428 2606 
Q 1700 2606 1854 2837 
Q 2009 3069 2009 3481 
Q 2009 3884 1853 4118 
Q 1697 4353 1428 4353 
z
M 4250 4750 
L 4750 4750 
L 1831 -91 
L 1331 -91 
L 4250 4750 
z
M 1428 4750 
Q 1922 4750 2215 4408 
Q 2509 4066 2509 3481 
Q 2509 2891 2217 2550 
Q 1925 2209 1428 2209 
Q 931 2209 642 2551 
Q 353 2894 353 3481 
Q 353 4063 643 4406 
Q 934 4750 1428 4750 
z
" transform="scale(0.015625)"/>
      <path id="DejaVuSans-2126" d="M 4647 556 
L 4647 0 
L 2772 0 
L 2772 556 
Q 3325 859 3634 1378 
Q 3944 1897 3944 2528 
Q 3944 3278 3531 3731 
Q 3119 4184 2444 4184 
Q 1769 4184 1355 3729 
Q 941 3275 941 2528 
Q 941 1897 1250 1378 
Q 1563 859 2119 556 
L 2119 0 
L 244 0 
L 244 556 
L 1241 556 
Q 747 991 519 1456 
Q 294 1922 294 2497 
Q 294 3491 894 4106 
Q 1491 4722 2444 4722 
Q 3391 4722 3994 4106 
Q 4594 3494 4594 2528 
Q 4594 1922 4372 1459 
Q 4150 997 3647 556 
L 4647 556 
z
" transform="scale(0.015625)"/>
     </defs>
     <use xlink:href="#DejaVuSans-52"/>
     <use xlink:href="#DejaVuSans-31" x="69.482422"/>
     <use xlink:href="#DejaVuSans-20" x="133.105469"/>
     <use xlink:href="#DejaVuSans-3d" x="164.892578"/>
     <use xlink:href="#DejaVuSans-20" x="248.681641"/>
     <use xlink:href="#DejaVuSans-35" x="280.46875"/>
     <use xlink:href="#DejaVuSans-30" x="344.091797"/>
     <use xlink:href="#DejaVuSans-20" x="407.714844"/>
     <use xlink:href="#DejaVuSans-b1" x="439.501953"/>
     <use xlink:href="#DejaVuSans-20" x="523.291016"/>
     <use xlink:href="#DejaVuSans-35" x="555.078125"/>
     <use xlink:href="#DejaVuSans-25" x="618.701172"/>
     <use xlink:href="#DejaVuSans-20" x="713.720703"/>
     <use xlink:href="#DejaVuSans-2126" x="745.507812"/>
    </g>
   </g>
   <g id="text_3">
    <!-- R2 = 100 ± 2% Ω -->
    <g transform="translate(219.007437 168.823125) scale(0.14 -0.14)">
     <defs>
      <path id="DejaVuSans-32" d="M 1228 531 
L 3431 531 
L 3431 0 
L 469 0 
L 469 531 
Q 828 903 1448 1529 
Q 2069 2156 2228 2338 
Q 2531 2678 2651 2914 
Q 2772 3150 2772 3378 
Q 2772 3750 2511 3984 
Q 2250 4219 1831 4219 
Q 1534 4219 1204 4116 
Q 875 4013 500 3803 
L 500 4441 
Q 881 4594 1212 4672 
Q 1544 4750 1819 4750 
Q 2544 4750 2975 4387 
Q 3406 4025 3406 3419 
Q 3406 3131 3298 2873 
Q 3191 2616 2906 2266 
Q 2828 2175 2409 1742 
Q 1991 1309 1228 531 
z
" transform="scale(0.015625)"/>
     </defs>
     <use xlink:href="#DejaVuSans-52"/>
     <use xlink:href="#DejaVuSans-32" x="69.482422"/>
     <use xlink:href="#DejaVuSans-20" x="133.105469"/>
     <use xlink:href="#DejaVuSans-3d" x="164.892578"/>
     <use xlink:href="#DejaVuSans-20" x="248.681641"/>
     <use xlink:href="#DejaVuSans-31" x="280.46875"/>
     <use xlink:href="#DejaVuSans-30" x="344.091797"/>
     <use xlink:href="#DejaVuSans-30" x="407.714844"/>
     <use xlink:href="#DejaVuSans-20" x="471.337891"/>
     <use xlink:href="#DejaVuSans-b1" x="503.125"/>
     <use xlink:href="#DejaVuSans-20" x="586.914062"/>
     <use xlink:href="#DejaVuSans-32" x="618.701172"/>
     <use xlink:href="#DejaVuSans-25" x="682.324219"/>
     <use xlink:href="#DejaVuSans-20" x="777.34375"/>
     <use xlink:href="#DejaVuSans-2126" x="809.130859"/>
    </g>
   </g>
   <g id="patch_3">
    <path d="M 692.184 62.36 
C 693.616097 62.36 694.989731 61.791022 696.002377 60.778377 
C 697.015022 59.765731 697.584 58.392097 697.584 56.96 
C 697.584 55.527903 697.015022 54.154269 696.002377 53.141623 
C 694.989731 52.128978 693.616097 51.56 692.184 51.56 
C 690.751903 51.56 689.378269 52.128978 688.365623 53.141623 
C 687.352978 54.154269 686.784 55.527903 686.784 56.96 
C 686.784 58.392097 687.352978 59.765731 688.365623 60.778377 
C 689.378269 61.791022 690.751903 62.36 692.184 62.36 
z
" clip-path="url(#p8d99f98674)" style="fill: #ffffff; stroke: #000000; stroke-width: 2; stroke-linejoin: miter"/>
   </g>
   <g id="patch_4">
    <path d="M 368.184 62.36 
C 369.616097 62.36 370.989731 61.791022 372.002377 60.778377 
C 373.015022 59.765731 373.584 58.392097 373.584 56.96 
C 373.584 55.527903 373.015022 54.154269 372.002377 53.141623 
C 370.989731 52.128978 369.616097 51.56 368.184 51.56 
C 366.751903 51.56 365.378269 52.128978 364.365623 53.141623 
C 363.352978 54.154269 362.784 55.527903 362.784 56.96 
C 362.784 58.392097 363.352978 59.765731 364.365623 60.778377 
C 365.378269 61.791022 366.751903 62.36 368.184 62.36 
z
" clip-path="url(#p8d99f98674)" style="stroke: #000000; stroke-width: 2; stroke-linejoin: miter"/>
   </g>
   <g id="patch_5">
    <path d="M 692.184 278.36 
C 693.616097 278.36 694.989731 277.791022 696.002377 276.778377 
C 697.015022 275.765731 697.584 274.392097 697.584 272.96 
C 697.584 271.527903 697.015022 270.154269 696.002377 269.141623 
C 694.989731 268.128978 693.616097 267.56 692.184 267.56 
C 690.751903 267.56 689.378269 268.128978 688.365623 269.141623 
C 687.352978 270.154269 686.784 271.527903 686.784 272.96 
C 686.784 274.392097 687.352978 275.765731 688.365623 276.778377 
C 689.378269 277.791022 690.751903 278.36 692.184 278.36 
z
" clip-path="url(#p8d99f98674)" style="fill: #ffffff; stroke: #000000; stroke-width: 2; stroke-linejoin: miter"/>
   </g>
   <g id="patch_6">
    <path d="M 368.184 278.36 
C 369.616097 278.36 370.989731 277.791022 372.002377 276.778377 
C 373.015022 275.765731 373.584 274.392097 373.584 272.96 
C 373.584 271.527903 373.015022 270.154269 372.002377 269.141623 
C 370.989731 268.128978 369.616097 267.56 368.184 267.56 
C 366.751903 267.56 365.378269 268.128978 364.365623 269.141623 
C 363.352978 270.154269 362.784 271.527903 362.784 272.96 
C 362.784 274.392097 363.352978 275.765731 364.365623 276.778377 
C 365.378269 277.791022 366.751903 278.36 368.184 278.36 
z
" clip-path="url(#p8d99f98674)" style="stroke: #000000; stroke-width: 2; stroke-linejoin: miter"/>
   </g>
   <g id="text_4">
    <!-- – -->
    <g transform="translate(688.684 222.823125) scale(0.14 -0.14)">
     <defs>
      <path id="DejaVuSans-2013" d="M 313 1978 
L 2888 1978 
L 2888 1528 
L 313 1528 
L 313 1978 
z
" transform="scale(0.015625)"/>
     </defs>
     <use xlink:href="#DejaVuSans-2013"/>
    </g>
   </g>
   <g id="text_5">
    <!-- V0 -->
    <g transform="translate(682.941812 168.823125) scale(0.14 -0.14)">
     <use xlink:href="#DejaVuSans-56"/>
     <use xlink:href="#DejaVuSans-30" x="68.408203"/>
    </g>
   </g>
   <g id="text_6">
    <!-- + -->
    <g transform="translate(686.318219 114.823125) scale(0.14 -0.14)">
     <defs>
      <path id="DejaVuSans-2b" d="M 2944 4013 
L 2944 2272 
L 4684 2272 
L 4684 1741 
L 2944 1741 
L 2944 0 
L 2419 0 
L 2419 1741 
L 678 1741 
L 678 2272 
L 2419 2272 
L 2419 4013 
L 2944 4013 
z
" transform="scale(0.015625)"/>
     </defs>
     <use xlink:href="#DejaVuSans-2b"/>
    </g>
   </g>
  </g>
 </g>
 <defs>
  <clipPath id="p8d99f98674">
   <rect x="0" y="0" width="718.932" height="287.72"/>
  </clipPath>
 </defs>
</svg>