<?xml version="1.0" encoding="utf-8" standalone="no"?>
<!DOCTYPE svg PUBLIC "-//W3C//DTD SVG 1.1//EN"
  "http://www.w3.org/Graphics/SVG/1.1/DTD/svg11.dtd">
<svg xmlns:xlink="http://www.w3.org/1999/xlink" width="126.36pt" height="234.36pt" viewBox="0 0 126.36 234.36" xmlns="http://www.w3.org/2000/svg" version="1.1">
 <metadata>
  <rdf:RDF xmlns:dc="http://purl.org/dc/elements/1.1/" xmlns:cc="http://creativecommons.org/ns#" xmlns:rdf="http://www.w3.org/1999/02/22-rdf-syntax-ns#">
   <cc:Work>
    <dc:type rdf:resource="http://purl.org/dc/dcmitype/StillImage"/>
    <dc:date>2024-10-23T13:48:35.172766</dc:date>
    <dc:format>image/svg+xml</dc:format>
    <dc:creator>
     <cc:Agent>
      <dc:title>Matplotlib v3.9.2, https://matplotlib.org/</dc:title>
     </cc:Agent>
    </dc:creator>
   </cc:Work>
  </rdf:RDF>
 </metadata>
 <defs>
  <style type="text/css">*{stroke-linejoin: round; stroke-linecap: butt}</style>
 </defs>
 <g id="figure_1">
  <g id="patch_1">
   <path d="M 0 234.36 
L 126.36 234.36 
L 126.36 0 
L 0 0 
z
" style="fill: #ffffff"/>
  </g>
  <g id="axes_1">
   <g id="patch_2">
    <path d="M 103.68 64.98 
L 112.68 52.38 
L 121.68 64.98 
L 103.68 64.98 
z
" clip-path="url(#pd262ccc708)" style="fill: none; stroke: #000000; stroke-width: 2; stroke-linecap: round"/>
   </g>
   <g id="line2d_1">
    <path d="M 4.68 220.68 
L 55.44 220.68 
M 55.44 211.68 
L 55.44 229.68 
M 61.92 211.68 
L 61.92 229.68 
M 61.92 220.68 
L 112.68 220.68 
" clip-path="url(#pd262ccc708)" style="fill: none; stroke: #000000; stroke-width: 2; stroke-linecap: round"/>
   </g>
   <g id="line2d_2">
    <path d="M 112.68 220.68 
L 112.68 184.68 
L 103.68 181.68 
L 121.68 175.68 
L 103.68 169.68 
L 121.68 163.68 
L 103.68 157.68 
L 121.68 151.68 
L 112.68 148.68 
L 112.68 112.68 
" clip-path="url(#pd262ccc708)" style="fill: none; stroke: #000000; stroke-width: 2; stroke-linecap: round"/>
   </g>
   <g id="line2d_3">
    <path d="M 112.68 112.68 
L 112.68 64.98 
M 103.68 52.38 
L 121.68 52.38 
M 112.68 52.38 
L 112.68 4.68 
" clip-path="url(#pd262ccc708)" style="fill: none; stroke: #000000; stroke-width: 2; stroke-linecap: round"/>
   </g>
  </g>
 </g>
 <defs>
  <clipPath id="pd262ccc708">
   <rect x="0" y="-0" width="126.36" height="234.36"/>
  </clipPath>
 </defs>
</svg>