<?xml version="1.0" encoding="utf-8" standalone="no"?>
<!DOCTYPE svg PUBLIC "-//W3C//DTD SVG 1.1//EN"
  "http://www.w3.org/Graphics/SVG/1.1/DTD/svg11.dtd">
<svg xmlns:xlink="http://www.w3.org/1999/xlink" width="311.316pt" height="143.86pt" viewBox="0 0 311.316 143.86" xmlns="http://www.w3.org/2000/svg" version="1.1">
 <metadata>
  <rdf:RDF xmlns:dc="http://purl.org/dc/elements/1.1/" xmlns:cc="http://creativecommons.org/ns#" xmlns:rdf="http://www.w3.org/1999/02/22-rdf-syntax-ns#">
   <cc:Work>
    <dc:type rdf:resource="http://purl.org/dc/dcmitype/StillImage"/>
    <dc:date>2024-10-23T13:49:12.529845</dc:date>
    <dc:format>image/svg+xml</dc:format>
    <dc:creator>
     <cc:Agent>
      <dc:title>Matplotlib v3.9.2, https://matplotlib.org/</dc:title>
     </cc:Agent>
    </dc:creator>
   </cc:Work>
  </rdf:RDF>
 </metadata>
 <defs>
  <style type="text/css">*{stroke-linejoin: round; stroke-linecap: butt}</style>
 </defs>
 <g id="figure_1">
  <g id="patch_1">
   <path d="M 0 143.86 
L 311.316 143.86 
L 311.316 0 
L 0 0 
z
" style="fill: #ffffff"/>
  </g>
  <g id="axes_1">
   <g id="patch_2">
    <path d="M 51.648 100.48 
C 56.421656 100.48 61.000438 98.583406 64.375922 95.207922 
C 67.751406 91.832438 69.648 87.253656 69.648 82.48 
C 69.648 77.706344 67.751406 73.127562 64.375922 69.752078 
C 61.000438 66.376594 56.421656 64.48 51.648 64.48 
C 46.874344 64.48 42.295562 66.376594 38.920078 69.752078 
C 35.544594 73.127562 33.648 77.706344 33.648 82.48 
C 33.648 87.253656 35.544594 91.832438 38.920078 95.207922 
C 42.295562 98.583406 46.874344 100.48 51.648 100.48 
L 51.648 100.48 
z
" clip-path="url(#p85337f112a)" style="fill: none; stroke: #000000; stroke-width: 2; stroke-linejoin: miter"/>
   </g>
   <g id="patch_3">
    <path d="M 267.648 100.48 
C 272.421656 100.48 277.000438 98.583406 280.375922 95.207922 
C 283.751406 91.832438 285.648 87.253656 285.648 82.48 
C 285.648 77.706344 283.751406 73.127562 280.375922 69.752078 
C 277.000438 66.376594 272.421656 64.48 267.648 64.48 
C 262.874344 64.48 258.295562 66.376594 254.920078 69.752078 
C 251.544594 73.127562 249.648 77.706344 249.648 82.48 
C 249.648 87.253656 251.544594 91.832438 254.920078 95.207922 
C 258.295562 98.583406 262.874344 100.48 267.648 100.48 
L 267.648 100.48 
z
" clip-path="url(#p85337f112a)" style="fill: none; stroke: #000000; stroke-width: 2; stroke-linejoin: miter"/>
   </g>
   <g id="patch_4">
    <path d="M 159.648 100.48 
C 164.421656 100.48 169.000438 98.583406 172.375922 95.207922 
C 175.751406 91.832438 177.648 87.253656 177.648 82.48 
C 177.648 77.706344 175.751406 73.127562 172.375922 69.752078 
C 169.000438 66.376594 164.421656 64.48 159.648 64.48 
C 154.874344 64.48 150.295562 66.376594 146.920078 69.752078 
C 143.544594 73.127562 141.648 77.706344 141.648 82.48 
C 141.648 87.253656 143.544594 91.832438 146.920078 95.207922 
C 150.295562 98.583406 154.874344 100.48 159.648 100.48 
L 159.648 100.48 
z
" clip-path="url(#p85337f112a)" style="fill: none; stroke: #000000; stroke-width: 2; stroke-linejoin: miter"/>
   </g>
   <g id="patch_5">
    <path d="M 80.581947 100.031439 
C 82.436544 102.680077 84.699281 105.018101 87.28582 106.958365 
C 89.872359 108.898629 92.750158 110.416723 95.811952 111.456062 
C 98.873746 112.495401 102.081015 113.042909 105.314212 113.078179 
C 108.54741 113.11345 111.765859 112.636038 114.849597 111.663739 
C 117.933336 110.69144 120.843568 109.236486 123.471818 107.353109 
C 126.100068 105.469731 128.41327 103.181625 130.325205 100.574075 
C 132.237139 97.966526 133.723752 95.072338 134.729631 91.999389 
C 135.735509 88.92644 136.248 85.71339 136.248 82.48 
C 136.248 79.24661 135.735509 76.03356 134.729631 72.960611 
C 133.723752 69.887662 132.237139 66.993474 130.325205 64.385925 
C 128.41327 61.778375 126.100068 59.490269 123.471818 57.606891 
C 120.843568 55.723514 117.933336 54.26856 114.849597 53.296261 
C 111.765859 52.323962 108.54741 51.84655 105.314212 51.881821 
C 102.081015 51.917091 98.873746 52.464599 95.811952 53.503938 
C 92.750158 54.543277 89.872359 56.061371 87.28582 58.001635 
C 84.699281 59.941899 82.436544 62.279923 80.581947 64.928561 
" clip-path="url(#p85337f112a)" style="fill: none; stroke: #ffa500; stroke-width: 2; stroke-linejoin: miter"/>
   </g>
   <g id="patch_6">
    <path d="M 85.950623 107.698702 
L 78.576724 101.87499 
L 80.77369 100.336658 
L 80.567203 100.041763 
L 80.596692 100.021115 
L 80.80318 100.316009 
L 83.000145 98.777677 
z
" clip-path="url(#p85337f112a)" style="fill: #ffa500; stroke: #ffa500; stroke-linejoin: miter"/>
   </g>
   <g id="patch_7">
    <path d="M 188.581947 100.031439 
C 190.436544 102.680077 192.699281 105.018101 195.28582 106.958365 
C 197.872359 108.898629 200.750158 110.416723 203.811952 111.456062 
C 206.873746 112.495401 210.081015 113.042909 213.314212 113.078179 
C 216.54741 113.11345 219.765859 112.636038 222.849597 111.663739 
C 225.933336 110.69144 228.843568 109.236486 231.471818 107.353109 
C 234.100068 105.469731 236.41327 103.181625 238.325205 100.574075 
C 240.237139 97.966526 241.723752 95.072338 242.729631 91.999389 
C 243.735509 88.92644 244.248 85.71339 244.248 82.48 
C 244.248 79.24661 243.735509 76.03356 242.729631 72.960611 
C 241.723752 69.887662 240.237139 66.993474 238.325205 64.385925 
C 236.41327 61.778375 234.100068 59.490269 231.471818 57.606891 
C 228.843568 55.723514 225.933336 54.26856 222.849597 53.296261 
C 219.765859 52.323962 216.54741 51.84655 213.314212 51.881821 
C 210.081015 51.917091 206.873746 52.464599 203.811952 53.503938 
C 200.750158 54.543277 197.872359 56.061371 195.28582 58.001635 
C 192.699281 59.941899 190.436544 62.279923 188.581947 64.928561 
" clip-path="url(#p85337f112a)" style="fill: none; stroke: #ffa500; stroke-width: 2; stroke-linejoin: miter"/>
   </g>
   <g id="patch_8">
    <path d="M 193.950623 107.698702 
L 186.576724 101.87499 
L 188.77369 100.336658 
L 188.567203 100.041763 
L 188.596692 100.021115 
L 188.80318 100.316009 
L 191.000145 98.777677 
z
" clip-path="url(#p85337f112a)" style="fill: #ffa500; stroke: #ffa500; stroke-linejoin: miter"/>
   </g>
   <g id="line2d_1">
    <path d="M 51.648 136.48 
L 51.648 100.48 
L 51.648 100.48 
M 51.648 64.48 
L 51.648 64.48 
L 51.648 28.48 
" clip-path="url(#p85337f112a)" style="fill: none; stroke: #000000; stroke-width: 2; stroke-linecap: round"/>
   </g>
   <g id="line2d_2">
    <path d="M 55.248 91.48 
L 48.048 91.48 
" clip-path="url(#p85337f112a)" style="fill: none; stroke: #000000; stroke-width: 2; stroke-linecap: round"/>
   </g>
   <g id="line2d_3">
    <path d="M 51.648 77.08 
L 51.648 69.88 
" clip-path="url(#p85337f112a)" style="fill: none; stroke: #000000; stroke-width: 2; stroke-linecap: round"/>
   </g>
   <g id="line2d_4">
    <path d="M 55.248 73.48 
L 48.048 73.48 
" clip-path="url(#p85337f112a)" style="fill: none; stroke: #000000; stroke-width: 2; stroke-linecap: round"/>
   </g>
   <g id="line2d_5">
    <path d="M 51.648 28.48 
L 87.648 28.48 
L 90.648 19.48 
L 96.648 37.48 
L 102.648 19.48 
L 108.648 37.48 
L 114.648 19.48 
L 120.648 37.48 
L 123.648 28.48 
L 159.648 28.48 
" clip-path="url(#p85337f112a)" style="fill: none; stroke: #000000; stroke-width: 2; stroke-linecap: round"/>
   </g>
   <g id="line2d_6">
    <path d="M 159.648 28.48 
L 195.648 28.48 
L 198.648 19.48 
L 204.648 37.48 
L 210.648 19.48 
L 216.648 37.48 
L 222.648 19.48 
L 228.648 37.48 
L 231.648 28.48 
L 267.648 28.48 
" clip-path="url(#p85337f112a)" style="fill: none; stroke: #000000; stroke-width: 2; stroke-linecap: round"/>
   </g>
   <g id="line2d_7">
    <path d="M 267.648 28.48 
L 267.648 64.48 
L 267.648 64.48 
M 267.648 100.48 
L 267.648 100.48 
L 267.648 136.48 
" clip-path="url(#p85337f112a)" style="fill: none; stroke: #000000; stroke-width: 2; stroke-linecap: round"/>
   </g>
   <g id="line2d_8">
    <path d="M 264.048 73.48 
L 271.248 73.48 
" clip-path="url(#p85337f112a)" style="fill: none; stroke: #000000; stroke-width: 2; stroke-linecap: round"/>
   </g>
   <g id="line2d_9">
    <path d="M 267.648 87.88 
L 267.648 95.08 
" clip-path="url(#p85337f112a)" style="fill: none; stroke: #000000; stroke-width: 2; stroke-linecap: round"/>
   </g>
   <g id="line2d_10">
    <path d="M 264.048 91.48 
L 271.248 91.48 
" clip-path="url(#p85337f112a)" style="fill: none; stroke: #000000; stroke-width: 2; stroke-linecap: round"/>
   </g>
   <g id="line2d_11">
    <path d="M 267.648 136.48 
L 213.648 136.48 
L 159.648 136.48 
" clip-path="url(#p85337f112a)" style="fill: none; stroke: #000000; stroke-width: 2; stroke-linecap: round"/>
   </g>
   <g id="line2d_12">
    <path d="M 159.648 136.48 
L 105.648 136.48 
L 51.648 136.48 
" clip-path="url(#p85337f112a)" style="fill: none; stroke: #000000; stroke-width: 2; stroke-linecap: round"/>
   </g>
   <g id="line2d_13">
    <path d="M 159.648 28.48 
L 159.648 64.48 
L 159.648 64.48 
M 159.648 100.48 
L 159.648 100.48 
L 159.648 136.48 
" clip-path="url(#p85337f112a)" style="fill: none; stroke: #000000; stroke-width: 2; stroke-linecap: round"/>
   </g>
   <g id="line2d_14">
    <path d="M 159.648 73.48 
L 159.648 82.48 
" clip-path="url(#p85337f112a)" style="fill: none; stroke: #000000; stroke-width: 2; stroke-linecap: round"/>
   </g>
   <g id="patch_9">
    <path d="M 162.348 82.48 
L 159.648 91.48 
L 156.948 82.48 
z
" clip-path="url(#p85337f112a)"/>
   </g>
   <g id="text_1">
    <!-- 21V -->
    <g transform="translate(2.656125 86.343125) scale(0.14 -0.14)">
     <defs>
      <path id="DejaVuSans-32" d="M 1228 531 
L 3431 531 
L 3431 0 
L 469 0 
L 469 531 
Q 828 903 1448 1529 
Q 2069 2156 2228 2338 
Q 2531 2678 2651 2914 
Q 2772 3150 2772 3378 
Q 2772 3750 2511 3984 
Q 2250 4219 1831 4219 
Q 1534 4219 1204 4116 
Q 875 4013 500 3803 
L 500 4441 
Q 881 4594 1212 4672 
Q 1544 4750 1819 4750 
Q 2544 4750 2975 4387 
Q 3406 4025 3406 3419 
Q 3406 3131 3298 2873 
Q 3191 2616 2906 2266 
Q 2828 2175 2409 1742 
Q 1991 1309 1228 531 
z
" transform="scale(0.015625)"/>
      <path id="DejaVuSans-31" d="M 794 531 
L 1825 531 
L 1825 4091 
L 703 3866 
L 703 4441 
L 1819 4666 
L 2450 4666 
L 2450 531 
L 3481 531 
L 3481 0 
L 794 0 
L 794 531 
z
" transform="scale(0.015625)"/>
      <path id="DejaVuSans-56" d="M 1831 0 
L 50 4666 
L 709 4666 
L 2188 738 
L 3669 4666 
L 4325 4666 
L 2547 0 
L 1831 0 
z
" transform="scale(0.015625)"/>
     </defs>
     <use xlink:href="#DejaVuSans-32"/>
     <use xlink:href="#DejaVuSans-31" x="63.623047"/>
     <use xlink:href="#DejaVuSans-56" x="127.246094"/>
    </g>
   </g>
   <g id="text_2">
    <!-- 6Ω -->
    <g transform="translate(95.844719 12.968437) scale(0.14 -0.14)">
     <defs>
      <path id="DejaVuSans-36" d="M 2113 2584 
Q 1688 2584 1439 2293 
Q 1191 2003 1191 1497 
Q 1191 994 1439 701 
Q 1688 409 2113 409 
Q 2538 409 2786 701 
Q 3034 994 3034 1497 
Q 3034 2003 2786 2293 
Q 2538 2584 2113 2584 
z
M 3366 4563 
L 3366 3988 
Q 3128 4100 2886 4159 
Q 2644 4219 2406 4219 
Q 1781 4219 1451 3797 
Q 1122 3375 1075 2522 
Q 1259 2794 1537 2939 
Q 1816 3084 2150 3084 
Q 2853 3084 3261 2657 
Q 3669 2231 3669 1497 
Q 3669 778 3244 343 
Q 2819 -91 2113 -91 
Q 1303 -91 875 529 
Q 447 1150 447 2328 
Q 447 3434 972 4092 
Q 1497 4750 2381 4750 
Q 2619 4750 2861 4703 
Q 3103 4656 3366 4563 
z
" transform="scale(0.015625)"/>
      <path id="DejaVuSans-3a9" d="M 4647 556 
L 4647 0 
L 2772 0 
L 2772 556 
Q 3325 859 3634 1378 
Q 3944 1897 3944 2528 
Q 3944 3278 3531 3731 
Q 3119 4184 2444 4184 
Q 1769 4184 1355 3729 
Q 941 3275 941 2528 
Q 941 1897 1250 1378 
Q 1563 859 2119 556 
L 2119 0 
L 244 0 
L 244 556 
L 1241 556 
Q 747 991 519 1456 
Q 294 1922 294 2497 
Q 294 3491 894 4106 
Q 1491 4722 2444 4722 
Q 3391 4722 3994 4106 
Q 4594 3494 4594 2528 
Q 4594 1922 4372 1459 
Q 4150 997 3647 556 
L 4647 556 
z
" transform="scale(0.015625)"/>
     </defs>
     <use xlink:href="#DejaVuSans-36"/>
     <use xlink:href="#DejaVuSans-3a9" x="63.623047"/>
    </g>
   </g>
   <g id="text_3">
    <!-- 4Ω -->
    <g transform="translate(203.844719 12.968437) scale(0.14 -0.14)">
     <defs>
      <path id="DejaVuSans-34" d="M 2419 4116 
L 825 1625 
L 2419 1625 
L 2419 4116 
z
M 2253 4666 
L 3047 4666 
L 3047 1625 
L 3713 1625 
L 3713 1100 
L 3047 1100 
L 3047 0 
L 2419 0 
L 2419 1100 
L 313 1100 
L 313 1709 
L 2253 4666 
z
" transform="scale(0.015625)"/>
     </defs>
     <use xlink:href="#DejaVuSans-34"/>
     <use xlink:href="#DejaVuSans-3a9" x="63.623047"/>
    </g>
   </g>
   <g id="text_4">
    <!-- 5V -->
    <g transform="translate(289.248 86.343125) scale(0.14 -0.14)">
     <defs>
      <path id="DejaVuSans-35" d="M 691 4666 
L 3169 4666 
L 3169 4134 
L 1269 4134 
L 1269 2991 
Q 1406 3038 1543 3061 
Q 1681 3084 1819 3084 
Q 2600 3084 3056 2656 
Q 3513 2228 3513 1497 
Q 3513 744 3044 326 
Q 2575 -91 1722 -91 
Q 1428 -91 1123 -41 
Q 819 9 494 109 
L 494 744 
Q 775 591 1075 516 
Q 1375 441 1709 441 
Q 2250 441 2565 725 
Q 2881 1009 2881 1497 
Q 2881 1984 2565 2268 
Q 2250 2553 1709 2553 
Q 1456 2553 1204 2497 
Q 953 2441 691 2322 
L 691 4666 
z
" transform="scale(0.015625)"/>
     </defs>
     <use xlink:href="#DejaVuSans-35"/>
     <use xlink:href="#DejaVuSans-56" x="63.623047"/>
    </g>
   </g>
   <g id="text_5">
    <!-- 1A -->
    <g transform="translate(181.248 86.343125) scale(0.14 -0.14)">
     <defs>
      <path id="DejaVuSans-41" d="M 2188 4044 
L 1331 1722 
L 3047 1722 
L 2188 4044 
z
M 1831 4666 
L 2547 4666 
L 4325 0 
L 3669 0 
L 3244 1197 
L 1141 1197 
L 716 0 
L 50 0 
L 1831 4666 
z
" transform="scale(0.015625)"/>
     </defs>
     <use xlink:href="#DejaVuSans-31"/>
     <use xlink:href="#DejaVuSans-41" x="63.623047"/>
    </g>
   </g>
   <g id="text_6">
    <!-- $i_1$ -->
    <g transform="translate(100.328 86.343125) scale(0.14 -0.14)">
     <defs>
      <path id="DejaVuSans-Oblique-69" d="M 1172 4863 
L 1747 4863 
L 1606 4134 
L 1031 4134 
L 1172 4863 
z
M 909 3500 
L 1484 3500 
L 800 0 
L 225 0 
L 909 3500 
z
" transform="scale(0.015625)"/>
     </defs>
     <use xlink:href="#DejaVuSans-Oblique-69" transform="translate(0 0.015625)"/>
     <use xlink:href="#DejaVuSans-31" transform="translate(27.783203 -16.390625) scale(0.7)"/>
    </g>
   </g>
   <g id="text_7">
    <!-- $i_2$ -->
    <g transform="translate(208.328 86.343125) scale(0.14 -0.14)">
     <use xlink:href="#DejaVuSans-Oblique-69" transform="translate(0 0.015625)"/>
     <use xlink:href="#DejaVuSans-32" transform="translate(27.783203 -16.390625) scale(0.7)"/>
    </g>
   </g>
   <g id="patch_10">
    <path d="M 159.648 31.18 
C 160.364048 31.18 161.050866 30.895511 161.557188 30.389188 
C 162.063511 29.882866 162.348 29.196048 162.348 28.48 
C 162.348 27.763952 162.063511 27.077134 161.557188 26.570812 
C 161.050866 26.064489 160.364048 25.78 159.648 25.78 
C 158.931952 25.78 158.245134 26.064489 157.738812 26.570812 
C 157.232489 27.077134 156.948 27.763952 156.948 28.48 
C 156.948 29.196048 157.232489 29.882866 157.738812 30.389188 
C 158.245134 30.895511 158.931952 31.18 159.648 31.18 
z
" clip-path="url(#p85337f112a)" style="stroke: #000000; stroke-width: 2; stroke-linejoin: miter"/>
   </g>
   <g id="patch_11">
    <path d="M 159.648 139.18 
C 160.364048 139.18 161.050866 138.895511 161.557188 138.389188 
C 162.063511 137.882866 162.348 137.196048 162.348 136.48 
C 162.348 135.763952 162.063511 135.077134 161.557188 134.570812 
C 161.050866 134.064489 160.364048 133.78 159.648 133.78 
C 158.931952 133.78 158.245134 134.064489 157.738812 134.570812 
C 157.232489 135.077134 156.948 135.763952 156.948 136.48 
C 156.948 137.196048 157.232489 137.882866 157.738812 138.389188 
C 158.245134 138.895511 158.931952 139.18 159.648 139.18 
z
" clip-path="url(#p85337f112a)" style="stroke: #000000; stroke-width: 2; stroke-linejoin: miter"/>
   </g>
  </g>
 </g>
 <defs>
  <clipPath id="p85337f112a">
   <rect x="0" y="0" width="311.316" height="143.86"/>
  </clipPath>
 </defs>
</svg>