<?xml version="1.0" encoding="utf-8" standalone="no"?>
<!DOCTYPE svg PUBLIC "-//W3C//DTD SVG 1.1//EN"
  "http://www.w3.org/Graphics/SVG/1.1/DTD/svg11.dtd">
<svg xmlns:xlink="http://www.w3.org/1999/xlink" width="243.36pt" height="126.36pt" viewBox="0 0 243.36 126.36" xmlns="http://www.w3.org/2000/svg" version="1.1">
 <metadata>
  <rdf:RDF xmlns:dc="http://purl.org/dc/elements/1.1/" xmlns:cc="http://creativecommons.org/ns#" xmlns:rdf="http://www.w3.org/1999/02/22-rdf-syntax-ns#">
   <cc:Work>
    <dc:type rdf:resource="http://purl.org/dc/dcmitype/StillImage"/>
    <dc:date>2024-10-23T13:48:35.499476</dc:date>
    <dc:format>image/svg+xml</dc:format>
    <dc:creator>
     <cc:Agent>
      <dc:title>Matplotlib v3.9.2, https://matplotlib.org/</dc:title>
     </cc:Agent>
    </dc:creator>
   </cc:Work>
  </rdf:RDF>
 </metadata>
 <defs>
  <style type="text/css">*{stroke-linejoin: round; stroke-linecap: butt}</style>
 </defs>
 <g id="figure_1">
  <g id="patch_1">
   <path d="M 0 126.36 
L 243.36 126.36 
L 243.36 0 
L 0 0 
z
" style="fill: #ffffff"/>
  </g>
  <g id="axes_1">
   <g id="patch_2">
    <path d="M 178.38 4.68 
L 190.98 13.68 
L 178.38 22.68 
L 178.38 4.68 
z
" clip-path="url(#p2935fbaf13)" style="fill: none; stroke: #000000; stroke-width: 2; stroke-linecap: round"/>
   </g>
   <g id="patch_3">
    <path d="M 22.68 85.68 
C 27.453656 85.68 32.032438 83.783406 35.407922 80.407922 
C 38.783406 77.032438 40.68 72.453656 40.68 67.68 
C 40.68 62.906344 38.783406 58.327562 35.407922 54.952078 
C 32.032438 51.576594 27.453656 49.68 22.68 49.68 
C 17.906344 49.68 13.327562 51.576594 9.952078 54.952078 
C 6.576594 58.327562 4.68 62.906344 4.68 67.68 
C 4.68 72.453656 6.576594 77.032438 9.952078 80.407922 
C 13.327562 83.783406 17.906344 85.68 22.68 85.68 
L 22.68 85.68 
z
" clip-path="url(#p2935fbaf13)" style="fill: none; stroke: #000000; stroke-width: 2; stroke-linejoin: miter"/>
   </g>
   <g id="line2d_1">
    <path d="M 22.68 13.68 
L 73.44 13.68 
M 73.44 4.68 
L 73.44 22.68 
M 79.92 4.68 
L 79.92 22.68 
M 79.92 13.68 
L 130.68 13.68 
" clip-path="url(#p2935fbaf13)" style="fill: none; stroke: #000000; stroke-width: 2; stroke-linecap: round"/>
   </g>
   <g id="line2d_2">
    <path d="M 130.68 13.68 
L 178.38 13.68 
M 190.98 4.68 
L 190.98 22.68 
M 190.98 13.68 
L 238.68 13.68 
" clip-path="url(#p2935fbaf13)" style="fill: none; stroke: #000000; stroke-width: 2; stroke-linecap: round"/>
   </g>
   <g id="line2d_3">
    <path d="M 238.68 13.68 
L 238.68 67.68 
L 238.68 121.68 
" clip-path="url(#p2935fbaf13)" style="fill: none; stroke: #000000; stroke-width: 2; stroke-linecap: round"/>
   </g>
   <g id="line2d_4">
    <path d="M 238.68 121.68 
L 130.68 121.68 
L 22.68 121.68 
" clip-path="url(#p2935fbaf13)" style="fill: none; stroke: #000000; stroke-width: 2; stroke-linecap: round"/>
   </g>
   <g id="line2d_5">
    <path d="M 22.68 121.68 
L 22.68 85.68 
L 22.68 85.68 
M 22.68 49.68 
L 22.68 49.68 
L 22.68 13.68 
" clip-path="url(#p2935fbaf13)" style="fill: none; stroke: #000000; stroke-width: 2; stroke-linecap: round"/>
   </g>
  </g>
 </g>
 <defs>
  <clipPath id="p2935fbaf13">
   <rect x="0" y="-0" width="243.36" height="126.36"/>
  </clipPath>
 </defs>
</svg>