<?xml version="1.0" encoding="utf-8" standalone="no"?>
<!DOCTYPE svg PUBLIC "-//W3C//DTD SVG 1.1//EN"
  "http://www.w3.org/Graphics/SVG/1.1/DTD/svg11.dtd">
<svg xmlns:xlink="http://www.w3.org/1999/xlink" width="191.339978pt" height="142.96pt" viewBox="0 0 191.339978 142.96" xmlns="http://www.w3.org/2000/svg" version="1.1">
 <metadata>
  <rdf:RDF xmlns:dc="http://purl.org/dc/elements/1.1/" xmlns:cc="http://creativecommons.org/ns#" xmlns:rdf="http://www.w3.org/1999/02/22-rdf-syntax-ns#">
   <cc:Work>
    <dc:type rdf:resource="http://purl.org/dc/dcmitype/StillImage"/>
    <dc:date>2024-10-23T13:48:45.160429</dc:date>
    <dc:format>image/svg+xml</dc:format>
    <dc:creator>
     <cc:Agent>
      <dc:title>Matplotlib v3.9.2, https://matplotlib.org/</dc:title>
     </cc:Agent>
    </dc:creator>
   </cc:Work>
  </rdf:RDF>
 </metadata>
 <defs>
  <style type="text/css">*{stroke-linejoin: round; stroke-linecap: butt}</style>
 </defs>
 <g id="figure_1">
  <g id="patch_1">
   <path d="M 0 142.96 
L 191.339978 142.96 
L 191.339978 0 
L 0 0 
z
" style="fill: #ffffff"/>
  </g>
  <g id="axes_1">
   <g id="patch_2">
    <path d="M 126.18 75.28 
C 127.373016 75.28 128.51839 74.805571 129.361981 73.961981 
C 130.205571 73.11839 130.68 71.973016 130.68 70.78 
C 130.68 69.586984 130.205571 68.44161 129.361981 67.598019 
C 128.51839 66.754429 127.373016 66.28 126.18 66.28 
" clip-path="url(#p3a4bad0f06)" style="fill: none; stroke: #000000; stroke-width: 2; stroke-linejoin: miter"/>
   </g>
   <g id="patch_3">
    <path d="M 126.18 84.28 
C 127.373016 84.28 128.51839 83.805571 129.361981 82.961981 
C 130.205571 82.11839 130.68 80.973016 130.68 79.78 
C 130.68 78.586984 130.205571 77.44161 129.361981 76.598019 
C 128.51839 75.754429 127.373016 75.28 126.18 75.28 
" clip-path="url(#p3a4bad0f06)" style="fill: none; stroke: #000000; stroke-width: 2; stroke-linejoin: miter"/>
   </g>
   <g id="patch_4">
    <path d="M 126.18 93.28 
C 127.373016 93.28 128.51839 92.805571 129.361981 91.961981 
C 130.205571 91.11839 130.68 89.973016 130.68 88.78 
C 130.68 87.586984 130.205571 86.44161 129.361981 85.598019 
C 128.51839 84.754429 127.373016 84.28 126.18 84.28 
" clip-path="url(#p3a4bad0f06)" style="fill: none; stroke: #000000; stroke-width: 2; stroke-linejoin: miter"/>
   </g>
   <g id="patch_5">
    <path d="M 126.18 102.28 
C 127.373016 102.28 128.51839 101.805571 129.361981 100.961981 
C 130.205571 100.11839 130.68 98.973016 130.68 97.78 
C 130.68 96.586984 130.205571 95.44161 129.361981 94.598019 
C 128.51839 93.754429 127.373016 93.28 126.18 93.28 
" clip-path="url(#p3a4bad0f06)" style="fill: none; stroke: #000000; stroke-width: 2; stroke-linejoin: miter"/>
   </g>
   <g id="line2d_1">
    <path d="M 18.18 30.28 
L 72.18 30.28 
L 126.18 30.28 
" clip-path="url(#p3a4bad0f06)" style="fill: none; stroke: #000000; stroke-width: 2; stroke-linecap: round"/>
   </g>
   <g id="line2d_2">
    <path d="M 66.78 30.28 
L 66.78 30.28 
" clip-path="url(#p3a4bad0f06)" style="fill: none; stroke: #000000; stroke-width: 4; stroke-linecap: round"/>
   </g>
   <g id="patch_6">
    <path d="M 66.78 27.58 
L 75.78 30.28 
L 66.78 32.98 
z
" clip-path="url(#p3a4bad0f06)"/>
   </g>
   <g id="line2d_3">
    <path d="M 126.18 30.28 
L 126.18 66.28 
M 126.18 102.28 
L 126.18 138.28 
" clip-path="url(#p3a4bad0f06)" style="fill: none; stroke: #000000; stroke-width: 2; stroke-linecap: round"/>
   </g>
   <g id="line2d_4">
    <path d="M 126.18 138.28 
L 72.18 138.28 
L 18.18 138.28 
" clip-path="url(#p3a4bad0f06)" style="fill: none; stroke: #000000; stroke-width: 2; stroke-linecap: round"/>
   </g>
   <g id="line2d_5">
    <path d="M 18.18 138.28 
L 18.18 87.655 
M 18.18 80.905 
L 18.18 30.28 
" clip-path="url(#p3a4bad0f06)" style="fill: none; stroke: #000000; stroke-width: 2; stroke-linecap: round"/>
   </g>
   <g id="line2d_6">
    <path d="M 31.68 80.905 
L 4.68 80.905 
" clip-path="url(#p3a4bad0f06)" style="fill: none; stroke: #000000; stroke-width: 2; stroke-linecap: round"/>
   </g>
   <g id="line2d_7">
    <path d="M 24.93 87.655 
L 11.43 87.655 
" clip-path="url(#p3a4bad0f06)" style="fill: none; stroke: #000000; stroke-width: 2; stroke-linecap: round"/>
   </g>
   <g id="line2d_8">
    <path d="M 136.079978 48.28 
L 136.079978 109.48 
" clip-path="url(#p3a4bad0f06)" style="fill: none; stroke: #000000; stroke-width: 2; stroke-linecap: round"/>
   </g>
   <g id="patch_7">
    <path d="M 139.679978 109.48 
L 136.079978 120.28 
L 132.479978 109.48 
z
" clip-path="url(#p3a4bad0f06)"/>
   </g>
   <g id="text_1">
    <!-- $ i_t $ -->
    <g transform="translate(67.22 12.968437) scale(0.14 -0.14)">
     <defs>
      <path id="DejaVuSans-Oblique-69" d="M 1172 4863 
L 1747 4863 
L 1606 4134 
L 1031 4134 
L 1172 4863 
z
M 909 3500 
L 1484 3500 
L 800 0 
L 225 0 
L 909 3500 
z
" transform="scale(0.015625)"/>
      <path id="DejaVuSans-Oblique-74" d="M 2706 3500 
L 2619 3053 
L 1472 3053 
L 1100 1153 
Q 1081 1047 1072 975 
Q 1063 903 1063 863 
Q 1063 663 1183 572 
Q 1303 481 1569 481 
L 2150 481 
L 2053 0 
L 1503 0 
Q 991 0 739 200 
Q 488 400 488 806 
Q 488 878 497 964 
Q 506 1050 525 1153 
L 897 3053 
L 409 3053 
L 500 3500 
L 978 3500 
L 1172 4494 
L 1747 4494 
L 1556 3500 
L 2706 3500 
z
" transform="scale(0.015625)"/>
     </defs>
     <use xlink:href="#DejaVuSans-Oblique-69" transform="translate(0 0.015625)"/>
     <use xlink:href="#DejaVuSans-Oblique-74" transform="translate(27.783203 -16.390625) scale(0.7)"/>
    </g>
   </g>
   <g id="text_2">
    <!-- L -->
    <g transform="translate(114.779375 88.143125) scale(0.14 -0.14)">
     <defs>
      <path id="DejaVuSans-4c" d="M 628 4666 
L 1259 4666 
L 1259 531 
L 3531 531 
L 3531 0 
L 628 0 
L 628 4666 
z
" transform="scale(0.015625)"/>
     </defs>
     <use xlink:href="#DejaVuSans-4c"/>
    </g>
   </g>
   <g id="text_3">
    <!-- $i(0) = I_0$ -->
    <g transform="translate(139.679978 88.143125) scale(0.14 -0.14)">
     <defs>
      <path id="DejaVuSans-28" d="M 1984 4856 
Q 1566 4138 1362 3434 
Q 1159 2731 1159 2009 
Q 1159 1288 1364 580 
Q 1569 -128 1984 -844 
L 1484 -844 
Q 1016 -109 783 600 
Q 550 1309 550 2009 
Q 550 2706 781 3412 
Q 1013 4119 1484 4856 
L 1984 4856 
z
" transform="scale(0.015625)"/>
      <path id="DejaVuSans-30" d="M 2034 4250 
Q 1547 4250 1301 3770 
Q 1056 3291 1056 2328 
Q 1056 1369 1301 889 
Q 1547 409 2034 409 
Q 2525 409 2770 889 
Q 3016 1369 3016 2328 
Q 3016 3291 2770 3770 
Q 2525 4250 2034 4250 
z
M 2034 4750 
Q 2819 4750 3233 4129 
Q 3647 3509 3647 2328 
Q 3647 1150 3233 529 
Q 2819 -91 2034 -91 
Q 1250 -91 836 529 
Q 422 1150 422 2328 
Q 422 3509 836 4129 
Q 1250 4750 2034 4750 
z
" transform="scale(0.015625)"/>
      <path id="DejaVuSans-29" d="M 513 4856 
L 1013 4856 
Q 1481 4119 1714 3412 
Q 1947 2706 1947 2009 
Q 1947 1309 1714 600 
Q 1481 -109 1013 -844 
L 513 -844 
Q 928 -128 1133 580 
Q 1338 1288 1338 2009 
Q 1338 2731 1133 3434 
Q 928 4138 513 4856 
z
" transform="scale(0.015625)"/>
      <path id="DejaVuSans-3d" d="M 678 2906 
L 4684 2906 
L 4684 2381 
L 678 2381 
L 678 2906 
z
M 678 1631 
L 4684 1631 
L 4684 1100 
L 678 1100 
L 678 1631 
z
" transform="scale(0.015625)"/>
      <path id="DejaVuSans-Oblique-49" d="M 1081 4666 
L 1716 4666 
L 806 0 
L 172 0 
L 1081 4666 
z
" transform="scale(0.015625)"/>
     </defs>
     <use xlink:href="#DejaVuSans-Oblique-69" transform="translate(0 0.015625)"/>
     <use xlink:href="#DejaVuSans-28" transform="translate(27.783203 0.015625)"/>
     <use xlink:href="#DejaVuSans-30" transform="translate(66.796875 0.015625)"/>
     <use xlink:href="#DejaVuSans-29" transform="translate(130.419922 0.015625)"/>
     <use xlink:href="#DejaVuSans-3d" transform="translate(188.916016 0.015625)"/>
     <use xlink:href="#DejaVuSans-Oblique-49" transform="translate(292.1875 0.015625)"/>
     <use xlink:href="#DejaVuSans-30" transform="translate(321.679688 -16.390625) scale(0.7)"/>
    </g>
   </g>
  </g>
 </g>
 <defs>
  <clipPath id="p3a4bad0f06">
   <rect x="0" y="0" width="190.223978" height="142.96"/>
  </clipPath>
 </defs>
</svg>