<?xml version="1.0" encoding="utf-8" standalone="no"?>
<!DOCTYPE svg PUBLIC "-//W3C//DTD SVG 1.1//EN"
  "http://www.w3.org/Graphics/SVG/1.1/DTD/svg11.dtd">
<svg xmlns:xlink="http://www.w3.org/1999/xlink" width="66.348pt" height="140.4pt" viewBox="0 0 66.348 140.4" xmlns="http://www.w3.org/2000/svg" version="1.1">
 <metadata>
  <rdf:RDF xmlns:dc="http://purl.org/dc/elements/1.1/" xmlns:cc="http://creativecommons.org/ns#" xmlns:rdf="http://www.w3.org/1999/02/22-rdf-syntax-ns#">
   <cc:Work>
    <dc:type rdf:resource="http://purl.org/dc/dcmitype/StillImage"/>
    <dc:date>2024-09-19T18:43:10.675900</dc:date>
    <dc:format>image/svg+xml</dc:format>
    <dc:creator>
     <cc:Agent>
      <dc:title>Matplotlib v3.9.2, https://matplotlib.org/</dc:title>
     </cc:Agent>
    </dc:creator>
   </cc:Work>
  </rdf:RDF>
 </metadata>
 <defs>
  <style type="text/css">*{stroke-linejoin: round; stroke-linecap: butt}</style>
 </defs>
 <g id="figure_1">
  <g id="patch_1">
   <path d="M 0 140.4 
L 66.348 140.4 
L 66.348 0 
L 0 0 
z
" style="fill: #ffffff"/>
  </g>
  <g id="axes_1">
   <g id="patch_2">
    <path d="M 43.668 76.68 
C 48.441656 76.68 53.020438 74.783406 56.395922 71.407922 
C 59.771406 68.032438 61.668 63.453656 61.668 58.68 
C 61.668 53.906344 59.771406 49.327562 56.395922 45.952078 
C 53.020438 42.576594 48.441656 40.68 43.668 40.68 
C 38.894344 40.68 34.315562 42.576594 30.940078 45.952078 
C 27.564594 49.327562 25.668 53.906344 25.668 58.68 
C 25.668 63.453656 27.564594 68.032438 30.940078 71.407922 
C 34.315562 74.783406 38.894344 76.68 43.668 76.68 
L 43.668 76.68 
z
" clip-path="url(#p3ea3ae9345)" style="fill: none; stroke: #000000; stroke-width: 2; stroke-linejoin: miter"/>
   </g>
   <g id="line2d_1">
    <path d="M 43.668 112.68 
L 43.668 76.68 
L 43.668 76.68 
M 43.668 40.68 
L 43.668 40.68 
L 43.668 4.68 
" clip-path="url(#p3ea3ae9345)" style="fill: none; stroke: #000000; stroke-width: 2; stroke-linecap: round"/>
   </g>
   <g id="line2d_2">
    <path d="M 47.268 67.68 
L 40.068 67.68 
" clip-path="url(#p3ea3ae9345)" style="fill: none; stroke: #000000; stroke-width: 2; stroke-linecap: round"/>
   </g>
   <g id="line2d_3">
    <path d="M 43.668 53.28 
L 43.668 46.08 
" clip-path="url(#p3ea3ae9345)" style="fill: none; stroke: #000000; stroke-width: 2; stroke-linecap: round"/>
   </g>
   <g id="line2d_4">
    <path d="M 47.268 49.68 
L 40.068 49.68 
" clip-path="url(#p3ea3ae9345)" style="fill: none; stroke: #000000; stroke-width: 2; stroke-linecap: round"/>
   </g>
   <g id="line2d_5">
    <path d="M 43.668 4.68 
L 43.668 40.68 
L 52.668 43.68 
L 34.668 49.68 
L 52.668 55.68 
L 34.668 61.68 
L 52.668 67.68 
L 34.668 73.68 
L 43.668 76.68 
L 43.668 112.68 
" clip-path="url(#p3ea3ae9345)" style="fill: none; stroke: #000000; stroke-width: 2; stroke-linecap: round"/>
   </g>
   <g id="line2d_6">
    <path d="M 43.668 112.68 
L 43.668 127.08 
L 34.668 127.08 
L 52.668 127.08 
M 37.368 131.4 
L 49.968 131.4 
M 41.868 135.72 
L 45.468 135.72 
" clip-path="url(#p3ea3ae9345)" style="fill: none; stroke: #000000; stroke-width: 2; stroke-linecap: round"/>
   </g>
   <g id="text_1">
    <!-- V1 -->
    <g transform="translate(3.583625 62.543125) scale(0.14 -0.14)">
     <defs>
      <path id="DejaVuSans-56" d="M 1831 0 
L 50 4666 
L 709 4666 
L 2188 738 
L 3669 4666 
L 4325 4666 
L 2547 0 
L 1831 0 
z
" transform="scale(0.015625)"/>
      <path id="DejaVuSans-31" d="M 794 531 
L 1825 531 
L 1825 4091 
L 703 3866 
L 703 4441 
L 1819 4666 
L 2450 4666 
L 2450 531 
L 3481 531 
L 3481 0 
L 794 0 
L 794 531 
z
" transform="scale(0.015625)"/>
     </defs>
     <use xlink:href="#DejaVuSans-56"/>
     <use xlink:href="#DejaVuSans-31" x="68.408203"/>
    </g>
   </g>
   <g id="text_2">
    <!-- R1 -->
    <g transform="translate(12.432688 62.543125) scale(0.14 -0.14)">
     <defs>
      <path id="DejaVuSans-52" d="M 2841 2188 
Q 3044 2119 3236 1894 
Q 3428 1669 3622 1275 
L 4263 0 
L 3584 0 
L 2988 1197 
Q 2756 1666 2539 1819 
Q 2322 1972 1947 1972 
L 1259 1972 
L 1259 0 
L 628 0 
L 628 4666 
L 2053 4666 
Q 2853 4666 3247 4331 
Q 3641 3997 3641 3322 
Q 3641 2881 3436 2590 
Q 3231 2300 2841 2188 
z
M 1259 4147 
L 1259 2491 
L 2053 2491 
Q 2509 2491 2742 2702 
Q 2975 2913 2975 3322 
Q 2975 3731 2742 3939 
Q 2509 4147 2053 4147 
L 1259 4147 
z
" transform="scale(0.015625)"/>
     </defs>
     <use xlink:href="#DejaVuSans-52"/>
     <use xlink:href="#DejaVuSans-31" x="69.482422"/>
    </g>
   </g>
  </g>
 </g>
 <defs>
  <clipPath id="p3ea3ae9345">
   <rect x="0" y="0" width="66.348" height="140.4"/>
  </clipPath>
 </defs>
</svg>