<?xml version="1.0" encoding="utf-8" standalone="no"?>
<!DOCTYPE svg PUBLIC "-//W3C//DTD SVG 1.1//EN"
  "http://www.w3.org/Graphics/SVG/1.1/DTD/svg11.dtd">
<svg xmlns:xlink="http://www.w3.org/1999/xlink" width="393.4pt" height="140.48pt" viewBox="0 0 393.4 140.48" xmlns="http://www.w3.org/2000/svg" version="1.1">
 <metadata>
  <rdf:RDF xmlns:dc="http://purl.org/dc/elements/1.1/" xmlns:cc="http://creativecommons.org/ns#" xmlns:rdf="http://www.w3.org/1999/02/22-rdf-syntax-ns#">
   <cc:Work>
    <dc:type rdf:resource="http://purl.org/dc/dcmitype/StillImage"/>
    <dc:date>2024-10-24T14:42:53.091501</dc:date>
    <dc:format>image/svg+xml</dc:format>
    <dc:creator>
     <cc:Agent>
      <dc:title>Matplotlib v3.9.2, https://matplotlib.org/</dc:title>
     </cc:Agent>
    </dc:creator>
   </cc:Work>
  </rdf:RDF>
 </metadata>
 <defs>
  <style type="text/css">*{stroke-linejoin: round; stroke-linecap: butt}</style>
 </defs>
 <g id="figure_1">
  <g id="patch_1">
   <path d="M 0 140.48 
L 393.4 140.48 
L 393.4 0 
L 0 0 
z
" style="fill: #ffffff"/>
  </g>
  <g id="axes_1">
   <g id="line2d_1">
    <path d="M 58.42 129.5 
L 58.42 97.1 
L 52.12 97.1 
L 52.12 53.9 
L 64.72 53.9 
L 64.72 97.1 
L 58.42 97.1 
M 58.42 53.9 
L 58.42 21.5 
" clip-path="url(#pc641ccefb4)" style="fill: none; stroke: #000000; stroke-width: 2; stroke-linecap: round"/>
   </g>
   <g id="line2d_2">
    <path d="M 58.42 21.5 
L 90.82 21.5 
L 90.82 15.2 
L 134.02 15.2 
L 134.02 27.8 
L 90.82 27.8 
L 90.82 21.5 
M 134.02 21.5 
L 166.42 21.5 
" clip-path="url(#pc641ccefb4)" style="fill: none; stroke: #000000; stroke-width: 2; stroke-linecap: round"/>
   </g>
   <g id="line2d_3">
    <path d="M 166.42 21.5 
L 166.42 53.9 
L 172.72 53.9 
L 172.72 97.1 
L 160.12 97.1 
L 160.12 53.9 
L 166.42 53.9 
M 166.42 97.1 
L 166.42 129.5 
" clip-path="url(#pc641ccefb4)" style="fill: none; stroke: #000000; stroke-width: 2; stroke-linecap: round"/>
   </g>
   <g id="line2d_4">
    <path d="M 166.42 129.5 
L 134.02 129.5 
L 134.02 135.8 
L 90.82 135.8 
L 90.82 123.2 
L 134.02 123.2 
L 134.02 129.5 
M 90.82 129.5 
L 58.42 129.5 
" clip-path="url(#pc641ccefb4)" style="fill: none; stroke: #000000; stroke-width: 2; stroke-linecap: round"/>
   </g>
   <g id="line2d_5">
    <path d="M 166.42 21.5 
L 198.82 21.5 
L 198.82 15.2 
L 242.02 15.2 
L 242.02 27.8 
L 198.82 27.8 
L 198.82 21.5 
M 242.02 21.5 
L 274.42 21.5 
" clip-path="url(#pc641ccefb4)" style="fill: none; stroke: #000000; stroke-width: 2; stroke-linecap: round"/>
   </g>
   <g id="line2d_6">
    <path d="M 274.42 21.5 
L 306.82 21.5 
L 306.82 15.2 
L 350.02 15.2 
L 350.02 27.8 
L 306.82 27.8 
L 306.82 21.5 
M 350.02 21.5 
L 382.42 21.5 
" clip-path="url(#pc641ccefb4)" style="fill: none; stroke: #000000; stroke-width: 2; stroke-linecap: round"/>
   </g>
   <g id="line2d_7">
    <path d="M 382.42 21.5 
L 382.42 53.9 
L 388.72 53.9 
L 388.72 97.1 
L 376.12 97.1 
L 376.12 53.9 
L 382.42 53.9 
M 382.42 97.1 
L 382.42 129.5 
" clip-path="url(#pc641ccefb4)" style="fill: none; stroke: #000000; stroke-width: 2; stroke-linecap: round"/>
   </g>
   <g id="line2d_8">
    <path d="M 382.42 129.5 
L 296.02 129.5 
L 296.02 135.8 
L 252.82 135.8 
L 252.82 123.2 
L 296.02 123.2 
L 296.02 129.5 
M 252.82 129.5 
L 166.42 129.5 
" clip-path="url(#pc641ccefb4)" style="fill: none; stroke: #000000; stroke-width: 2; stroke-linecap: round"/>
   </g>
   <g id="text_1">
    <!-- - -->
    <g transform="translate(45.992188 105.259375) scale(0.1 -0.1)">
     <defs>
      <path id="DejaVuSans-2d" d="M 313 2009 
L 1997 2009 
L 1997 1497 
L 313 1497 
L 313 2009 
z
" transform="scale(0.015625)"/>
     </defs>
     <use xlink:href="#DejaVuSans-2d"/>
    </g>
   </g>
   <g id="text_2">
    <!-- $v1=100v$ -->
    <g transform="translate(0 78.259375) scale(0.1 -0.1)">
     <defs>
      <path id="DejaVuSans-Oblique-76" d="M 459 3500 
L 1069 3500 
L 1581 525 
L 3256 3500 
L 3866 3500 
L 1875 0 
L 1100 0 
L 459 3500 
z
" transform="scale(0.015625)"/>
      <path id="DejaVuSans-31" d="M 794 531 
L 1825 531 
L 1825 4091 
L 703 3866 
L 703 4441 
L 1819 4666 
L 2450 4666 
L 2450 531 
L 3481 531 
L 3481 0 
L 794 0 
L 794 531 
z
" transform="scale(0.015625)"/>
      <path id="DejaVuSans-3d" d="M 678 2906 
L 4684 2906 
L 4684 2381 
L 678 2381 
L 678 2906 
z
M 678 1631 
L 4684 1631 
L 4684 1100 
L 678 1100 
L 678 1631 
z
" transform="scale(0.015625)"/>
      <path id="DejaVuSans-30" d="M 2034 4250 
Q 1547 4250 1301 3770 
Q 1056 3291 1056 2328 
Q 1056 1369 1301 889 
Q 1547 409 2034 409 
Q 2525 409 2770 889 
Q 3016 1369 3016 2328 
Q 3016 3291 2770 3770 
Q 2525 4250 2034 4250 
z
M 2034 4750 
Q 2819 4750 3233 4129 
Q 3647 3509 3647 2328 
Q 3647 1150 3233 529 
Q 2819 -91 2034 -91 
Q 1250 -91 836 529 
Q 422 1150 422 2328 
Q 422 3509 836 4129 
Q 1250 4750 2034 4750 
z
" transform="scale(0.015625)"/>
     </defs>
     <use xlink:href="#DejaVuSans-Oblique-76" transform="translate(0 0.78125)"/>
     <use xlink:href="#DejaVuSans-31" transform="translate(59.179688 0.78125)"/>
     <use xlink:href="#DejaVuSans-3d" transform="translate(142.285156 0.78125)"/>
     <use xlink:href="#DejaVuSans-31" transform="translate(245.556641 0.78125)"/>
     <use xlink:href="#DejaVuSans-30" transform="translate(309.179688 0.78125)"/>
     <use xlink:href="#DejaVuSans-30" transform="translate(372.802734 0.78125)"/>
     <use xlink:href="#DejaVuSans-Oblique-76" transform="translate(436.425781 0.78125)"/>
    </g>
   </g>
   <g id="text_3">
    <!-- + -->
    <g transform="translate(41.220312 51.259375) scale(0.1 -0.1)">
     <defs>
      <path id="DejaVuSans-2b" d="M 2944 4013 
L 2944 2272 
L 4684 2272 
L 4684 1741 
L 2944 1741 
L 2944 0 
L 2419 0 
L 2419 1741 
L 678 1741 
L 678 2272 
L 2419 2272 
L 2419 4013 
L 2944 4013 
z
" transform="scale(0.015625)"/>
     </defs>
     <use xlink:href="#DejaVuSans-2b"/>
    </g>
   </g>
   <g id="text_4">
    <!-- - -->
    <g transform="translate(83.616094 10.600313) scale(0.1 -0.1)">
     <use xlink:href="#DejaVuSans-2d"/>
    </g>
   </g>
   <g id="text_5">
    <!-- $v2=50v$ -->
    <g transform="translate(90.82 10.600313) scale(0.1 -0.1)">
     <defs>
      <path id="DejaVuSans-32" d="M 1228 531 
L 3431 531 
L 3431 0 
L 469 0 
L 469 531 
Q 828 903 1448 1529 
Q 2069 2156 2228 2338 
Q 2531 2678 2651 2914 
Q 2772 3150 2772 3378 
Q 2772 3750 2511 3984 
Q 2250 4219 1831 4219 
Q 1534 4219 1204 4116 
Q 875 4013 500 3803 
L 500 4441 
Q 881 4594 1212 4672 
Q 1544 4750 1819 4750 
Q 2544 4750 2975 4387 
Q 3406 4025 3406 3419 
Q 3406 3131 3298 2873 
Q 3191 2616 2906 2266 
Q 2828 2175 2409 1742 
Q 1991 1309 1228 531 
z
" transform="scale(0.015625)"/>
      <path id="DejaVuSans-35" d="M 691 4666 
L 3169 4666 
L 3169 4134 
L 1269 4134 
L 1269 2991 
Q 1406 3038 1543 3061 
Q 1681 3084 1819 3084 
Q 2600 3084 3056 2656 
Q 3513 2228 3513 1497 
Q 3513 744 3044 326 
Q 2575 -91 1722 -91 
Q 1428 -91 1123 -41 
Q 819 9 494 109 
L 494 744 
Q 775 591 1075 516 
Q 1375 441 1709 441 
Q 2250 441 2565 725 
Q 2881 1009 2881 1497 
Q 2881 1984 2565 2268 
Q 2250 2553 1709 2553 
Q 1456 2553 1204 2497 
Q 953 2441 691 2322 
L 691 4666 
z
" transform="scale(0.015625)"/>
     </defs>
     <use xlink:href="#DejaVuSans-Oblique-76" transform="translate(0 0.78125)"/>
     <use xlink:href="#DejaVuSans-32" transform="translate(59.179688 0.78125)"/>
     <use xlink:href="#DejaVuSans-3d" transform="translate(142.285156 0.78125)"/>
     <use xlink:href="#DejaVuSans-35" transform="translate(245.556641 0.78125)"/>
     <use xlink:href="#DejaVuSans-30" transform="translate(309.179688 0.78125)"/>
     <use xlink:href="#DejaVuSans-Oblique-76" transform="translate(372.802734 0.78125)"/>
    </g>
   </g>
   <g id="text_6">
    <!-- + -->
    <g transform="translate(135.230156 10.600313) scale(0.1 -0.1)">
     <use xlink:href="#DejaVuSans-2b"/>
    </g>
   </g>
   <g id="text_7">
    <!-- - -->
    <g transform="translate(153.992187 51.259375) scale(0.1 -0.1)">
     <use xlink:href="#DejaVuSans-2d"/>
    </g>
   </g>
   <g id="text_8">
    <!-- $v3=50v$ -->
    <g transform="translate(114.4 78.259375) scale(0.1 -0.1)">
     <defs>
      <path id="DejaVuSans-33" d="M 2597 2516 
Q 3050 2419 3304 2112 
Q 3559 1806 3559 1356 
Q 3559 666 3084 287 
Q 2609 -91 1734 -91 
Q 1441 -91 1130 -33 
Q 819 25 488 141 
L 488 750 
Q 750 597 1062 519 
Q 1375 441 1716 441 
Q 2309 441 2620 675 
Q 2931 909 2931 1356 
Q 2931 1769 2642 2001 
Q 2353 2234 1838 2234 
L 1294 2234 
L 1294 2753 
L 1863 2753 
Q 2328 2753 2575 2939 
Q 2822 3125 2822 3475 
Q 2822 3834 2567 4026 
Q 2313 4219 1838 4219 
Q 1578 4219 1281 4162 
Q 984 4106 628 3988 
L 628 4550 
Q 988 4650 1302 4700 
Q 1616 4750 1894 4750 
Q 2613 4750 3031 4423 
Q 3450 4097 3450 3541 
Q 3450 3153 3228 2886 
Q 3006 2619 2597 2516 
z
" transform="scale(0.015625)"/>
     </defs>
     <use xlink:href="#DejaVuSans-Oblique-76" transform="translate(0 0.78125)"/>
     <use xlink:href="#DejaVuSans-33" transform="translate(59.179688 0.78125)"/>
     <use xlink:href="#DejaVuSans-3d" transform="translate(142.285156 0.78125)"/>
     <use xlink:href="#DejaVuSans-35" transform="translate(245.556641 0.78125)"/>
     <use xlink:href="#DejaVuSans-30" transform="translate(309.179688 0.78125)"/>
     <use xlink:href="#DejaVuSans-Oblique-76" transform="translate(372.802734 0.78125)"/>
    </g>
   </g>
   <g id="text_9">
    <!-- + -->
    <g transform="translate(149.220312 105.259375) scale(0.1 -0.1)">
     <use xlink:href="#DejaVuSans-2b"/>
    </g>
   </g>
   <g id="text_10">
    <!-- + -->
    <g transform="translate(135.230156 118.600313) scale(0.1 -0.1)">
     <use xlink:href="#DejaVuSans-2b"/>
    </g>
   </g>
   <g id="text_11">
    <!-- $v4=200v$ -->
    <g transform="translate(87.62 118.600312) scale(0.1 -0.1)">
     <defs>
      <path id="DejaVuSans-34" d="M 2419 4116 
L 825 1625 
L 2419 1625 
L 2419 4116 
z
M 2253 4666 
L 3047 4666 
L 3047 1625 
L 3713 1625 
L 3713 1100 
L 3047 1100 
L 3047 0 
L 2419 0 
L 2419 1100 
L 313 1100 
L 313 1709 
L 2253 4666 
z
" transform="scale(0.015625)"/>
     </defs>
     <use xlink:href="#DejaVuSans-Oblique-76" transform="translate(0 0.78125)"/>
     <use xlink:href="#DejaVuSans-34" transform="translate(59.179688 0.78125)"/>
     <use xlink:href="#DejaVuSans-3d" transform="translate(142.285156 0.78125)"/>
     <use xlink:href="#DejaVuSans-32" transform="translate(245.556641 0.78125)"/>
     <use xlink:href="#DejaVuSans-30" transform="translate(309.179688 0.78125)"/>
     <use xlink:href="#DejaVuSans-30" transform="translate(372.802734 0.78125)"/>
     <use xlink:href="#DejaVuSans-Oblique-76" transform="translate(436.425781 0.78125)"/>
    </g>
   </g>
   <g id="text_12">
    <!-- - -->
    <g transform="translate(83.616094 118.600312) scale(0.1 -0.1)">
     <use xlink:href="#DejaVuSans-2d"/>
    </g>
   </g>
   <g id="text_13">
    <!-- - -->
    <g transform="translate(191.616094 10.600313) scale(0.1 -0.1)">
     <use xlink:href="#DejaVuSans-2d"/>
    </g>
   </g>
   <g id="text_14">
    <!-- $v5=100v$ -->
    <g transform="translate(195.62 10.600313) scale(0.1 -0.1)">
     <use xlink:href="#DejaVuSans-Oblique-76" transform="translate(0 0.78125)"/>
     <use xlink:href="#DejaVuSans-35" transform="translate(59.179688 0.78125)"/>
     <use xlink:href="#DejaVuSans-3d" transform="translate(142.285156 0.78125)"/>
     <use xlink:href="#DejaVuSans-31" transform="translate(245.556641 0.78125)"/>
     <use xlink:href="#DejaVuSans-30" transform="translate(309.179688 0.78125)"/>
     <use xlink:href="#DejaVuSans-30" transform="translate(372.802734 0.78125)"/>
     <use xlink:href="#DejaVuSans-Oblique-76" transform="translate(436.425781 0.78125)"/>
    </g>
   </g>
   <g id="text_15">
    <!-- + -->
    <g transform="translate(243.230156 10.600313) scale(0.1 -0.1)">
     <use xlink:href="#DejaVuSans-2b"/>
    </g>
   </g>
   <g id="text_16">
    <!-- + -->
    <g transform="translate(297.230156 10.600313) scale(0.1 -0.1)">
     <use xlink:href="#DejaVuSans-2b"/>
    </g>
   </g>
   <g id="text_17">
    <!-- $v6=200v$ -->
    <g transform="translate(303.62 10.600313) scale(0.1 -0.1)">
     <defs>
      <path id="DejaVuSans-36" d="M 2113 2584 
Q 1688 2584 1439 2293 
Q 1191 2003 1191 1497 
Q 1191 994 1439 701 
Q 1688 409 2113 409 
Q 2538 409 2786 701 
Q 3034 994 3034 1497 
Q 3034 2003 2786 2293 
Q 2538 2584 2113 2584 
z
M 3366 4563 
L 3366 3988 
Q 3128 4100 2886 4159 
Q 2644 4219 2406 4219 
Q 1781 4219 1451 3797 
Q 1122 3375 1075 2522 
Q 1259 2794 1537 2939 
Q 1816 3084 2150 3084 
Q 2853 3084 3261 2657 
Q 3669 2231 3669 1497 
Q 3669 778 3244 343 
Q 2819 -91 2113 -91 
Q 1303 -91 875 529 
Q 447 1150 447 2328 
Q 447 3434 972 4092 
Q 1497 4750 2381 4750 
Q 2619 4750 2861 4703 
Q 3103 4656 3366 4563 
z
" transform="scale(0.015625)"/>
     </defs>
     <use xlink:href="#DejaVuSans-Oblique-76" transform="translate(0 0.78125)"/>
     <use xlink:href="#DejaVuSans-36" transform="translate(59.179688 0.78125)"/>
     <use xlink:href="#DejaVuSans-3d" transform="translate(142.285156 0.78125)"/>
     <use xlink:href="#DejaVuSans-32" transform="translate(245.556641 0.78125)"/>
     <use xlink:href="#DejaVuSans-30" transform="translate(309.179688 0.78125)"/>
     <use xlink:href="#DejaVuSans-30" transform="translate(372.802734 0.78125)"/>
     <use xlink:href="#DejaVuSans-Oblique-76" transform="translate(436.425781 0.78125)"/>
    </g>
   </g>
   <g id="text_18">
    <!-- - -->
    <g transform="translate(353.616094 10.600313) scale(0.1 -0.1)">
     <use xlink:href="#DejaVuSans-2d"/>
    </g>
   </g>
   <g id="text_19">
    <!-- + -->
    <g transform="translate(365.220312 51.259375) scale(0.1 -0.1)">
     <use xlink:href="#DejaVuSans-2b"/>
    </g>
   </g>
   <g id="text_20">
    <!-- $v8$ -->
    <g transform="translate(361.3 78.259375) scale(0.1 -0.1)">
     <defs>
      <path id="DejaVuSans-38" d="M 2034 2216 
Q 1584 2216 1326 1975 
Q 1069 1734 1069 1313 
Q 1069 891 1326 650 
Q 1584 409 2034 409 
Q 2484 409 2743 651 
Q 3003 894 3003 1313 
Q 3003 1734 2745 1975 
Q 2488 2216 2034 2216 
z
M 1403 2484 
Q 997 2584 770 2862 
Q 544 3141 544 3541 
Q 544 4100 942 4425 
Q 1341 4750 2034 4750 
Q 2731 4750 3128 4425 
Q 3525 4100 3525 3541 
Q 3525 3141 3298 2862 
Q 3072 2584 2669 2484 
Q 3125 2378 3379 2068 
Q 3634 1759 3634 1313 
Q 3634 634 3220 271 
Q 2806 -91 2034 -91 
Q 1263 -91 848 271 
Q 434 634 434 1313 
Q 434 1759 690 2068 
Q 947 2378 1403 2484 
z
M 1172 3481 
Q 1172 3119 1398 2916 
Q 1625 2713 2034 2713 
Q 2441 2713 2670 2916 
Q 2900 3119 2900 3481 
Q 2900 3844 2670 4047 
Q 2441 4250 2034 4250 
Q 1625 4250 1398 4047 
Q 1172 3844 1172 3481 
z
" transform="scale(0.015625)"/>
     </defs>
     <use xlink:href="#DejaVuSans-Oblique-76" transform="translate(0 0.78125)"/>
     <use xlink:href="#DejaVuSans-38" transform="translate(59.179688 0.78125)"/>
    </g>
   </g>
   <g id="text_21">
    <!-- - -->
    <g transform="translate(369.992187 105.259375) scale(0.1 -0.1)">
     <use xlink:href="#DejaVuSans-2d"/>
    </g>
   </g>
   <g id="text_22">
    <!-- - -->
    <g transform="translate(326.616094 118.600312) scale(0.1 -0.1)">
     <use xlink:href="#DejaVuSans-2d"/>
    </g>
   </g>
   <g id="text_23">
    <!-- $v7=50v$ -->
    <g transform="translate(252.82 118.600312) scale(0.1 -0.1)">
     <defs>
      <path id="DejaVuSans-37" d="M 525 4666 
L 3525 4666 
L 3525 4397 
L 1831 0 
L 1172 0 
L 2766 4134 
L 525 4134 
L 525 4666 
z
" transform="scale(0.015625)"/>
     </defs>
     <use xlink:href="#DejaVuSans-Oblique-76" transform="translate(0 0.78125)"/>
     <use xlink:href="#DejaVuSans-37" transform="translate(59.179688 0.78125)"/>
     <use xlink:href="#DejaVuSans-3d" transform="translate(142.285156 0.78125)"/>
     <use xlink:href="#DejaVuSans-35" transform="translate(245.556641 0.78125)"/>
     <use xlink:href="#DejaVuSans-30" transform="translate(309.179688 0.78125)"/>
     <use xlink:href="#DejaVuSans-Oblique-76" transform="translate(372.802734 0.78125)"/>
    </g>
   </g>
   <g id="text_24">
    <!-- + -->
    <g transform="translate(216.230156 118.600312) scale(0.1 -0.1)">
     <use xlink:href="#DejaVuSans-2b"/>
    </g>
   </g>
  </g>
 </g>
 <defs>
  <clipPath id="pc641ccefb4">
   <rect x="6.22" y="0" width="387.18" height="140.48"/>
  </clipPath>
 </defs>
</svg>